<svg width="1061" height="1216" viewBox="0 0 1061 1216" fill="none" xmlns="http://www.w3.org/2000/svg">
<path d="M44.824 0.479996L77.464 88.544H89.624V92H51.48V88.544H63.64L54.68 63.584H24.472L16.92 86.752L27.8 88.544V92H0.28V88.544L13.08 86.624L41.24 0.479996H44.824ZM39.192 18.016L25.624 60.128H53.272L39.192 18.016ZM115.496 60.896C117.715 60.896 119.891 61.0667 122.024 61.408C124.243 61.7493 126.163 62.2187 127.784 62.816V47.456C127.784 43.7867 126.888 41.184 125.096 39.648C123.389 38.0267 120.957 37.216 117.8 37.216C115.752 37.216 113.789 37.5573 111.912 38.24C110.035 38.8373 108.499 39.6053 107.304 40.544C108.413 40.9707 109.48 41.7387 110.504 42.848C111.528 43.9573 112.04 45.4507 112.04 47.328C112.04 48.9493 111.443 50.4427 110.248 51.808C109.053 53.088 107.517 53.728 105.64 53.728C103.848 53.728 102.355 53.1307 101.16 51.936C99.9653 50.656 99.368 49.0347 99.368 47.072C99.368 45.1947 99.9653 43.4453 101.16 41.824C102.355 40.2027 103.891 38.8373 105.768 37.728C107.731 36.5333 109.949 35.5947 112.424 34.912C114.899 34.2293 117.416 33.888 119.976 33.888C125.608 33.888 130.344 34.9973 134.184 37.216C138.024 39.3493 139.944 43.1893 139.944 48.736V82.272C139.944 83.9787 140.243 85.344 140.84 86.368C141.523 87.3067 142.589 87.776 144.04 87.776C145.405 87.776 146.557 87.3067 147.496 86.368C148.52 85.4293 149.331 84.5333 149.928 83.68L151.976 85.728C150.44 88.032 148.648 89.824 146.6 91.104C144.637 92.384 142.376 93.024 139.816 93.024C137.427 93.024 135.208 92.5547 133.16 91.616C131.112 90.592 129.533 88.8 128.424 86.24C126.291 88.1173 123.773 89.7387 120.872 91.104C118.056 92.4693 114.771 93.152 111.016 93.152C106.152 93.152 102.099 91.7013 98.856 88.8C95.6987 85.8987 94.12 82.1013 94.12 77.408C94.12 72.288 96.04 68.2773 99.88 65.376C103.72 62.3893 108.925 60.896 115.496 60.896ZM106.92 75.872C106.92 79.3707 107.859 82.1867 109.736 84.32C111.613 86.368 114.259 87.392 117.672 87.392C119.72 87.392 121.555 87.0507 123.176 86.368C124.797 85.6 126.333 84.576 127.784 83.296V66.016C125.992 65.3333 124.328 64.864 122.792 64.608C121.341 64.2667 119.677 64.096 117.8 64.096C114.131 64.096 111.4 65.2053 109.608 67.424C107.816 69.6427 106.92 72.4587 106.92 75.872ZM224.508 92H187.9V88.544H200.06V5.728H187.9V2.272H223.74C233.212 2.272 240.593 3.93599 245.884 7.26399C251.175 10.5067 253.82 15.4987 253.82 22.24C253.82 25.4827 253.137 28.384 251.772 30.944C250.492 33.4187 248.828 35.5947 246.78 37.472C244.732 39.264 242.385 40.7147 239.74 41.824C237.095 42.848 234.449 43.5307 231.804 43.872V44.384C235.132 44.64 238.289 45.28 241.276 46.304C244.263 47.328 246.865 48.736 249.084 50.528C251.303 52.2347 253.052 54.4107 254.332 57.056C255.697 59.616 256.38 62.6027 256.38 66.016C256.38 69.4293 255.655 72.7147 254.204 75.872C252.839 79.0293 250.791 81.8027 248.06 84.192C245.415 86.5813 242.087 88.5013 238.076 89.952C234.151 91.3173 229.628 92 224.508 92ZM212.86 88.544H223.356C229.756 88.544 234.577 86.496 237.82 82.4C241.063 78.2187 242.684 72.928 242.684 66.528C242.684 59.4453 240.935 54.2827 237.436 51.04C234.023 47.712 229.329 46.048 223.356 46.048H212.86V88.544ZM212.86 42.592H223.356C228.732 42.592 232.871 40.8 235.772 37.216C238.673 33.5467 240.124 28.6827 240.124 22.624C240.124 17.3333 238.673 13.1947 235.772 10.208C232.871 7.22133 228.476 5.728 222.588 5.728H212.86V42.592ZM306.044 93.024C301.863 93.024 297.98 91.9573 294.396 89.824C290.812 87.6907 288.38 84.7893 287.1 81.12V93.28L274.94 92H265.34V88.544H274.94V5.728H265.34V2.272H274.94L287.1 0.479996V46.816C288.551 42.6347 290.983 39.4347 294.396 37.216C297.809 34.9973 301.82 33.888 306.428 33.888C311.207 33.888 315.175 34.6987 318.332 36.32C321.575 37.9413 324.135 40.0747 326.012 42.72C327.975 45.28 329.34 48.2667 330.108 51.68C330.961 55.008 331.388 58.4213 331.388 61.92C331.388 65.5893 330.876 69.3013 329.852 73.056C328.913 76.7253 327.42 80.0533 325.372 83.04C323.324 85.9413 320.679 88.3307 317.436 90.208C314.279 92.0853 310.481 93.024 306.044 93.024ZM287.1 61.408V69.6C287.1 71.9893 287.527 74.336 288.38 76.64C289.233 78.8587 290.385 80.8213 291.836 82.528C293.287 84.2347 294.993 85.6427 296.956 86.752C298.919 87.776 300.967 88.288 303.1 88.288C305.66 88.288 307.921 87.648 309.884 86.368C311.847 85.0027 313.425 83.168 314.62 80.864C315.9 78.4747 316.839 75.7013 317.436 72.544C318.119 69.3867 318.46 65.9733 318.46 62.304C318.46 55.392 317.18 49.7173 314.62 45.28C312.06 40.7573 308.177 38.496 302.972 38.496C300.497 38.496 298.236 39.136 296.188 40.416C294.225 41.696 292.561 43.4027 291.196 45.536C289.916 47.6693 288.892 50.144 288.124 52.96C287.441 55.6907 287.1 58.5067 287.1 61.408ZM436.43 0.991997H439.886V31.072H436.43C436.003 26.464 435.065 22.496 433.614 19.168C432.163 15.7547 430.329 13.024 428.11 10.976C425.977 8.84266 423.502 7.30666 420.686 6.368C417.955 5.34399 415.139 4.83199 412.238 4.83199C408.227 4.83199 404.601 5.856 401.358 7.904C398.115 9.952 395.342 12.8533 393.038 16.608C390.819 20.2773 389.113 24.8 387.918 30.176C386.723 35.4667 386.126 41.3547 386.126 47.84C386.126 54.4107 386.809 60.2987 388.174 65.504C389.539 70.7093 391.417 75.0613 393.806 78.56C396.195 82.0587 399.011 84.7467 402.254 86.624C405.497 88.5013 408.953 89.44 412.622 89.44C419.193 89.44 424.526 87.136 428.622 82.528C432.803 77.92 435.278 72.1173 436.046 65.12H439.502V93.408H436.174L434.126 81.248C431.822 84.576 428.75 87.392 424.91 89.696C421.07 91.9147 416.462 93.024 411.086 93.024C405.369 93.024 400.121 91.9147 395.342 89.696C390.563 87.4773 386.467 84.4053 383.054 80.48C379.726 76.4693 377.123 71.6907 375.246 66.144C373.369 60.512 372.43 54.4107 372.43 47.84C372.43 41.0133 373.411 34.7413 375.374 29.024C377.337 23.3067 380.025 18.4 383.438 14.304C386.937 10.208 391.075 7.05066 395.854 4.83199C400.718 2.528 405.966 1.376 411.598 1.376C416.121 1.376 420.302 2.22933 424.142 3.936C428.067 5.55733 431.609 8.37333 434.766 12.384L436.43 0.991997ZM498.474 77.28L501.034 78.944C499.157 82.3573 496.383 85.5573 492.714 88.544C489.13 91.4453 484.607 92.896 479.146 92.896C474.965 92.896 471.167 92.1707 467.754 90.72C464.341 89.184 461.397 87.136 458.922 84.576C456.533 81.9307 454.655 78.816 453.29 75.232C452.01 71.5627 451.37 67.6373 451.37 63.456C451.37 54.752 453.93 47.6693 459.05 42.208C464.17 36.6613 470.954 33.888 479.402 33.888C482.133 33.888 484.693 34.272 487.082 35.04C489.557 35.7227 491.647 36.704 493.354 37.984C495.743 39.776 497.493 41.6107 498.602 43.488C499.797 45.3653 500.394 47.1573 500.394 48.864C500.394 50.912 499.711 52.576 498.346 53.856C497.066 55.0507 495.573 55.648 493.866 55.648C492.159 55.648 490.709 55.0933 489.514 53.984C488.319 52.8747 487.722 51.424 487.722 49.632C487.722 48.0107 488.149 46.6027 489.002 45.408C489.855 44.2133 491.05 43.1893 492.586 42.336C491.477 40.9707 489.813 39.8187 487.594 38.88C485.375 37.9413 483.199 37.472 481.066 37.472C475.605 37.472 471.466 39.904 468.65 44.768C465.834 49.632 464.426 55.8187 464.426 63.328C464.426 70.496 465.919 76.4267 468.906 81.12C471.978 85.8133 476.458 88.16 482.346 88.16C486.271 88.16 489.514 87.0933 492.074 84.96C494.719 82.7413 496.853 80.1813 498.474 77.28ZM579.556 92H540.9V88.544H553.06V5.728H540.9V2.272H579.044C585.273 2.272 591.033 2.99733 596.324 4.448C601.615 5.81333 606.137 8.16 609.892 11.488C613.732 14.816 616.719 19.296 618.852 24.928C621.071 30.4747 622.18 37.3867 622.18 45.664C622.18 52.1493 621.241 58.2507 619.364 63.968C617.572 69.6 614.884 74.5067 611.3 78.688C607.716 82.784 603.236 86.0267 597.86 88.416C592.569 90.8053 586.468 92 579.556 92ZM565.86 88.544H577.892C583.183 88.544 587.748 87.392 591.588 85.088C595.428 82.784 598.585 79.712 601.06 75.872C603.62 71.9467 605.497 67.424 606.692 62.304C607.887 57.184 608.484 51.8507 608.484 46.304C608.484 33.8453 606.095 23.9893 601.316 16.736C596.623 9.39733 589.199 5.728 579.044 5.728H565.86V88.544ZM677.167 81.12C674.778 85.472 671.791 88.544 668.207 90.336C664.708 92.128 661.38 93.024 658.223 93.024C654.298 93.024 650.714 92.2987 647.471 90.848C644.314 89.312 641.626 87.264 639.407 84.704C637.188 82.0587 635.482 78.944 634.287 75.36C633.092 71.776 632.495 67.936 632.495 63.84C632.495 59.6587 633.135 55.7333 634.415 52.064C635.78 48.3947 637.615 45.1947 639.919 42.464C642.308 39.7333 645.082 37.6 648.239 36.064C651.482 34.528 654.938 33.76 658.607 33.76C663.13 33.76 666.884 34.7413 669.871 36.704C672.943 38.6667 675.375 41.4827 677.167 45.152V5.728H667.567V2.272H677.167L689.327 0.479996V88.288H698.927V91.744H689.327L677.167 93.408V81.12ZM661.935 87.648C664.239 87.648 666.33 87.0933 668.207 85.984C670.084 84.7893 671.663 83.3813 672.943 81.76C674.308 80.0533 675.332 78.2613 676.015 76.384C676.783 74.4213 677.167 72.672 677.167 71.136V57.952C677.167 55.648 676.783 53.3867 676.015 51.168C675.332 48.9493 674.308 46.9867 672.943 45.28C671.663 43.488 670.042 42.08 668.079 41.056C666.202 39.9467 664.154 39.392 661.935 39.392C659.29 39.392 656.9 40.032 654.767 41.312C652.719 42.592 650.97 44.3413 649.519 46.56C648.154 48.7787 647.087 51.3813 646.319 54.368C645.636 57.3547 645.295 60.512 645.295 63.84C645.295 70.5813 646.788 76.256 649.775 80.864C652.847 85.3867 656.9 87.648 661.935 87.648ZM803.704 92H737.4V88.544H749.56V5.728H737.4V2.272H800.376V28.512H796.92L792.568 5.728H762.36V44.128H781.176L783.864 29.152H787.32V62.432H783.992L781.176 47.584H762.36V88.544H795.896L800.248 64.48H803.704V92ZM842.366 33.888C845.097 33.888 847.87 34.3573 850.686 35.296C853.502 36.1493 855.977 37.6 858.11 39.648C860.329 41.6107 862.121 44.2133 863.486 47.456C864.937 50.6133 865.662 54.4533 865.662 58.976H828.926C828.841 59.6587 828.798 60.4267 828.798 61.28C828.798 62.1333 828.798 62.8587 828.798 63.456C828.883 71.904 830.547 78.1333 833.79 82.144C837.118 86.0693 841.385 88.032 846.59 88.032C850.515 88.032 853.801 86.9653 856.446 84.832C859.177 82.6987 861.225 80.0107 862.59 76.768L865.406 78.816C863.529 82.7413 860.883 86.112 857.47 88.928C854.057 91.6587 849.363 93.024 843.39 93.024C838.953 93.024 834.985 92.256 831.486 90.72C828.073 89.184 825.214 87.136 822.91 84.576C820.606 81.9307 818.857 78.816 817.662 75.232C816.467 71.648 815.87 67.808 815.87 63.712C815.87 58.9333 816.595 54.7093 818.046 51.04C819.582 47.2853 821.545 44.1707 823.934 41.696C826.409 39.136 829.225 37.216 832.382 35.936C835.625 34.5707 838.953 33.888 842.366 33.888ZM829.31 55.52H852.862C852.777 53.5573 852.478 51.5093 851.966 49.376C851.539 47.2427 850.899 45.3227 850.046 43.616C849.193 41.7387 847.998 40.2027 846.462 39.008C844.926 37.8133 843.219 37.216 841.342 37.216C839.465 37.216 837.758 37.856 836.222 39.136C834.771 40.3307 833.534 41.9093 832.51 43.872C831.657 45.4933 830.974 47.328 830.462 49.376C829.95 51.424 829.566 53.472 829.31 55.52ZM943.925 92H905.525V88.544H917.685V5.728H905.525V2.272H968.501V28.512H965.045L960.693 5.728H930.485V45.408H950.453L953.269 30.432H956.725V63.712H953.397L950.453 48.864H930.485V88.544H943.925V92ZM1011.77 1.376C1014.41 1.376 1016.76 1.71733 1018.81 2.39999C1020.94 3.08266 1022.73 3.97866 1024.19 5.088C1026.06 6.45333 1027.51 8.07466 1028.54 9.952C1029.56 11.744 1030.07 13.5787 1030.07 15.456C1030.07 17.504 1029.48 19.168 1028.28 20.448C1027.09 21.728 1025.55 22.368 1023.67 22.368C1021.8 22.368 1020.26 21.7707 1019.07 20.576C1017.96 19.3813 1017.4 17.8453 1017.4 15.968C1017.4 14.5173 1017.91 13.1947 1018.94 12C1020.05 10.72 1021.41 9.90933 1023.03 9.56799C1021.67 7.86133 1020.17 6.66666 1018.55 5.98399C1016.93 5.21599 1014.93 4.83199 1012.54 4.83199C1008.87 4.83199 1005.92 6.32533 1003.71 9.312C1001.57 12.2987 1000.51 16.1387 1000.51 20.832V35.04H1012.03V38.496H1000.51V88.544H1010.11V92H978.745V88.544H988.345V38.496H978.745V35.04H988.345V24.8C988.345 18.144 990.35 12.5973 994.361 8.16C998.372 3.63733 1004.17 1.376 1011.77 1.376ZM52.248 245.464V242.008H87.064V245.464H76.824V267.352C73.8373 270.509 69.8267 273.411 64.792 276.056C59.8427 278.701 54.296 280.024 48.152 280.024C42.0933 280.024 36.5467 278.957 31.512 276.824C26.5627 274.605 22.3387 271.533 18.84 267.608C15.3413 263.597 12.6107 258.819 10.648 253.272C8.68533 247.725 7.704 241.581 7.704 234.84C7.704 228.44 8.6 222.381 10.392 216.664C12.184 210.947 14.744 205.997 18.072 201.816C21.4 197.635 25.4533 194.349 30.232 191.96C35.0107 189.485 40.3867 188.248 46.36 188.248C51.6507 188.248 56.1307 189.101 59.8 190.808C63.4693 192.515 66.84 195.203 69.912 198.872L71.576 187.864H75.032V217.944H71.576C70.7227 208.899 68.0773 202.285 63.64 198.104C59.2027 193.837 53.8693 191.704 47.64 191.704C39.96 191.704 33.6453 195.373 28.696 202.712C23.832 209.965 21.4 220.675 21.4 234.84C21.4 241.837 22.0827 247.939 23.448 253.144C24.8987 258.349 26.8187 262.701 29.208 266.2C31.6827 269.613 34.584 272.173 37.912 273.88C41.24 275.587 44.824 276.44 48.664 276.44C51.48 276.44 54.2107 276.056 56.856 275.288C59.5867 274.52 62.104 273.325 64.408 271.704V245.464H52.248ZM136.985 226.648C138.265 224.6 140.1 222.68 142.489 220.888C144.878 219.011 147.737 218.072 151.065 218.072C153.369 218.072 155.289 218.712 156.825 219.992C158.361 221.272 159.129 222.979 159.129 225.112C159.129 227.075 158.574 228.696 157.465 229.976C156.356 231.171 154.948 231.768 153.241 231.768C151.705 231.768 150.382 231.299 149.273 230.36C148.164 229.421 147.609 228.056 147.609 226.264C147.609 225.325 147.822 224.387 148.249 223.448C148.761 222.509 149.358 221.784 150.041 221.272C147.822 221.272 145.732 222.04 143.769 223.576C141.892 225.112 140.356 226.947 139.161 229.08C140.782 231.043 141.977 233.219 142.745 235.608C143.598 237.997 144.025 240.515 144.025 243.16C144.025 246.232 143.385 249.091 142.105 251.736C140.91 254.381 139.246 256.685 137.113 258.648C134.98 260.525 132.462 262.019 129.561 263.128C126.66 264.237 123.63 264.792 120.473 264.792C118.51 264.792 116.676 264.621 114.969 264.28C113.262 263.853 111.684 263.299 110.233 262.616C109.636 263.213 109.081 264.067 108.569 265.176C108.057 266.285 107.801 267.395 107.801 268.504C107.801 269.955 108.356 271.491 109.465 273.112C110.66 274.648 112.665 275.544 115.481 275.8C116.761 275.885 118.041 275.971 119.321 276.056C120.601 276.056 121.881 276.056 123.161 276.056C125.636 276.056 127.684 276.013 129.305 275.928C131.012 275.843 132.718 275.8 134.425 275.8C139.972 275.8 144.409 276.824 147.737 278.872C151.065 280.835 152.729 284.547 152.729 290.008C152.729 292.995 152.089 295.939 150.809 298.84C149.614 301.741 147.737 304.301 145.177 306.52C142.617 308.739 139.332 310.531 135.321 311.896C131.31 313.261 126.617 313.944 121.241 313.944C112.11 313.944 105.284 312.451 100.761 309.464C96.3237 306.563 94.105 303.107 94.105 299.096C94.105 295.939 95.2143 293.251 97.433 291.032C99.737 288.813 102.766 287.149 106.521 286.04C104.046 285.187 101.998 283.779 100.377 281.816C98.841 279.939 98.073 277.763 98.073 275.288C98.073 272.472 98.8837 269.827 100.505 267.352C102.126 264.792 104.345 262.701 107.161 261.08C104.345 259.459 101.913 257.112 99.865 254.04C97.817 250.883 96.793 247.213 96.793 243.032C96.793 240.045 97.305 237.187 98.329 234.456C99.353 231.725 100.846 229.379 102.809 227.416C104.857 225.368 107.332 223.747 110.233 222.552C113.22 221.357 116.59 220.76 120.345 220.76C123.929 220.76 127.129 221.315 129.945 222.424C132.761 223.448 135.108 224.856 136.985 226.648ZM144.409 294.104C144.409 291.544 143.513 289.709 141.721 288.6C140.014 287.491 137.54 286.936 134.297 286.936C133.188 286.936 131.438 286.936 129.049 286.936C126.66 287.021 124.697 287.064 123.161 287.064C121.625 287.064 119.79 287.021 117.657 286.936C115.524 286.936 113.518 286.893 111.641 286.808C108.996 288.173 106.948 289.795 105.497 291.672C104.132 293.635 103.449 296.067 103.449 298.968C103.449 301.869 104.814 304.472 107.545 306.776C110.361 309.165 115.14 310.36 121.881 310.36C128.537 310.36 133.956 308.781 138.137 305.624C142.318 302.467 144.409 298.627 144.409 294.104ZM120.345 261.336C123.758 261.336 126.404 259.672 128.281 256.344C130.244 252.931 131.225 248.536 131.225 243.16C131.225 237.784 130.244 233.304 128.281 229.72C126.404 226.051 123.758 224.216 120.345 224.216C118.638 224.216 117.102 224.728 115.737 225.752C114.457 226.776 113.348 228.141 112.409 229.848C111.47 231.555 110.745 233.56 110.233 235.864C109.806 238.168 109.593 240.557 109.593 243.032C109.593 248.237 110.532 252.589 112.409 256.088C114.286 259.587 116.932 261.336 120.345 261.336ZM252.063 192.728H239.903V275.544H252.063V279H214.943V275.544H227.103V234.968H184.735V275.544H196.895V279H159.775V275.544H171.935V192.728H159.775V189.272H196.895V192.728H184.735V231.512H227.103V192.728H214.943V189.272H252.063V192.728ZM320.5 239.448V275.544H330.1V279H299.38V275.544H308.34V240.088C308.34 235.565 307.487 232.28 305.78 230.232C304.073 228.184 301.385 227.16 297.716 227.16C293.535 227.16 289.993 229.037 287.092 232.792C284.191 236.547 282.74 240.984 282.74 246.104V275.544H291.7V279H260.98V275.544H270.58V192.728H260.98V189.272H270.58L282.74 187.48V234.584C284.617 230.232 287.348 226.861 290.932 224.472C294.516 221.997 298.612 220.76 303.22 220.76C308.596 220.76 312.777 222.253 315.764 225.24C318.836 228.141 320.415 232.877 320.5 239.448ZM405.145 192.728H392.985V275.544H405.145V279H368.025V275.544H380.185V192.728H368.025V189.272H405.145V192.728ZM429.465 208.984C427.332 208.984 425.497 208.216 423.961 206.68C422.51 205.144 421.785 203.352 421.785 201.304C421.785 199.256 422.51 197.549 423.961 196.184C425.497 194.733 427.332 194.008 429.465 194.008C431.513 194.008 433.262 194.733 434.713 196.184C436.164 197.549 436.889 199.256 436.889 201.304C436.889 203.352 436.164 205.144 434.713 206.68C433.262 208.216 431.513 208.984 429.465 208.984ZM435.865 220.248V275.544H445.465V279H414.105V275.544H423.705V225.496H414.105V222.04H423.705L435.865 220.248ZM562.876 192.728L548.54 194.008L521.66 225.24L559.036 275.544H571.196V279H532.028V275.544H544.188L512.828 233.304H508.86V275.544H521.02V279H483.9V275.544H496.06V192.728H483.9V189.272H521.02V192.728H508.86V229.848H512.828L543.548 194.008L532.668 192.728V189.272H562.876V192.728ZM585.94 275.544V192.728H576.34V189.272H585.94L598.1 187.48V247.896H602.452L621.268 226.776L612.948 225.496V222.04H637.908V225.496L627.028 226.776L611.284 244.184L636.5 275.544H646.1V279H613.076V275.544H622.036L602.58 251.352H598.1V275.544H607.06V279H576.34V275.544H585.94ZM749.046 279H684.15V275.544H696.31V192.728H684.15V189.272H721.142V192.728H708.982V275.544H741.622L746.998 248.536H750.326L749.046 279ZM779.725 187.992V275.544H789.325V279H757.965V275.544H767.565V192.728H757.965V189.272H767.693L779.725 187.992ZM929.023 192.728H916.863V275.544H929.023V279H891.903V275.544H904.063V199.768L875.391 280.152H871.935L845.055 199.896V273.752L857.215 275.544V279H827.647V275.544L841.343 273.752V192.728H829.183V189.272H855.423L878.591 260.184L903.807 189.272H929.023V192.728ZM1032.7 242.136V275.544H1042.3V279H1011.32V275.544H1020.28V242.776C1020.28 237.656 1019.47 233.773 1017.85 231.128C1016.32 228.397 1013.67 227.032 1009.92 227.032C1007.7 227.032 1005.69 227.587 1003.9 228.696C1002.19 229.72 1000.74 231.128 999.548 232.92C998.439 234.627 997.585 236.632 996.988 238.936C996.391 241.24 996.092 243.629 996.092 246.104V275.544H1005.05V279H974.972V275.544H983.932V241.88C983.932 237.187 983.164 233.56 981.628 231C980.092 228.355 977.447 227.032 973.692 227.032C969.511 227.032 966.14 228.952 963.58 232.792C961.02 236.547 959.74 240.984 959.74 246.104V275.544H968.7V279H937.98V275.544H947.58V225.496H937.98V222.04H947.708L959.74 220.248V234.2C961.361 229.848 963.793 226.563 967.036 224.344C970.364 222.04 974.332 220.888 978.94 220.888C983.548 220.888 987.303 222.04 990.204 224.344C993.105 226.648 994.983 229.891 995.836 234.072C997.713 229.805 1000.23 226.563 1003.39 224.344C1006.55 222.04 1010.43 220.888 1015.04 220.888C1021.44 220.888 1025.96 222.851 1028.6 226.776C1031.33 230.701 1032.7 235.821 1032.7 242.136ZM33.432 466H5.528V462.544L17.688 461.264V379.728H5.528V376.272H30.36L72.216 444.24V381.008L60.056 379.728V376.272H88.088V379.728L75.928 381.008V467.024H72.216L21.4 385.616V461.264L33.432 462.544V466ZM154.75 426.448V462.544H164.35V466H133.63V462.544H142.59V426.96C142.59 422.693 141.737 419.493 140.03 417.36C138.323 415.141 135.635 414.032 131.966 414.032C129.833 414.032 127.827 414.544 125.95 415.568C124.073 416.592 122.494 417.957 121.214 419.664C119.934 421.371 118.91 423.376 118.142 425.68C117.374 427.899 116.99 430.245 116.99 432.72V462.544H125.95V466H95.23V462.544H104.83V412.496H95.23V409.04H104.83L116.99 407.248V421.2C118.782 416.763 121.47 413.435 125.054 411.216C128.638 408.997 132.606 407.888 136.958 407.888C142.505 407.888 146.857 409.381 150.014 412.368C153.171 415.355 154.75 420.048 154.75 426.448ZM244.774 467.024C238.545 467.024 232.87 465.872 227.75 463.568C222.63 461.179 218.278 457.979 214.694 453.968C211.11 449.872 208.337 445.051 206.374 439.504C204.411 433.872 203.43 427.813 203.43 421.328C203.43 414.843 204.369 408.784 206.246 403.152C208.123 397.52 210.811 392.656 214.31 388.56C217.894 384.464 222.246 381.221 227.366 378.832C232.571 376.443 238.374 375.248 244.774 375.248C251.003 375.248 256.635 376.357 261.67 378.576C266.79 380.795 271.142 383.909 274.726 387.92C278.31 391.931 281.041 396.795 282.918 402.512C284.881 408.144 285.862 414.331 285.862 421.072C285.862 427.131 284.838 432.933 282.79 438.48C280.742 444.027 277.883 448.933 274.214 453.2C270.63 457.381 266.321 460.752 261.286 463.312C256.251 465.787 250.747 467.024 244.774 467.024ZM244.774 378.704C240.422 378.704 236.539 379.813 233.126 382.032C229.713 384.251 226.811 387.323 224.422 391.248C222.033 395.088 220.198 399.653 218.918 404.944C217.723 410.149 217.126 415.739 217.126 421.712C217.126 427.685 217.851 433.232 219.302 438.352C220.753 443.472 222.715 447.867 225.19 451.536C227.75 455.205 230.694 458.107 234.022 460.24C237.435 462.288 241.019 463.312 244.774 463.312C248.529 463.312 252.07 462.288 255.398 460.24C258.811 458.107 261.713 455.205 264.102 451.536C266.577 447.867 268.539 443.472 269.99 438.352C271.441 433.232 272.166 427.685 272.166 421.712C272.166 415.397 271.526 409.595 270.246 404.304C269.051 398.928 267.302 394.363 264.998 390.608C262.694 386.853 259.835 383.952 256.422 381.904C253.009 379.771 249.126 378.704 244.774 378.704ZM325.045 407.888C329.994 407.888 334.304 408.741 337.973 410.448C341.642 412.155 344.629 414.373 346.933 417.104C349.237 419.835 350.944 422.992 352.053 426.576C353.248 430.075 353.845 433.659 353.845 437.328C353.845 441.083 353.205 444.752 351.925 448.336C350.73 451.92 348.938 455.077 346.549 457.808C344.16 460.539 341.13 462.757 337.461 464.464C333.877 466.171 329.738 467.024 325.045 467.024C316.17 467.024 309.13 464.336 303.925 458.96C298.805 453.499 296.245 446.331 296.245 437.456C296.245 433.445 296.885 429.648 298.165 426.064C299.445 422.48 301.28 419.365 303.669 416.72C306.144 413.989 309.173 411.856 312.757 410.32C316.341 408.699 320.437 407.888 325.045 407.888ZM324.917 463.568C327.562 463.568 329.866 462.843 331.829 461.392C333.877 459.856 335.541 457.893 336.821 455.504C338.186 453.115 339.168 450.341 339.765 447.184C340.448 444.027 340.789 440.784 340.789 437.456C340.789 434.043 340.49 430.757 339.893 427.6C339.296 424.443 338.357 421.669 337.077 419.28C335.882 416.891 334.261 414.971 332.213 413.52C330.25 412.069 327.861 411.344 325.045 411.344C322.4 411.344 320.096 412.069 318.133 413.52C316.17 414.971 314.506 416.933 313.141 419.408C311.861 421.797 310.88 424.571 310.197 427.728C309.6 430.885 309.301 434.128 309.301 437.456C309.301 440.955 309.642 444.325 310.325 447.568C311.008 450.725 311.989 453.499 313.269 455.888C314.634 458.192 316.298 460.069 318.261 461.52C320.224 462.885 322.442 463.568 324.917 463.568ZM429.844 425.936C428.052 425.936 426.132 425.851 424.084 425.68C422.036 425.424 420.031 425.083 418.068 424.656V462.544H431.508V466H393.108V462.544H405.268V379.728H393.108V376.272H431.38C435.22 376.272 438.932 376.656 442.516 377.424C446.1 378.192 449.257 379.472 451.988 381.264C454.719 382.971 456.895 385.275 458.516 388.176C460.137 390.992 460.948 394.533 460.948 398.8C460.948 403.067 460.095 406.907 458.388 410.32C456.767 413.733 454.548 416.592 451.732 418.896C448.916 421.2 445.631 422.949 441.876 424.144C438.121 425.339 434.111 425.936 429.844 425.936ZM428.308 422.48C433.684 422.48 438.164 420.475 441.748 416.464C445.417 412.453 447.252 406.736 447.252 399.312C447.252 392.229 445.545 387.195 442.132 384.208C438.804 381.221 434.025 379.728 427.796 379.728H418.068V420.944C419.604 421.456 421.14 421.84 422.676 422.096C424.297 422.352 426.175 422.48 428.308 422.48ZM467.81 499.536V496.08H477.41V412.496H467.81V409.04H477.538L489.57 407.248V420.816C491.362 416.293 494.007 413.008 497.506 410.96C501.005 408.912 504.93 407.888 509.282 407.888C513.634 407.888 517.389 408.656 520.546 410.192C523.703 411.643 526.263 413.648 528.226 416.208C530.189 418.768 531.639 421.797 532.578 425.296C533.517 428.709 533.986 432.379 533.986 436.304C533.986 440.229 533.389 444.069 532.194 447.824C530.999 451.493 529.293 454.736 527.074 457.552C524.941 460.368 522.253 462.672 519.01 464.464C515.853 466.171 512.269 467.024 508.258 467.024C504.247 467.024 500.578 466.085 497.25 464.208C494.007 462.331 491.447 459.515 489.57 455.76V496.08H499.81V499.536H467.81ZM489.57 433.36V444.624C489.57 446.501 489.954 448.507 490.722 450.64C491.49 452.773 492.557 454.693 493.922 456.4C495.287 458.107 496.909 459.557 498.786 460.752C500.749 461.861 502.882 462.416 505.186 462.416C507.746 462.416 510.007 461.776 511.97 460.496C513.933 459.131 515.554 457.339 516.834 455.12C518.199 452.816 519.223 450.128 519.906 447.056C520.589 443.899 520.93 440.528 520.93 436.944C520.93 429.605 519.565 423.717 516.834 419.28C514.189 414.843 510.391 412.624 505.442 412.624C502.797 412.624 500.493 413.349 498.53 414.8C496.567 416.251 494.903 418.043 493.538 420.176C492.258 422.224 491.277 424.443 490.594 426.832C489.911 429.221 489.57 431.397 489.57 433.36ZM655.921 489.168L657.329 491.856C654.598 493.819 651.526 495.355 648.113 496.464C644.785 497.659 641.03 498.256 636.849 498.256C628.145 498.256 621.574 496.037 617.137 491.6C612.7 487.163 610.481 480.763 610.481 472.4V466.384C605.276 465.531 600.54 463.824 596.273 461.264C592.092 458.619 588.508 455.333 585.521 451.408C582.62 447.483 580.358 442.96 578.737 437.84C577.116 432.635 576.305 427.131 576.305 421.328C576.305 414.843 577.244 408.784 579.121 403.152C580.998 397.52 583.686 392.656 587.185 388.56C590.769 384.464 595.121 381.221 600.241 378.832C605.446 376.443 611.249 375.248 617.649 375.248C623.878 375.248 629.51 376.357 634.545 378.576C639.665 380.795 644.017 383.909 647.601 387.92C651.185 391.931 653.916 396.795 655.793 402.512C657.756 408.144 658.737 414.331 658.737 421.072C658.737 426.619 657.884 431.952 656.177 437.072C654.47 442.192 652.081 446.8 649.009 450.896C645.937 454.907 642.268 458.32 638.001 461.136C633.734 463.867 629.041 465.659 623.921 466.512V472.4C623.921 479.227 625.244 484.475 627.889 488.144C630.62 491.899 635.228 493.776 641.713 493.776C644.358 493.776 646.876 493.392 649.265 492.624C651.654 491.941 653.873 490.789 655.921 489.168ZM617.649 378.704C613.297 378.704 609.414 379.813 606.001 382.032C602.588 384.251 599.686 387.323 597.297 391.248C594.908 395.088 593.073 399.653 591.793 404.944C590.598 410.149 590.001 415.739 590.001 421.712C590.001 427.685 590.726 433.232 592.177 438.352C593.628 443.472 595.59 447.867 598.065 451.536C600.625 455.205 603.569 458.107 606.897 460.24C610.31 462.288 613.894 463.312 617.649 463.312C621.404 463.312 624.945 462.288 628.273 460.24C631.686 458.107 634.588 455.205 636.977 451.536C639.452 447.867 641.414 443.472 642.865 438.352C644.316 433.232 645.041 427.685 645.041 421.712C645.041 415.397 644.401 409.595 643.121 404.304C641.926 398.928 640.177 394.363 637.873 390.608C635.569 386.853 632.71 383.952 629.297 381.904C625.884 379.771 622.001 378.704 617.649 378.704ZM725.696 496.08H735.296V499.536H702.656V496.08H713.536V455.632C711.147 459.728 708.16 462.672 704.576 464.464C701.077 466.171 697.749 467.024 694.592 467.024C690.24 467.024 686.443 466.213 683.2 464.592C679.957 462.971 677.269 460.837 675.136 458.192C673.088 455.547 671.552 452.517 670.528 449.104C669.589 445.605 669.12 442.021 669.12 438.352C669.12 433.915 669.717 429.819 670.912 426.064C672.192 422.309 673.941 419.109 676.16 416.464C678.464 413.733 681.152 411.643 684.224 410.192C687.381 408.656 690.795 407.888 694.464 407.888C698.219 407.888 701.803 408.656 705.216 410.192C708.629 411.643 711.403 414.587 713.536 419.024V407.248L725.824 409.04H735.296V412.496H725.696V496.08ZM698.176 461.648C700.309 461.648 702.315 461.179 704.192 460.24C706.069 459.216 707.691 457.936 709.056 456.4C710.421 454.864 711.488 453.157 712.256 451.28C713.109 449.317 713.536 447.44 713.536 445.648V430.928C713.536 429.136 713.195 427.216 712.512 425.168C711.915 423.035 710.976 421.115 709.696 419.408C708.416 417.701 706.795 416.293 704.832 415.184C702.955 413.989 700.779 413.392 698.304 413.392C695.659 413.392 693.312 414.075 691.264 415.44C689.216 416.72 687.509 418.469 686.144 420.688C684.779 422.907 683.712 425.509 682.944 428.496C682.261 431.483 681.92 434.597 681.92 437.84C681.92 440.997 682.261 444.027 682.944 446.928C683.627 449.829 684.608 452.389 685.888 454.608C687.253 456.741 688.96 458.448 691.008 459.728C693.056 461.008 695.445 461.648 698.176 461.648ZM828.303 454.864C827.962 453.243 827.578 450.683 827.151 447.184C826.81 443.685 826.212 439.12 825.359 433.488C824.762 429.136 823.354 426.149 821.135 424.528C818.916 422.821 814.778 421.968 808.719 421.968H798.735V462.544H812.175V466H773.775V462.544H785.935V379.728H773.775V376.272H809.999C813.839 376.272 817.636 376.571 821.391 377.168C825.146 377.765 828.431 378.832 831.247 380.368C834.148 381.819 836.495 383.867 838.287 386.512C840.079 389.157 840.975 392.485 840.975 396.496C840.975 399.909 840.25 402.981 838.799 405.712C837.434 408.443 835.642 410.789 833.423 412.752C831.204 414.629 828.687 416.208 825.871 417.488C823.055 418.683 820.239 419.493 817.423 419.92V420.432C823.738 420.517 828.644 421.584 832.143 423.632C835.642 425.68 837.69 428.795 838.287 432.976C838.884 437.157 839.396 441.083 839.823 444.752C840.25 448.336 840.847 451.963 841.615 455.632C842.127 457.936 843.066 459.685 844.431 460.88C845.796 461.989 848.015 462.544 851.087 462.544H853.519V466H844.815C839.524 466 835.642 465.104 833.167 463.312C830.778 461.52 829.156 458.704 828.303 454.864ZM798.735 418.512H808.719C815.119 418.512 819.855 416.549 822.927 412.624C825.999 408.613 827.535 403.749 827.535 398.032C827.535 391.973 825.999 387.408 822.927 384.336C819.855 381.264 815.034 379.728 808.463 379.728H798.735V418.512ZM882.365 407.248V421.456C884.072 417.019 886.461 413.648 889.533 411.344C892.69 409.04 896.274 407.888 900.285 407.888C903.613 407.888 906.386 408.912 908.605 410.96C910.824 413.008 911.933 415.611 911.933 418.768C911.933 421.072 911.208 422.864 909.757 424.144C908.306 425.339 906.728 425.936 905.021 425.936C903.144 425.936 901.608 425.339 900.413 424.144C899.304 422.864 898.749 421.413 898.749 419.792C898.749 418.171 899.133 416.763 899.901 415.568C900.754 414.373 902.077 413.349 903.869 412.496C903.272 412.155 902.632 411.899 901.949 411.728C901.352 411.557 900.626 411.472 899.773 411.472C897.042 411.472 894.61 412.197 892.477 413.648C890.344 415.099 888.509 416.976 886.973 419.28C885.522 421.584 884.37 424.229 883.517 427.216C882.749 430.117 882.365 433.061 882.365 436.048V462.544H893.245V466H860.605V462.544H870.205V412.496H860.605V409.04H870.205L882.365 407.248ZM992.155 419.536C994.459 420.731 996.55 421.925 998.427 423.12C1000.3 424.315 1001.93 425.723 1003.29 427.344C1004.66 428.88 1005.68 430.715 1006.36 432.848C1007.13 434.981 1007.51 437.627 1007.51 440.784C1007.51 444.709 1006.75 448.293 1005.21 451.536C1003.68 454.779 1001.63 457.552 999.067 459.856C996.592 462.16 993.734 463.952 990.491 465.232C987.248 466.427 983.92 467.024 980.507 467.024C975.899 467.024 971.504 466.171 967.323 464.464C963.142 462.672 959.558 459.557 956.571 455.12L955.675 467.024H951.707V435.28H955.291C955.974 444.411 958.576 451.408 963.099 456.272C967.622 461.051 973.339 463.44 980.251 463.44C984.944 463.44 989.083 462.032 992.667 459.216C996.336 456.315 998.171 452.091 998.171 446.544C998.171 442.789 997.36 439.803 995.739 437.584C994.118 435.28 991.259 433.104 987.163 431.056C983.75 429.349 980.379 427.728 977.051 426.192C973.723 424.656 969.84 422.736 965.403 420.432C963.611 419.493 961.819 418.427 960.027 417.232C958.235 415.952 956.614 414.501 955.163 412.88C953.798 411.173 952.688 409.211 951.835 406.992C950.982 404.773 950.555 402.213 950.555 399.312C950.555 396.411 951.067 393.509 952.091 390.608C953.115 387.707 954.651 385.147 956.699 382.928C958.747 380.624 961.35 378.789 964.507 377.424C967.664 375.973 971.334 375.248 975.515 375.248C979.782 375.248 983.664 376.101 987.163 377.808C990.747 379.515 993.648 382.117 995.867 385.616L997.531 374.224H1000.86V406.096H997.403C997.403 402.597 996.976 399.227 996.123 395.984C995.27 392.656 993.947 389.712 992.155 387.152C990.448 384.592 988.23 382.544 985.499 381.008C982.854 379.387 979.739 378.576 976.155 378.576C970.694 378.576 966.683 380.027 964.123 382.928C961.563 385.829 960.283 389.2 960.283 393.04C960.283 396.88 961.35 400.08 963.483 402.64C965.616 405.115 968.432 407.333 971.931 409.296C976.112 411.685 979.696 413.563 982.683 414.928C985.755 416.293 988.912 417.829 992.155 419.536ZM1056.27 408.784V428.24H1052.82C1052.39 422.608 1050.73 418.384 1047.83 415.568C1044.92 412.752 1041.47 411.344 1037.46 411.344C1034.3 411.344 1031.91 412.283 1030.29 414.16C1028.67 415.952 1027.86 418.085 1027.86 420.56C1027.86 422.693 1028.24 424.4 1029.01 425.68C1029.86 426.875 1031.23 427.984 1033.11 429.008C1035.24 430.117 1037.29 431.056 1039.25 431.824C1041.21 432.507 1043.05 433.104 1044.75 433.616C1050.39 435.237 1054.44 437.157 1056.91 439.376C1059.39 441.595 1060.63 445.008 1060.63 449.616C1060.63 454.309 1058.96 458.405 1055.63 461.904C1052.39 465.317 1047.83 467.024 1041.94 467.024C1038.52 467.024 1035.32 466.341 1032.34 464.976C1029.44 463.611 1027.17 461.605 1025.55 458.96L1024.27 466.64H1020.82V446.672H1024.27C1025.64 452.304 1027.77 456.528 1030.67 459.344C1033.57 462.16 1037.16 463.568 1041.43 463.568C1043.81 463.568 1046.16 462.8 1048.47 461.264C1050.77 459.643 1051.92 457.04 1051.92 453.456C1051.92 451.323 1051.32 449.659 1050.13 448.464C1049.02 447.184 1047.44 446.245 1045.39 445.648C1042.75 444.795 1039.89 443.899 1036.82 442.96C1033.83 442.021 1031.01 440.827 1028.37 439.376C1025.81 437.925 1023.68 436.091 1021.97 433.872C1020.26 431.568 1019.41 428.709 1019.41 425.296C1019.41 419.749 1021.07 415.483 1024.4 412.496C1027.81 409.424 1032.17 407.888 1037.46 407.888C1039.93 407.888 1042.49 408.4 1045.14 409.424C1047.87 410.363 1050.09 412.027 1051.79 414.416L1052.56 408.784H1056.27ZM8.984 589.384H5.528V563.272H78.104V589.384H74.648L70.296 567.24H48.152V649.544H60.312V653H23.192V649.544H35.352V567.24H13.208L8.984 589.384ZM93.485 639.816V599.496H81.325V596.04H93.613L102.317 576.968H105.645V596.04H121.901V599.496H105.645V638.024C105.645 642.291 106.37 645.107 107.821 646.472C109.357 647.752 111.106 648.392 113.069 648.392C114.946 648.392 116.696 647.752 118.317 646.472C119.938 645.192 121.261 643.741 122.285 642.12L124.973 644.296C123.096 646.941 120.877 649.245 118.317 651.208C115.842 653.085 112.557 654.024 108.461 654.024C104.28 654.024 100.738 652.872 97.837 650.568C94.9357 648.179 93.485 644.595 93.485 639.816ZM232.228 624.968V568.008L220.068 566.728V563.272H248.228V566.728L236.068 568.008V626.248C236.068 631.709 235.172 636.232 233.38 639.816C231.588 643.4 229.284 646.259 226.468 648.392C223.737 650.44 220.665 651.891 217.252 652.744C213.839 653.597 210.511 654.024 207.268 654.024C202.745 654.024 198.521 653.469 194.596 652.36C190.756 651.165 187.428 649.459 184.612 647.24C181.881 644.936 179.705 642.077 178.084 638.664C176.548 635.251 175.78 631.325 175.78 626.888V566.728H163.62V563.272H200.74V566.728H188.58V624.84C188.58 634.141 190.543 640.669 194.468 644.424C198.393 648.179 203.513 650.056 209.828 650.056C212.559 650.056 215.289 649.544 218.02 648.52C220.751 647.496 223.14 645.96 225.188 643.912C227.321 641.864 229.028 639.261 230.308 636.104C231.588 632.947 232.228 629.235 232.228 624.968ZM261.02 635.848V599.496H251.42V596.04H273.18V633.928C273.18 638.451 274.033 641.907 275.74 644.296C277.532 646.6 280.22 647.752 283.804 647.752C285.852 647.752 287.729 647.197 289.436 646.088C291.228 644.893 292.764 643.315 294.044 641.352C295.324 639.304 296.305 636.957 296.988 634.312C297.756 631.581 298.14 628.723 298.14 625.736V599.496H288.54V596.04H310.3V649.544H319.9V653H298.14V639.176C296.775 643.101 294.471 646.557 291.228 649.544C287.985 652.531 283.719 654.024 278.428 654.024C273.223 654.024 268.999 652.531 265.756 649.544C262.599 646.557 261.02 641.992 261.02 635.848ZM420.066 566.728V563.272H448.482V566.728L436.322 568.008L406.754 654.024H402.914L369.25 566.728H357.09V563.272H395.234V566.728H383.074L408.802 635.592L432.226 568.008L420.066 566.728ZM477.295 654.024L451.695 599.496H442.095V596.04H474.351V599.496H464.751L482.799 638.792L499.695 599.496H489.583V596.04H514.031V599.496H504.431L480.751 654.024H477.295ZM586.666 566.728V563.272H623.53V566.728H612.01L636.074 634.312L656.042 568.008L643.882 566.728V563.272H672.298V566.728L660.138 568.008L634.154 654.024H630.314L611.626 603.976L594.474 654.024H590.634L557.738 566.728H545.578V563.272H583.21V566.728H571.69L597.034 634.184L609.578 598.088L598.186 566.728H586.666ZM733.848 654.024L717.08 612.296L701.72 654.024H698.264L678.04 599.496H668.44V596.04H699.672V599.496H690.712L704.152 637.768L719.64 594.888H722.84L739.48 637.768L753.048 599.496H744.216V596.04H766.104V599.496H757.144L737.304 654.024H733.848ZM827.527 649.544V653H799.111V649.544L811.271 648.264L835.079 610.888L809.095 566.728H796.935V563.272H835.719V566.728H823.559L843.527 600.648L863.111 568.008L850.823 566.728V563.272H879.751V566.728L867.591 568.008L845.575 604.104L872.455 649.544H884.615V653H845.831V649.544H857.991L837.255 614.472L815.367 648.264L827.527 649.544ZM925.951 653V649.544H935.423L921.215 630.216L905.727 649.544H914.303V653H891.647V649.544H901.247L919.039 627.272L898.815 599.496H889.215V596.04H921.343V599.496H912.383L926.463 618.824L941.823 599.496H932.223V596.04H955.903V599.496H946.303L928.639 621.768L948.991 649.544H958.335V653H925.951ZM60.824 753.728V750.272H89.112V753.728L77.336 755.008L54.296 798.784V836.544H66.456V840H29.336V836.544H41.496V798.656L15 753.728H2.84V750.272H41.752V753.728H29.848L52.76 793.664L72.984 755.008L60.824 753.728ZM103.973 874.816C101.328 874.816 98.981 874.005 96.933 872.384C94.885 870.848 93.861 868.544 93.861 865.472C93.861 863.168 94.5437 861.248 95.909 859.712C97.2743 858.261 98.8957 857.536 100.773 857.536C102.48 857.536 103.973 858.048 105.253 859.072C106.533 860.181 107.173 861.675 107.173 863.552C107.173 865.344 106.704 866.795 105.765 867.904C104.912 869.013 104.016 869.739 103.077 870.08C103.248 870.336 103.546 870.507 103.973 870.592C104.4 870.763 104.869 870.848 105.381 870.848C107.514 870.848 109.904 869.099 112.549 865.6C115.194 862.101 118.138 856.256 121.381 848.064L123.813 841.92L97.445 786.496H87.845V783.04H120.485V786.496H110.501L129.829 828.224L147.493 786.496H138.533V783.04H161.061V786.496H151.461L126.373 845.632C122.704 854.421 119.248 861.461 116.005 866.752C112.848 872.128 108.837 874.816 103.973 874.816ZM257.218 840H195.01V836.544L243.65 753.984H203.586L199.234 776.384H195.778V750.272H257.602V753.728L208.962 836.288H249.538L253.762 812.48H257.218V840ZM314.59 840H267.87V836.544L302.174 786.752H276.83L273.886 805.184H270.43V783.04H315.358V786.496L281.182 836.288H308.574L312.414 817.856H315.87L314.59 840ZM44.824 935.48L77.464 1023.54H89.624V1027H51.48V1023.54H63.64L54.68 998.584H24.472L16.92 1021.75L27.8 1023.54V1027H0.28V1023.54L13.08 1021.62L41.24 935.48H44.824ZM39.192 953.016L25.624 995.128H53.272L39.192 953.016ZM34.328 902.072C36.0347 902.072 37.528 902.541 38.808 903.48C40.088 904.419 41.368 905.784 42.648 907.576C44.0987 909.709 45.336 911.587 46.36 913.208C47.384 914.829 48.408 916.408 49.432 917.944L55.192 926.392H52.12L45.208 921.4C42.2213 919.267 39.704 917.517 37.656 916.152C35.608 914.787 33.688 913.293 31.896 911.672C31.0427 910.819 30.4027 909.965 29.976 909.112C29.6347 908.173 29.464 907.405 29.464 906.808C29.464 905.357 29.9333 904.205 30.872 903.352C31.896 902.499 33.048 902.072 34.328 902.072ZM115.496 995.896C117.715 995.896 119.891 996.067 122.024 996.408C124.243 996.749 126.163 997.219 127.784 997.816V982.456C127.784 978.787 126.888 976.184 125.096 974.648C123.389 973.027 120.957 972.216 117.8 972.216C115.752 972.216 113.789 972.557 111.912 973.24C110.035 973.837 108.499 974.605 107.304 975.544C108.413 975.971 109.48 976.739 110.504 977.848C111.528 978.957 112.04 980.451 112.04 982.328C112.04 983.949 111.443 985.443 110.248 986.808C109.053 988.088 107.517 988.728 105.64 988.728C103.848 988.728 102.355 988.131 101.16 986.936C99.9653 985.656 99.368 984.035 99.368 982.072C99.368 980.195 99.9653 978.445 101.16 976.824C102.355 975.203 103.891 973.837 105.768 972.728C107.731 971.533 109.949 970.595 112.424 969.912C114.899 969.229 117.416 968.888 119.976 968.888C125.608 968.888 130.344 969.997 134.184 972.216C138.024 974.349 139.944 978.189 139.944 983.736V1017.27C139.944 1018.98 140.243 1020.34 140.84 1021.37C141.523 1022.31 142.589 1022.78 144.04 1022.78C145.405 1022.78 146.557 1022.31 147.496 1021.37C148.52 1020.43 149.331 1019.53 149.928 1018.68L151.976 1020.73C150.44 1023.03 148.648 1024.82 146.6 1026.1C144.637 1027.38 142.376 1028.02 139.816 1028.02C137.427 1028.02 135.208 1027.55 133.16 1026.62C131.112 1025.59 129.533 1023.8 128.424 1021.24C126.291 1023.12 123.773 1024.74 120.872 1026.1C118.056 1027.47 114.771 1028.15 111.016 1028.15C106.152 1028.15 102.099 1026.7 98.856 1023.8C95.6987 1020.9 94.12 1017.1 94.12 1012.41C94.12 1007.29 96.04 1003.28 99.88 1000.38C103.72 997.389 108.925 995.896 115.496 995.896ZM106.92 1010.87C106.92 1014.37 107.859 1017.19 109.736 1019.32C111.613 1021.37 114.259 1022.39 117.672 1022.39C119.72 1022.39 121.555 1022.05 123.176 1021.37C124.797 1020.6 126.333 1019.58 127.784 1018.3V1001.02C125.992 1000.33 124.328 999.864 122.792 999.608C121.341 999.267 119.677 999.096 117.8 999.096C114.131 999.096 111.4 1000.21 109.608 1002.42C107.816 1004.64 106.92 1007.46 106.92 1010.87ZM109.864 934.84C111.571 934.84 113.064 935.309 114.344 936.248C115.624 937.187 116.904 938.552 118.184 940.344C119.635 942.477 120.872 944.355 121.896 945.976C122.92 947.597 123.944 949.176 124.968 950.712L130.728 959.16H127.656L120.744 954.168C117.757 952.035 115.24 950.285 113.192 948.92C111.144 947.555 109.224 946.061 107.432 944.44C106.579 943.587 105.939 942.733 105.512 941.88C105.171 940.941 105 940.173 105 939.576C105 938.125 105.469 936.973 106.408 936.12C107.432 935.267 108.584 934.84 109.864 934.84ZM227.324 935.48L259.964 1023.54H272.124V1027H233.98V1023.54H246.14L237.18 998.584H206.972L199.42 1021.75L210.3 1023.54V1027H182.78V1023.54L195.58 1021.62L223.74 935.48H227.324ZM221.692 953.016L208.124 995.128H235.772L221.692 953.016ZM236.668 901.944C237.948 901.944 239.057 902.371 239.996 903.224C241.02 904.077 241.532 905.229 241.532 906.68C241.532 907.277 241.319 908.045 240.892 908.984C240.551 909.837 239.953 910.691 239.1 911.544C237.308 913.165 235.388 914.659 233.34 916.024C231.292 917.389 228.775 919.139 225.788 921.272L218.876 926.264H215.804L221.564 917.816C222.588 916.28 223.612 914.701 224.636 913.08C225.66 911.459 226.897 909.581 228.348 907.448C229.628 905.656 230.908 904.291 232.188 903.352C233.468 902.413 234.961 901.944 236.668 901.944ZM297.996 995.896C300.215 995.896 302.391 996.067 304.524 996.408C306.743 996.749 308.663 997.219 310.284 997.816V982.456C310.284 978.787 309.388 976.184 307.596 974.648C305.889 973.027 303.457 972.216 300.3 972.216C298.252 972.216 296.289 972.557 294.412 973.24C292.535 973.837 290.999 974.605 289.804 975.544C290.913 975.971 291.98 976.739 293.004 977.848C294.028 978.957 294.54 980.451 294.54 982.328C294.54 983.949 293.943 985.443 292.748 986.808C291.553 988.088 290.017 988.728 288.14 988.728C286.348 988.728 284.855 988.131 283.66 986.936C282.465 985.656 281.868 984.035 281.868 982.072C281.868 980.195 282.465 978.445 283.66 976.824C284.855 975.203 286.391 973.837 288.268 972.728C290.231 971.533 292.449 970.595 294.924 969.912C297.399 969.229 299.916 968.888 302.476 968.888C308.108 968.888 312.844 969.997 316.684 972.216C320.524 974.349 322.444 978.189 322.444 983.736V1017.27C322.444 1018.98 322.743 1020.34 323.34 1021.37C324.023 1022.31 325.089 1022.78 326.54 1022.78C327.905 1022.78 329.057 1022.31 329.996 1021.37C331.02 1020.43 331.831 1019.53 332.428 1018.68L334.476 1020.73C332.94 1023.03 331.148 1024.82 329.1 1026.1C327.137 1027.38 324.876 1028.02 322.316 1028.02C319.927 1028.02 317.708 1027.55 315.66 1026.62C313.612 1025.59 312.033 1023.8 310.924 1021.24C308.791 1023.12 306.273 1024.74 303.372 1026.1C300.556 1027.47 297.271 1028.15 293.516 1028.15C288.652 1028.15 284.599 1026.7 281.356 1023.8C278.199 1020.9 276.62 1017.1 276.62 1012.41C276.62 1007.29 278.54 1003.28 282.38 1000.38C286.22 997.389 291.425 995.896 297.996 995.896ZM289.42 1010.87C289.42 1014.37 290.359 1017.19 292.236 1019.32C294.113 1021.37 296.759 1022.39 300.172 1022.39C302.22 1022.39 304.055 1022.05 305.676 1021.37C307.297 1020.6 308.833 1019.58 310.284 1018.3V1001.02C308.492 1000.33 306.828 999.864 305.292 999.608C303.841 999.267 302.177 999.096 300.3 999.096C296.631 999.096 293.9 1000.21 292.108 1002.42C290.316 1004.64 289.42 1007.46 289.42 1010.87ZM316.172 934.712C317.452 934.712 318.561 935.139 319.5 935.992C320.524 936.845 321.036 937.997 321.036 939.448C321.036 940.045 320.823 940.813 320.396 941.752C320.055 942.605 319.457 943.459 318.604 944.312C316.812 945.933 314.892 947.427 312.844 948.792C310.796 950.157 308.279 951.907 305.292 954.04L298.38 959.032H295.308L301.068 950.584C302.092 949.048 303.116 947.469 304.14 945.848C305.164 944.227 306.401 942.349 307.852 940.216C309.132 938.424 310.412 937.059 311.692 936.12C312.972 935.181 314.465 934.712 316.172 934.712ZM409.824 935.48L442.464 1023.54H454.624V1027H416.48V1023.54H428.64L419.68 998.584H389.472L381.92 1021.75L392.8 1023.54V1027H365.28V1023.54L378.08 1021.62L406.24 935.48H409.824ZM404.192 953.016L390.624 995.128H418.272L404.192 953.016ZM407.392 903.736H410.592L426.208 923.96H423.264L409.056 913.464L394.72 923.96H391.904L407.392 903.736ZM480.496 995.896C482.715 995.896 484.891 996.067 487.024 996.408C489.243 996.749 491.163 997.219 492.784 997.816V982.456C492.784 978.787 491.888 976.184 490.096 974.648C488.389 973.027 485.957 972.216 482.8 972.216C480.752 972.216 478.789 972.557 476.912 973.24C475.035 973.837 473.499 974.605 472.304 975.544C473.413 975.971 474.48 976.739 475.504 977.848C476.528 978.957 477.04 980.451 477.04 982.328C477.04 983.949 476.443 985.443 475.248 986.808C474.053 988.088 472.517 988.728 470.64 988.728C468.848 988.728 467.355 988.131 466.16 986.936C464.965 985.656 464.368 984.035 464.368 982.072C464.368 980.195 464.965 978.445 466.16 976.824C467.355 975.203 468.891 973.837 470.768 972.728C472.731 971.533 474.949 970.595 477.424 969.912C479.899 969.229 482.416 968.888 484.976 968.888C490.608 968.888 495.344 969.997 499.184 972.216C503.024 974.349 504.944 978.189 504.944 983.736V1017.27C504.944 1018.98 505.243 1020.34 505.84 1021.37C506.523 1022.31 507.589 1022.78 509.04 1022.78C510.405 1022.78 511.557 1022.31 512.496 1021.37C513.52 1020.43 514.331 1019.53 514.928 1018.68L516.976 1020.73C515.44 1023.03 513.648 1024.82 511.6 1026.1C509.637 1027.38 507.376 1028.02 504.816 1028.02C502.427 1028.02 500.208 1027.55 498.16 1026.62C496.112 1025.59 494.533 1023.8 493.424 1021.24C491.291 1023.12 488.773 1024.74 485.872 1026.1C483.056 1027.47 479.771 1028.15 476.016 1028.15C471.152 1028.15 467.099 1026.7 463.856 1023.8C460.699 1020.9 459.12 1017.1 459.12 1012.41C459.12 1007.29 461.04 1003.28 464.88 1000.38C468.72 997.389 473.925 995.896 480.496 995.896ZM471.92 1010.87C471.92 1014.37 472.859 1017.19 474.736 1019.32C476.613 1021.37 479.259 1022.39 482.672 1022.39C484.72 1022.39 486.555 1022.05 488.176 1021.37C489.797 1020.6 491.333 1019.58 492.784 1018.3V1001.02C490.992 1000.33 489.328 999.864 487.792 999.608C486.341 999.267 484.677 999.096 482.8 999.096C479.131 999.096 476.4 1000.21 474.608 1002.42C472.816 1004.64 471.92 1007.46 471.92 1010.87ZM485.104 936.632H488.304L503.92 956.856H500.976L486.768 946.36L472.432 956.856H469.616L485.104 936.632ZM592.324 935.48L624.964 1023.54H637.124V1027H598.98V1023.54H611.14L602.18 998.584H571.972L564.42 1021.75L575.3 1023.54V1027H547.78V1023.54L560.58 1021.62L588.74 935.48H592.324ZM586.692 953.016L573.124 995.128H600.772L586.692 953.016ZM571.716 917.432C571.716 915.64 572.356 914.104 573.636 912.824C575.001 911.459 576.58 910.776 578.372 910.776C580.164 910.776 581.7 911.459 582.98 912.824C584.345 914.104 585.028 915.64 585.028 917.432C585.028 919.224 584.345 920.803 582.98 922.168C581.7 923.448 580.164 924.088 578.372 924.088C576.58 924.088 575.001 923.448 573.636 922.168C572.356 920.803 571.716 919.224 571.716 917.432ZM595.652 917.432C595.652 915.64 596.292 914.104 597.572 912.824C598.937 911.459 600.516 910.776 602.308 910.776C604.1 910.776 605.636 911.459 606.916 912.824C608.281 914.104 608.964 915.64 608.964 917.432C608.964 919.224 608.281 920.803 606.916 922.168C605.636 923.448 604.1 924.088 602.308 924.088C600.516 924.088 598.937 923.448 597.572 922.168C596.292 920.803 595.652 919.224 595.652 917.432ZM662.996 995.896C665.215 995.896 667.391 996.067 669.524 996.408C671.743 996.749 673.663 997.219 675.284 997.816V982.456C675.284 978.787 674.388 976.184 672.596 974.648C670.889 973.027 668.457 972.216 665.3 972.216C663.252 972.216 661.289 972.557 659.412 973.24C657.535 973.837 655.999 974.605 654.804 975.544C655.913 975.971 656.98 976.739 658.004 977.848C659.028 978.957 659.54 980.451 659.54 982.328C659.54 983.949 658.943 985.443 657.748 986.808C656.553 988.088 655.017 988.728 653.14 988.728C651.348 988.728 649.855 988.131 648.66 986.936C647.465 985.656 646.868 984.035 646.868 982.072C646.868 980.195 647.465 978.445 648.66 976.824C649.855 975.203 651.391 973.837 653.268 972.728C655.231 971.533 657.449 970.595 659.924 969.912C662.399 969.229 664.916 968.888 667.476 968.888C673.108 968.888 677.844 969.997 681.684 972.216C685.524 974.349 687.444 978.189 687.444 983.736V1017.27C687.444 1018.98 687.743 1020.34 688.34 1021.37C689.023 1022.31 690.089 1022.78 691.54 1022.78C692.905 1022.78 694.057 1022.31 694.996 1021.37C696.02 1020.43 696.831 1019.53 697.428 1018.68L699.476 1020.73C697.94 1023.03 696.148 1024.82 694.1 1026.1C692.137 1027.38 689.876 1028.02 687.316 1028.02C684.927 1028.02 682.708 1027.55 680.66 1026.62C678.612 1025.59 677.033 1023.8 675.924 1021.24C673.791 1023.12 671.273 1024.74 668.372 1026.1C665.556 1027.47 662.271 1028.15 658.516 1028.15C653.652 1028.15 649.599 1026.7 646.356 1023.8C643.199 1020.9 641.62 1017.1 641.62 1012.41C641.62 1007.29 643.54 1003.28 647.38 1000.38C651.22 997.389 656.425 995.896 662.996 995.896ZM654.42 1010.87C654.42 1014.37 655.359 1017.19 657.236 1019.32C659.113 1021.37 661.759 1022.39 665.172 1022.39C667.22 1022.39 669.055 1022.05 670.676 1021.37C672.297 1020.6 673.833 1019.58 675.284 1018.3V1001.02C673.492 1000.33 671.828 999.864 670.292 999.608C668.841 999.267 667.177 999.096 665.3 999.096C661.631 999.096 658.9 1000.21 657.108 1002.42C655.316 1004.64 654.42 1007.46 654.42 1010.87ZM649.556 950.2C649.556 948.408 650.196 946.872 651.476 945.592C652.841 944.227 654.42 943.544 656.212 943.544C658.004 943.544 659.54 944.227 660.82 945.592C662.185 946.872 662.868 948.408 662.868 950.2C662.868 951.992 662.185 953.571 660.82 954.936C659.54 956.216 658.004 956.856 656.212 956.856C654.42 956.856 652.841 956.216 651.476 954.936C650.196 953.571 649.556 951.992 649.556 950.2ZM673.492 950.2C673.492 948.408 674.132 946.872 675.412 945.592C676.777 944.227 678.356 943.544 680.148 943.544C681.94 943.544 683.476 944.227 684.756 945.592C686.121 946.872 686.804 948.408 686.804 950.2C686.804 951.992 686.121 953.571 684.756 954.936C683.476 956.216 681.94 956.856 680.148 956.856C678.356 956.856 676.777 956.216 675.412 954.936C674.132 953.571 673.492 951.992 673.492 950.2ZM847.016 1027H780.968V1023.54H792.872V998.584H760.232L747.304 1021.75L758.184 1024.06V1027H730.28V1024.06L743.08 1021.62L788.776 940.728H780.968V937.272H843.688V963.512H840.232L835.88 940.728H805.672V979.128H824.488L827.176 964.152H830.632V997.432H827.304L824.488 982.584H805.672V1023.54H839.208L843.56 999.48H847.016V1027ZM792.872 940.856L762.28 995.128H792.872V940.856ZM919.152 968.888C921.883 968.888 924.656 969.357 927.472 970.296C930.288 971.149 932.763 972.6 934.896 974.648C937.115 976.611 938.907 979.213 940.272 982.456C941.723 985.613 942.448 989.453 942.448 993.976H905.072C904.987 994.829 904.944 995.64 904.944 996.408C904.944 997.176 904.944 997.859 904.944 998.456C905.029 1006.9 906.821 1013.13 910.32 1017.14C913.819 1021.07 918.171 1023.03 923.376 1023.03C927.301 1023.03 930.587 1021.97 933.232 1019.83C935.963 1017.7 938.011 1015.01 939.376 1011.77L942.192 1013.82C940.315 1017.74 937.669 1021.11 934.256 1023.93C930.843 1026.66 926.149 1028.02 920.176 1028.02C915.483 1028.02 911.216 1027.13 907.376 1025.34C903.536 1023.54 900.421 1021.03 898.032 1017.78C895.387 1020.6 892.4 1023.03 889.072 1025.08C885.829 1027.04 881.648 1028.02 876.528 1028.02C871.493 1028.02 867.312 1026.62 863.984 1023.8C860.741 1020.9 859.12 1017.1 859.12 1012.41C859.12 1007.29 861.04 1003.28 864.88 1000.38C868.72 997.389 873.925 995.896 880.496 995.896C882.715 995.896 884.891 996.067 887.024 996.408C889.243 996.749 891.163 997.219 892.784 997.816V982.456C892.784 978.787 891.888 976.184 890.096 974.648C888.389 973.027 885.957 972.216 882.8 972.216C880.752 972.216 878.789 972.557 876.912 973.24C875.035 973.837 873.499 974.605 872.304 975.544C873.413 975.971 874.48 976.739 875.504 977.848C876.528 978.957 877.04 980.451 877.04 982.328C877.04 983.949 876.443 985.443 875.248 986.808C874.053 988.088 872.517 988.728 870.64 988.728C868.848 988.728 867.355 988.131 866.16 986.936C864.965 985.656 864.368 984.035 864.368 982.072C864.368 980.195 864.965 978.445 866.16 976.824C867.355 975.203 868.891 973.837 870.768 972.728C872.731 971.533 874.949 970.595 877.424 969.912C879.899 969.229 882.416 968.888 884.976 968.888C888.389 968.888 891.504 969.4 894.32 970.424C897.221 971.448 899.867 973.069 902.256 975.288C904.816 973.24 907.547 971.661 910.448 970.552C913.349 969.443 916.251 968.888 919.152 968.888ZM871.92 1010.87C871.92 1014.37 872.859 1017.19 874.736 1019.32C876.613 1021.37 879.259 1022.39 882.672 1022.39C885.829 1022.39 888.304 1021.45 890.096 1019.58C891.888 1017.61 892.784 1015.27 892.784 1012.54V1001.02C890.992 1000.33 889.328 999.864 887.792 999.608C886.341 999.267 884.677 999.096 882.8 999.096C879.131 999.096 876.4 1000.21 874.608 1002.42C872.816 1004.64 871.92 1007.46 871.92 1010.87ZM905.456 990.52H929.648C929.563 988.557 929.264 986.509 928.752 984.376C928.325 982.243 927.685 980.323 926.832 978.616C925.979 976.739 924.784 975.203 923.248 974.008C921.712 972.813 920.005 972.216 918.128 972.216C916.251 972.216 914.587 972.813 913.136 974.008C911.685 975.117 910.405 976.568 909.296 978.36C908.272 980.152 907.419 982.157 906.736 984.376C906.139 986.509 905.712 988.557 905.456 990.52ZM44.824 1122.48L77.464 1210.54H89.624V1214H51.48V1210.54H63.64L54.68 1185.58H24.472L16.92 1208.75L27.8 1210.54V1214H0.28V1210.54L13.08 1208.62L41.24 1122.48H44.824ZM39.192 1140.02L25.624 1182.13H53.272L39.192 1140.02ZM42.52 1106.99C40.6427 1105.63 38.9787 1104.47 37.528 1103.54C36.1627 1102.51 34.7547 1102 33.304 1102C30.8293 1102 29.1653 1102.9 28.312 1104.69C27.544 1106.39 27.16 1107.76 27.16 1108.78H23.704C23.704 1104.26 24.7707 1100.76 26.904 1098.29C29.0373 1095.73 31.512 1094.45 34.328 1094.45C36.632 1094.45 38.552 1094.92 40.088 1095.86C41.7093 1096.79 43.5867 1097.99 45.72 1099.44C47.6827 1100.72 49.2613 1101.79 50.456 1102.64C51.736 1103.41 53.1013 1103.79 54.552 1103.79C57.0267 1103.79 58.6907 1102.94 59.544 1101.23C60.3973 1099.44 60.824 1098.03 60.824 1097.01H64.152C64.152 1101.53 63.0853 1105.03 60.952 1107.5C58.8187 1109.98 56.344 1111.22 53.528 1111.22C51.5653 1111.22 49.7733 1110.92 48.152 1110.32C46.5307 1109.64 44.6533 1108.53 42.52 1106.99ZM115.496 1182.9C117.715 1182.9 119.891 1183.07 122.024 1183.41C124.243 1183.75 126.163 1184.22 127.784 1184.82V1169.46C127.784 1165.79 126.888 1163.18 125.096 1161.65C123.389 1160.03 120.957 1159.22 117.8 1159.22C115.752 1159.22 113.789 1159.56 111.912 1160.24C110.035 1160.84 108.499 1161.61 107.304 1162.54C108.413 1162.97 109.48 1163.74 110.504 1164.85C111.528 1165.96 112.04 1167.45 112.04 1169.33C112.04 1170.95 111.443 1172.44 110.248 1173.81C109.053 1175.09 107.517 1175.73 105.64 1175.73C103.848 1175.73 102.355 1175.13 101.16 1173.94C99.9653 1172.66 99.368 1171.03 99.368 1169.07C99.368 1167.19 99.9653 1165.45 101.16 1163.82C102.355 1162.2 103.891 1160.84 105.768 1159.73C107.731 1158.53 109.949 1157.59 112.424 1156.91C114.899 1156.23 117.416 1155.89 119.976 1155.89C125.608 1155.89 130.344 1157 134.184 1159.22C138.024 1161.35 139.944 1165.19 139.944 1170.74V1204.27C139.944 1205.98 140.243 1207.34 140.84 1208.37C141.523 1209.31 142.589 1209.78 144.04 1209.78C145.405 1209.78 146.557 1209.31 147.496 1208.37C148.52 1207.43 149.331 1206.53 149.928 1205.68L151.976 1207.73C150.44 1210.03 148.648 1211.82 146.6 1213.1C144.637 1214.38 142.376 1215.02 139.816 1215.02C137.427 1215.02 135.208 1214.55 133.16 1213.62C131.112 1212.59 129.533 1210.8 128.424 1208.24C126.291 1210.12 123.773 1211.74 120.872 1213.1C118.056 1214.47 114.771 1215.15 111.016 1215.15C106.152 1215.15 102.099 1213.7 98.856 1210.8C95.6987 1207.9 94.12 1204.1 94.12 1199.41C94.12 1194.29 96.04 1190.28 99.88 1187.38C103.72 1184.39 108.925 1182.9 115.496 1182.9ZM106.92 1197.87C106.92 1201.37 107.859 1204.19 109.736 1206.32C111.613 1208.37 114.259 1209.39 117.672 1209.39C119.72 1209.39 121.555 1209.05 123.176 1208.37C124.797 1207.6 126.333 1206.58 127.784 1205.3V1188.02C125.992 1187.33 124.328 1186.86 122.792 1186.61C121.341 1186.27 119.677 1186.1 117.8 1186.1C114.131 1186.1 111.4 1187.21 109.608 1189.42C107.816 1191.64 106.92 1194.46 106.92 1197.87ZM119.208 1139.63C117.331 1138.27 115.667 1137.11 114.216 1136.18C112.851 1135.15 111.443 1134.64 109.992 1134.64C107.517 1134.64 105.853 1135.54 105 1137.33C104.232 1139.03 103.848 1140.4 103.848 1141.42H100.392C100.392 1136.9 101.459 1133.4 103.592 1130.93C105.725 1128.37 108.2 1127.09 111.016 1127.09C113.32 1127.09 115.24 1127.56 116.776 1128.5C118.397 1129.43 120.275 1130.63 122.408 1132.08C124.371 1133.36 125.949 1134.43 127.144 1135.28C128.424 1136.05 129.789 1136.43 131.24 1136.43C133.715 1136.43 135.379 1135.58 136.232 1133.87C137.085 1132.08 137.512 1130.67 137.512 1129.65H140.84C140.84 1134.17 139.773 1137.67 137.64 1140.14C135.507 1142.62 133.032 1143.86 130.216 1143.86C128.253 1143.86 126.461 1143.56 124.84 1142.96C123.219 1142.28 121.341 1141.17 119.208 1139.63ZM227.324 1122.48L259.964 1210.54H272.124V1214H233.98V1210.54H246.14L237.18 1185.58H206.972L199.42 1208.75L210.3 1210.54V1214H182.78V1210.54L195.58 1208.62L223.74 1122.48H227.324ZM221.692 1140.02L208.124 1182.13H235.772L221.692 1140.02ZM225.276 1090.1C228.775 1090.1 231.804 1091.16 234.364 1093.3C236.924 1095.34 238.204 1098.12 238.204 1101.62C238.204 1105.11 236.924 1107.93 234.364 1110.06C231.804 1112.2 228.775 1113.26 225.276 1113.26C221.777 1113.26 218.791 1112.24 216.316 1110.19C213.841 1108.14 212.604 1105.33 212.604 1101.74C212.604 1098.16 213.841 1095.34 216.316 1093.3C218.791 1091.16 221.777 1090.1 225.276 1090.1ZM225.276 1108.78C227.239 1108.78 228.86 1108.23 230.14 1107.12C231.42 1105.93 232.06 1104.13 232.06 1101.74C232.06 1099.35 231.377 1097.56 230.012 1096.37C228.732 1095.17 227.153 1094.58 225.276 1094.58C223.399 1094.58 221.82 1095.22 220.54 1096.5C219.26 1097.78 218.62 1099.53 218.62 1101.74C218.62 1103.96 219.217 1105.71 220.412 1106.99C221.692 1108.19 223.313 1108.78 225.276 1108.78ZM297.996 1182.9C300.215 1182.9 302.391 1183.07 304.524 1183.41C306.743 1183.75 308.663 1184.22 310.284 1184.82V1169.46C310.284 1165.79 309.388 1163.18 307.596 1161.65C305.889 1160.03 303.457 1159.22 300.3 1159.22C298.252 1159.22 296.289 1159.56 294.412 1160.24C292.535 1160.84 290.999 1161.61 289.804 1162.54C290.913 1162.97 291.98 1163.74 293.004 1164.85C294.028 1165.96 294.54 1167.45 294.54 1169.33C294.54 1170.95 293.943 1172.44 292.748 1173.81C291.553 1175.09 290.017 1175.73 288.14 1175.73C286.348 1175.73 284.855 1175.13 283.66 1173.94C282.465 1172.66 281.868 1171.03 281.868 1169.07C281.868 1167.19 282.465 1165.45 283.66 1163.82C284.855 1162.2 286.391 1160.84 288.268 1159.73C290.231 1158.53 292.449 1157.59 294.924 1156.91C297.399 1156.23 299.916 1155.89 302.476 1155.89C308.108 1155.89 312.844 1157 316.684 1159.22C320.524 1161.35 322.444 1165.19 322.444 1170.74V1204.27C322.444 1205.98 322.743 1207.34 323.34 1208.37C324.023 1209.31 325.089 1209.78 326.54 1209.78C327.905 1209.78 329.057 1209.31 329.996 1208.37C331.02 1207.43 331.831 1206.53 332.428 1205.68L334.476 1207.73C332.94 1210.03 331.148 1211.82 329.1 1213.1C327.137 1214.38 324.876 1215.02 322.316 1215.02C319.927 1215.02 317.708 1214.55 315.66 1213.62C313.612 1212.59 312.033 1210.8 310.924 1208.24C308.791 1210.12 306.273 1211.74 303.372 1213.1C300.556 1214.47 297.271 1215.15 293.516 1215.15C288.652 1215.15 284.599 1213.7 281.356 1210.8C278.199 1207.9 276.62 1204.1 276.62 1199.41C276.62 1194.29 278.54 1190.28 282.38 1187.38C286.22 1184.39 291.425 1182.9 297.996 1182.9ZM289.42 1197.87C289.42 1201.37 290.359 1204.19 292.236 1206.32C294.113 1208.37 296.759 1209.39 300.172 1209.39C302.22 1209.39 304.055 1209.05 305.676 1208.37C307.297 1207.6 308.833 1206.58 310.284 1205.3V1188.02C308.492 1187.33 306.828 1186.86 305.292 1186.61C303.841 1186.27 302.177 1186.1 300.3 1186.1C296.631 1186.1 293.9 1187.21 292.108 1189.42C290.316 1191.64 289.42 1194.46 289.42 1197.87ZM302.604 1121.84C306.103 1121.84 309.132 1122.91 311.692 1125.04C314.252 1127.09 315.532 1129.86 315.532 1133.36C315.532 1136.86 314.252 1139.67 311.692 1141.81C309.132 1143.94 306.103 1145.01 302.604 1145.01C299.105 1145.01 296.119 1143.98 293.644 1141.94C291.169 1139.89 289.932 1137.07 289.932 1133.49C289.932 1129.9 291.169 1127.09 293.644 1125.04C296.119 1122.91 299.105 1121.84 302.604 1121.84ZM302.604 1140.53C304.567 1140.53 306.188 1139.97 307.468 1138.86C308.748 1137.67 309.388 1135.88 309.388 1133.49C309.388 1131.1 308.705 1129.31 307.34 1128.11C306.06 1126.92 304.481 1126.32 302.604 1126.32C300.727 1126.32 299.148 1126.96 297.868 1128.24C296.588 1129.52 295.948 1131.27 295.948 1133.49C295.948 1135.71 296.545 1137.46 297.74 1138.74C299.02 1139.93 300.641 1140.53 302.604 1140.53Z" fill="black"/>
</svg>
