<svg width="1986" height="1406" viewBox="0 0 1986 1406" fill="none" xmlns="http://www.w3.org/2000/svg">
<path d="M97.4597 1250.43C83.5753 1250.43 46.5991 1252.58 9.76906 1261.17L1 1274.05V1293.37V1310.54L9.76906 1321.28L53.6144 1340.6L88.6906 1347.04H147.882H222.419L257.495 1340.6L288.187 1336.3L327.648 1314.83L349.57 1304.1C353.955 1301.95 376.754 1295.94 432.876 1289.07C483.737 1299.38 614.834 1279.06 674.025 1267.61H693.756C701.063 1269.04 731.463 1274.05 794.6 1282.63C848.968 1298.09 916.636 1284.78 943.674 1276.19L1005.06 1263.31H1103.71C1121.25 1268.46 1200.17 1261.17 1237.44 1256.87L1276.9 1250.43V1263.31L1250.59 1269.75L1219.9 1282.63L1193.59 1291.22L1145.36 1297.66L1112.48 1301.95L1103.71 1316.98V1336.3L1112.48 1349.18L1219.9 1353.48C1259.36 1359.92 1353.19 1371.08 1412.82 1364.21C1482.97 1364.21 1518.05 1368.5 1553.12 1372.8C1574.17 1384.82 1668.58 1393.55 1713.16 1396.41H1743.85L1803.04 1405C1823.5 1402.85 1868.37 1389.97 1884.16 1355.62C1889.42 1321.28 1873.19 1279.77 1864.43 1263.31L1860.04 1250.43H1873.19V1235.4L1919.23 1243.99L1923.62 1235.4L1910.46 1222.52H1938.96L1923.62 1205.35L1949.92 1211.79V1198.91H1963.08L1923.62 1177.44L1976.23 1173.15L1985 1155.97L1963.08 1136.65L1956.5 1121.62V1113.04L1923.62 1106.6L1901.69 1085.13L1877.58 1065.81L1855.66 1052.93L1833.73 1046.49H1811.81L1765.77 1029.31L1732.89 1016.43L1708.77 1003.55H1686.85L1614.51 986.376L1553.12 977.789L1489.55 969.202L1485.16 949.881C1483.7 936.284 1478.59 896.211 1469.82 844.688C1483.85 798.317 1383.59 685.11 1331.71 634.303L1311.97 617.128L1290.05 604.248L1246.21 599.954H1206.75H1184.82L1149.75 591.367V580.633L1158.52 522.67C1159.98 508.358 1163.78 476.728 1167.29 464.706C1172.55 464.706 1175.32 441.807 1176.05 430.358L1184.82 204.945C1187.02 189.202 1191.4 155.569 1191.4 146.982C1191.4 138.395 1197.25 131.954 1200.17 129.807L1233.05 125.514L1259.36 114.78C1265.94 109.771 1279.97 99.7523 1283.48 99.7523H1303.21L1325.13 91.1651L1331.71 80.4312L1340.47 76.1376L1336.09 67.5505H1349.24L1355.82 61.1101L1325.13 39.6422L1298.82 28.9083L1340.47 9.58716L1336.09 1L1279.09 18.1743L1239.63 33.2018L1184.82 80.4312C1168.02 94.7431 1134.84 125.514 1136.59 134.101C1138.35 142.688 1131.48 194.927 1127.82 219.972C1119.79 244.303 1103.71 295.11 1103.71 303.697C1098.45 307.132 1089.83 362.376 1086.17 389.569L1081.79 494.761L1075.21 554.872L1066.44 561.312L991.904 535.55L910.79 509.789L855.983 494.761C846.484 492.615 819.592 486.604 788.023 479.734C793.285 469.429 695.217 449.679 645.526 441.092L579.758 432.505L507.413 417.477L478.914 406.743V383.128L463.568 357.367L448.222 329.459L441.645 316.578L437.261 301.55L426.299 286.523L415.338 280.083V267.202L406.569 256.468L393.415 286.523L386.839 316.578L380.262 305.844L371.493 280.083L362.724 275.789V316.578L367.108 329.459L441.645 423.917L454.799 441.092C456.991 442.523 464.006 446.673 474.529 451.826C483.298 462.56 658.68 507.642 674.025 524.817C689.371 541.991 770.485 544.138 781.446 546.284C783.2 551.437 837.715 568.468 864.753 576.339C871.329 577.771 888.867 581.921 906.406 587.073C911.667 597.378 969.981 631.44 998.481 647.184L1000.67 655.771H983.135C972.174 656.486 947.62 658.776 937.097 662.211C926.574 665.646 893.252 655.055 877.906 649.33L851.599 640.743H834.061L827.484 649.33L816.523 662.211L801.177 683.679H783.639L774.87 692.266L783.639 728.761L779.254 752.376L783.639 765.257C785.1 767.404 784.516 771.697 770.485 771.697C756.455 771.697 764.639 820.358 770.485 844.688L794.6 861.862L836.253 879.037L849.407 868.303C858.176 868.303 873.96 867.015 866.945 861.862C859.93 856.71 878.637 848.266 888.867 844.688C892.521 844.688 899.829 847.264 899.829 857.569C899.829 867.873 915.905 879.037 923.944 883.33L943.674 876.89C949.52 876.174 963.843 875.172 974.366 876.89C984.889 878.607 990.442 886.193 991.904 889.771L996.288 868.303L983.135 829.661L972.174 797.459V784.578H983.135V765.257C987.519 766.688 997.604 774.273 1002.87 793.165C1008.13 812.057 1035.75 835.385 1048.9 844.688C1056.94 849.697 1074.77 860.145 1081.79 861.862C1088.8 863.58 1093.48 866.872 1094.94 868.303L1121.25 879.037C1125.63 879.037 1136.59 882.042 1145.36 894.064C1154.13 906.086 1176.78 904.798 1187.02 902.651L1197.98 909.092L1224.28 915.532L1237.44 930.56L1252.78 941.294L1257.17 958.468V969.202H1217.71L1206.75 962.761L1202.36 954.174L1187.02 945.587L1160.71 941.294L1134.4 934.853L1114.67 921.973L1094.94 915.532C1093.48 919.11 1090.56 924.119 1090.56 915.532C1090.56 906.945 1024.79 903.367 991.904 902.651V915.532C988.25 919.11 981.381 925.407 983.135 921.973C984.889 918.538 954.635 920.541 939.29 921.973L919.559 926.266H888.867H855.983C850.722 926.266 840.638 914.817 836.253 909.092L812.138 879.037C808.484 875.459 799.861 868.303 794.6 868.303C789.339 868.303 785.1 885.477 783.639 894.064L763.908 915.532V926.266H746.37L722.255 930.56L715.678 949.881V962.761C723.717 969.202 732.778 983.8 704.717 990.67C676.656 997.539 685.718 1033.61 693.756 1050.78L704.717 1061.51C714.948 1064.38 730.586 1068.38 711.294 1061.51C687.179 1052.93 748.562 1025.02 739.793 1029.31C732.778 1032.75 733.947 1052.21 735.409 1061.51C739.063 1060.08 748.562 1057.22 757.332 1057.22H770.485L788.023 1061.51L770.485 1089.42V1098.01H794.6L801.177 1117.33V1130.21H840.638L862.56 1136.65L866.945 1147.39L855.983 1155.97L816.523 1164.56H770.485H739.793H722.255L687.179 1155.97H660.872H623.603C613.373 1158.12 589.842 1162.84 577.566 1164.56C565.289 1166.28 543.22 1173.86 533.72 1177.44L426.299 1216.08L378.07 1231.11L310.109 1250.43L277.225 1261.17L235.572 1250.43H209.265H189.535L171.997 1261.17H141.305L97.4597 1250.43Z" stroke="black"/>
</svg>
