<svg width="880" height="2413" viewBox="0 0 880 2413" fill="none" xmlns="http://www.w3.org/2000/svg">
<path d="M20.704 762.446L15.439 758.354L12.8063 747.832L6.37128 705.449L1.9839 654.882C-1.76012 629.16 6.07892 585.705 10.4664 567.193L24.5065 518.672L30.3565 483.012L37.0709 455.537M20.704 762.446L29.1865 765.077L96.7543 768L105.237 765.077M20.704 762.446C38.7221 760.342 84.5668 763.323 105.237 765.077M105.237 765.077C121.714 723.669 152.681 629.277 144.725 582.977L143.262 578.885V551.117L140.63 520.718L135.175 494.704M123.079 455.537L134.195 490.027L134.685 492.366M123.079 455.537C122.592 465.28 121.909 485.292 123.079 487.397M123.079 455.537C121.196 449.691 122.295 428.353 123.079 418.415L125.419 387.14L128.378 347.095M123.079 487.397C124.542 490.027 136.535 528.61 134.195 535.625C132.323 541.238 123.274 565.05 118.984 576.254L112.466 591.454M123.079 487.397C118.299 483.07 114.147 476.173 110.705 468.593M38.8391 477.166C37.3766 486.715 33.6325 510.02 30.3565 526.857C27.7952 540.02 31.8613 559.758 35.761 573.332M38.8391 477.166L49.3691 443.553L63.7017 393.57L71.813 363.464M38.8391 477.166L44.9816 480.674C45.8701 478.571 47.0155 475.839 48.2854 472.782M38.8391 477.166C37.9445 469.505 37.3789 462.282 37.0709 455.537M88.2718 302.374L80.0818 318.158M88.2718 302.374L112.961 229.3M88.2718 302.374L71.813 363.464M134.195 166.457L140.337 161.196M134.195 166.457L128.929 160.319M134.195 166.457L132.812 170.549M140.337 161.196C137.295 158.39 131.465 159.442 128.929 160.319M140.337 161.196C139.286 156.296 138.283 146.854 141.648 144.472M153.792 99.2291L150.575 103.321V110.336M153.792 99.2291L183.627 119.105C184.797 115.598 189.302 109.869 197.96 115.013C194.937 108.29 185.382 93.9678 171.342 90.4602C159.35 85.8809 134.663 77.0147 131.855 78.1838C130.778 78.3737 129.309 78.7854 127.759 79.4631M153.792 99.2291C145.017 91.3371 138.213 88.004 138.582 88.1219C132.264 86.0173 129.514 89.3885 128.929 91.3371C127.369 95.3318 124.249 103.459 124.249 104.01C118.165 110.174 113.134 103.31 111.379 99.1076M119.862 87.5373C118.224 93.617 115.084 97.865 113.719 99.2291C113.046 99.1363 112.226 99.081 111.379 99.1076M119.862 87.5373C119.277 82.0811 116.293 72.5718 109.039 78.1838C101.785 83.7959 106.797 87.5373 110.209 88.7064C112.452 88.9987 117.522 89.1741 119.862 87.5373ZM119.862 87.5373C120.968 83.4317 124.537 80.8723 127.759 79.4631M66.9192 143.95C68.3817 143.268 73.0032 144.301 79.7893 153.888C86.5753 163.476 96.0718 153.986 99.9719 148.042C103.287 141.027 110.209 124.893 111.379 116.474C112.773 106.444 108.055 108.365 106.597 104.01M66.9192 143.95C65.3947 142.298 63.6881 140.064 62.2381 137.52M66.9192 143.95C71.8823 143.95 76.1437 142.641 79.7893 140.638M88.2718 103.321C88.6422 103.543 89.0846 103.777 89.5892 104.01M88.2718 103.321C86.2966 103.732 80.4033 105.949 71.0142 111.552M88.2718 103.321C76.5717 103.321 74.2317 96.8907 74.5242 93.6755C72.6522 73.3317 85.6393 63.7639 92.3668 61.523C97.1102 60.2564 109.25 57.7816 119.862 58.0155C130.474 58.2493 129.549 72.4113 127.759 79.4631M106.597 104.01C106.525 103.796 106.462 103.567 106.407 103.321C105.694 100.114 108.671 99.1924 111.379 99.1076M106.597 104.01C100.151 107.371 93.2416 105.702 89.5892 104.01M89.5892 104.01C93.3426 108.165 100.089 117.585 97.0468 122.028C94.3197 126.011 89.0347 135.557 79.7893 140.638M62.2381 137.52C58.2167 130.465 56.1694 121.028 65.4567 115.013C67.4267 113.737 69.2801 112.587 71.0142 111.552M62.2381 137.52C65.7484 139.209 74.1732 142.197 79.7893 140.638M79.7893 140.638C65.9832 141.495 68.1867 121.604 71.0142 111.552M131.855 87.5373C135.17 90.4911 141.156 99.4293 138.582 111.552C136.73 114.752 132.615 121.327 130.977 122.028C129.339 122.73 125.809 128.166 124.249 130.797M124.249 130.797C130.82 132.801 143.499 138.341 141.648 144.472M124.249 130.797C123.76 133.471 123.294 136.976 123.079 140.638M128.929 160.319C123.49 158.977 122.569 149.365 123.079 140.638M141.648 144.472C142.03 144.201 142.469 144.022 142.97 143.95C143.487 143.876 143.974 143.739 144.432 143.55M123.079 140.638L82.7143 306.759L80.0818 318.158M80.0818 318.158L42.0566 397.078C39.5045 404.569 35.6869 425.228 37.0709 455.537M99.9719 434.784L106.412 416.661M99.9719 434.784C86.8678 427.769 70.0164 430.692 63.2287 433.03M99.9719 434.784C101.53 442.687 105.216 456.508 110.705 468.593M110.705 395.032L109.624 371.063L104.067 366.094C80.3743 358.787 78.6193 367.264 73.9392 371.063C72.6734 372.091 71.8141 375.322 71.2167 379.54M110.705 395.032L111.087 403.508L106.412 416.661M110.705 395.032C97.7449 388.017 71.7035 375.097 71.2167 379.54M110.705 395.032L118.107 379.54C121.019 371.779 125.497 358.631 128.378 347.095M110.705 395.032L110.821 366.094M71.2167 379.54C70.3171 385.892 70.0114 394.485 69.8054 401.17M69.8054 401.17C69.6425 406.458 69.5419 410.553 69.2592 411.4C68.6298 413.287 66.0438 423.446 63.2287 433.03M69.8054 401.17C75.3795 399.416 90.5046 400.059 106.412 416.661M63.2287 433.03C62.1192 436.807 60.9741 440.495 59.8992 443.553C58.0072 448.933 54.1316 458.588 50.5803 467.228M50.5803 467.228C58.3666 467.228 74.4072 466.059 76.2792 461.383C78.1513 456.706 90.1243 459.434 95.8768 461.383C98.6942 463.055 103.186 465.613 106.49 467.228M50.5803 467.228C49.7908 469.149 49.0174 471.02 48.2854 472.782M110.705 468.593C110.578 469.046 108.833 468.374 106.49 467.228M106.49 467.228C107.605 471.905 109.5 482.136 108.162 485.643C106.824 489.151 104.68 501.719 103.774 507.565C102.799 522.57 101.727 554.274 105.237 561.055C108.747 567.836 111.519 584.146 112.466 591.454M112.466 591.454L109.332 598.761C103.677 609.479 89.0323 630.388 75.6942 628.283C62.3562 626.178 45.5666 597.202 38.8391 582.977C37.9244 580.427 36.8492 577.119 35.761 573.332M48.2854 472.782V496.166L50.5803 518.672V536.795L47.0291 551.117L40.3016 562.517L35.761 573.332M132.812 170.549L130.977 229.3V261.453V327.511C131.656 331.581 130.416 338.934 128.378 347.095M132.812 170.549L112.961 229.3M112.961 229.3L111.087 300.036L110.821 366.094M110.821 366.094L99.9719 358.202L88.8567 356.449L79.7893 358.202L71.813 363.464M135.175 494.704C135.984 496.689 136.894 498.956 137.867 501.427M135.175 494.704L134.685 492.366M137.867 501.427C144.826 519.093 155.049 547.147 155.254 556.378C155.488 566.901 160.617 602.464 163.152 618.93C167.93 648.841 181.872 711.762 199.422 724.156C216.972 736.549 250.61 716.848 265.235 705.449C268.076 665.307 272.054 582.334 265.235 571.578C258.416 560.821 257.064 558.717 257.24 559.009M137.867 501.427C141.225 498.894 152.914 494.587 172.805 497.627C192.695 500.667 199.812 501.427 200.885 501.427M200.885 501.427C200.787 521.011 206.384 562.458 229.55 571.578C252.716 580.697 260.652 588.628 261.725 591.454L262.31 582.393M200.885 501.427L200.205 493.535M212 440.045C218.786 449.165 224.187 475.413 226.04 487.397C228.672 505.032 236.453 541.764 246.515 547.61C251.085 550.265 254.622 554.549 257.24 559.009M212 440.045C205.214 430.925 200.202 425.723 198.545 424.261M212 440.045L211.415 418.415C211.61 411.595 210.509 394.038 204.542 378.371M198.545 424.261L195.144 436.245M198.545 424.261L201.47 406.431C202.731 400.383 204.44 389.081 204.542 378.371M192.987 443.845L198.545 474.244L200.205 493.535M192.987 443.845L195.144 436.245M192.987 443.845L189.77 384.801L188.04 371.063M192.987 443.845C192.517 441.273 184.016 410.231 179.825 395.032C178.986 390.804 177.868 384.775 176.812 378.371M262.31 582.393L262.895 573.332C262.203 569.982 260.385 564.368 257.24 559.009M262.31 582.393L246.515 556.378C240.372 551.409 227.151 536.502 223.407 516.626C219.663 496.75 213.852 472.49 211.415 462.844C209.732 453.978 204.123 436.245 195.144 436.245M134.685 492.366C140.206 488.176 158.953 481.843 189.77 490.027L200.205 493.535M183.92 338.326C183.698 336.493 183.463 334.537 183.218 332.48M183.92 338.326C180.8 338.034 174.384 339.671 173.682 348.557C173.232 354.256 174.924 366.914 176.812 378.371M183.92 338.326L188.04 371.063M150.575 110.336V133.72C150.138 136.51 148.328 141.936 144.432 143.55M150.575 110.336L153.792 125.828L161.397 156.519C164.03 166.262 169.704 186.742 171.342 190.717C172.98 194.693 173.78 209.911 173.975 217.024C174.267 220.044 174.677 228.365 173.975 237.485C173.81 239.623 174.071 244.665 174.614 251.515M144.432 143.55L147.649 170.549C148.04 178.831 149.814 197.557 153.792 206.209C157.77 214.861 162.86 240.018 164.907 251.515L169.002 278.99C172.183 290.293 179.082 313.423 181.232 315.527M181.232 315.527C178.717 293.67 175.889 267.604 174.614 251.515M181.232 315.527C181.932 321.606 182.607 327.358 183.218 332.48M174.614 251.515L189.77 309.974C192.695 322.055 199.422 349.434 202.932 362.295C204.173 366.84 204.597 372.517 204.542 378.371M183.218 332.48H170.757L150.574 336.28L128.378 347.095M188.04 371.063L176.812 378.371" stroke="black"/>
<path d="M124.8 72.1L129 76.9C123.6 80.7 118.7 85.7 114.3 91.9C109.9 97.9 107.7 104.3 107.7 111.1C107.7 112.5 107.8 114.2 108 116.2C108 118.4 108.4 120.2 109.2 121.6C110.2 119 112 116.8 114.6 115C117 113.4 120 112.6 123.6 112.6C128.6 112.6 132.8 114.2 136.2 117.4C139.4 120.6 141 124.7 141 129.7C141 134.5 139.2 138.7 135.6 142.3C132 146.1 127.1 148 120.9 148C114.7 148 109.3 145.5 104.7 140.5C100.1 135.7 97.8 128.7 97.8 119.5C97.8 109.3 100.4 100.2 105.6 92.2C110.6 84.2 117 77.5 124.8 72.1Z" fill="black"/>
<path d="M827.5 751.5H816C809.591 751.091 801.084 748.205 808.5 740.158C814.333 741.939 826.3 746.7 827.5 751.5ZM827.5 751.5H838.5H847L851 757.5L847 764H838.5M838.5 764H836.5L816 766C797.2 772.4 774.167 770.333 765 768.5L761 774.5L748 806C743.5 830.833 733.2 883.9 728 897.5C722.8 911.1 715.833 941.833 713 955.5L701 970.5L684.5 1011C675.167 1036.5 653.3 1091.6 640.5 1108C627.7 1124.4 625.167 1159.83 625.5 1175.5L630.5 1191.5L653.5 1219L666.5 1232C677.3 1240 683 1263 684.5 1273.5L680 1347V1369C669.167 1398.83 649.5 1460 657.5 1466C667.5 1473.5 721.5 1544.5 747 1563.5C767.4 1578.7 799.167 1617.5 812.5 1635C826.5 1647 860.333 1702.33 875.5 1728.5L850.5 1743V1751L839 1763.5L809.5 1779.5H799C787 1779.5 771.667 1785.83 765.5 1789H733.5C729.5 1785.83 721.2 1780.6 720 1785C718.8 1789.4 692.833 1789.5 680 1789L657.5 1785H638L617 1779.5L593.5 1785L588 1779.5L600 1772.5L593.5 1763.5L578.5 1754L566.5 1751L563.5 1779.5L547.5 1872C547.333 1890 545.2 1930.2 538 1947C530.8 1963.8 537 2033 541 2065.5L552 2147L562 2201L582.5 2240.5L590.5 2314.5V2351.5L585 2412H542C527.5 2374.5 526 2344.5 526.5 2319.5C526.9 2299.5 515 2281.83 509 2275.5C504.167 2266.83 497.4 2246.6 509 2235C520.6 2223.4 518.5 2209.5 516 2204L498 2155.5L484.5 2121.5L469 2083.5C465 2111.5 467.333 2181.17 469 2212.5L478 2245.5L469 2319.5L465 2354L446.5 2396L435.001 2408H405.501L399.001 2402.5L397.001 2363C398.001 2357 401.101 2342.4 405.501 2332C409.901 2321.6 412.001 2300.33 412.501 2291L403.501 2280C399.167 2273.67 391.801 2256.9 397.001 2240.5C402.201 2224.1 412.168 2218.33 416.501 2217.5L419.001 2180.5L405.501 2091.5C400.501 2063.83 393.201 1998.9 404.001 1960.5C414.801 1922.1 419.835 1909.83 421.001 1908.5L430.501 1882.5L435.501 1858.5V1815C434.168 1795.83 432.301 1749.6 435.501 1718L421.001 1715.5C414.168 1712.5 399.501 1706.3 395.501 1705.5L386.501 1701.5L379.501 1698.5L365.501 1689L337.501 1687L316.501 1669.5L286.501 1650.5C284.001 1649.17 279.001 1649 279.001 1659L272.001 1662.5L259.001 1654L254.001 1641.5C249.501 1639.83 239.601 1635.5 236.001 1631.5C232.401 1627.5 231.501 1633.83 231.501 1637.5C231.501 1640.83 229.301 1645.9 220.501 1639.5C211.701 1633.1 208.835 1630.17 208.501 1629.5L204.001 1637.5C201.501 1637.83 193.601 1635 182.001 1621L177.501 1615.5V1607L190.501 1599.5L182.001 1583.5V1578.5C179.501 1576.5 174.801 1571.7 176.001 1568.5C177.201 1565.3 237.167 1530.83 267 1514L306.5 1488.5L349.5 1466L419.5 1437L465.5 1423H508L518.5 1403.5L524 1376.5V1361.5L514 1347L497 1331L481.5 1315L463.5 1295.5L448.5 1279L436.5 1273.5H400.5C367.667 1275.67 299.8 1279.5 291 1277.5L281 1280C277.833 1282.17 264.1 1286.2 234.5 1285C204.9 1283.8 156.167 1279.5 135.5 1277.5H117.5H114.5C114.667 1285.5 113.2 1304.3 106 1315.5L92 1331.5L80.5 1342.5L72 1355.5H67.5L64 1348L65.5 1337L78.5 1321C81.1667 1316 82.7 1307.9 67.5 1315.5C52.3 1323.1 44.5 1329.33 42.5 1331.5L22.5 1368.5L14 1370L12 1360.5L9 1357L12 1348L9 1345.5V1338.5L22.5 1329V1318L9 1327H3L1 1321L6.5 1315.5L20 1299L35.5 1287.5L46.5 1277.5L92 1247L104 1242L123.5 1243.5L169.5 1242L185 1239.5L198.5 1236L230.5 1227H258L276 1231.5H294.5L362.5 1222L389.5 1207.5L423 1196C430.833 1194.33 449 1191.2 459 1192C469 1192.8 472.833 1156 473.5 1137.5L468 1129L457.823 1118.5C459.681 1124.9 450.715 1131.17 446 1133.5C438.333 1138.33 419.9 1143.4 407.5 1125C395.1 1106.6 405.333 1098.45 412 1096.67L411 1096.5C406.167 1094.17 397 1086.5 399 1074.5C399.421 1071.97 400.085 1070.01 400.905 1068.5L392.5 1062.5C355.362 1033.3 387.026 982 407.5 960L442.5 951L459 955.5L488.5 966.5L505 987.5L509 996.5L521.5 1011L537.5 1055L535 1066.5L531 1072.5L547.5 1110.5L559 1143.5L566 1138V1130.5C564 1121.3 575.833 1102 582 1093.5L605.5 1062.5L650 975.5L658.5 946L663.5 917L676.5 889.5L718 796L728 764L743.5 745.5L771.5 727.5L801 716.5H819L831 711H851L868.5 715.5L879 724.5L871 727.5L851 722C847.966 720.945 839.585 721.059 826.9 727.5L841 738.5L853.5 753.5L864 772.5L856.5 777L847 774.5L838.5 764Z" stroke="black"/>
</svg>
