<svg width="2212" height="2250" viewBox="0 0 2212 2250" fill="none" xmlns="http://www.w3.org/2000/svg">
<path d="M406.698 2061.82C440.018 2077.49 469.944 2063.63 480.742 2054.74L489.997 2042.23L480.742 1978.02L489.997 1911.64L515.193 1821.31L539.874 1710.85V1622.7L529.59 1550.33L515.193 1486.12L505.937 1426.26L529.59 1322.88L549.129 1367.5L595.407 1426.26L613.918 1457.28L657.11 1497.55L669.45 1531.83L683.848 1576.99C694.817 1606.19 722.515 1672 745.551 1701.6C768.587 1731.2 780.859 1769.07 784.115 1784.31L798.513 1851.24V1878.44L806.226 1911.64L814.453 1941.02L828.85 1967.68L862.787 2010.12L885.411 2052.02L920.891 2075.96L939.402 2095.01L962.026 2075.96L947.114 2095.01L955.342 2113.51L989.278 2121.67L1015.5 2113.51L1030.93 2133.1L1057.15 2139.63L1103.43 2133.1V2101.54L1096.74 2052.02L1083.38 2010.12L1078.75 1948.64V1793.56L1074.63 1697.25L1090.06 1701.6L1162.05 1746.76L1170.27 1810.97L1176.96 1851.24C1185.6 1942.65 1244.32 2039.14 1272.6 2075.96L1299.85 2121.67L1316.3 2164.11L1327.1 2195.13L1343.04 2211.45L1400.12 2214.18C1429.43 2209.28 1492.57 2200.9 1510.67 2206.56C1528.77 2212.22 1611.79 2212.18 1651.04 2211.45L1844.89 2214.18L1880.37 2219.62C1897.24 2232.24 1967.27 2244.47 2000.18 2249L2105.08 2238.66L2179.12 2210.37L2211 2182.07L2190.95 2148.88L2170.89 2132.01L2137.98 2121.67H2029.49L2009.95 2089.57L1971.39 2075.96L1943.11 2095.55L1919.45 2121.67H1880.37C1812.5 2112.97 1672.13 2089.89 1653.62 2067.26C1635.1 2044.62 1559.86 2052.39 1524.55 2059.1L1444.34 2067.26C1441.77 2070.34 1434.77 2058.55 1427.37 1986.73C1419.97 1914.9 1395.83 1839.63 1384.69 1810.97L1380.06 1784.31L1403.72 1775.06L1432.51 1736.97L1444.34 1710.85V1678.2L1432.51 1595.49L1408.35 1531.83L1358.47 1433.88L1313.22 1257.04C1311.16 1240.17 1306.12 1189.78 1302.42 1123.18C1288.02 1062.24 1214.49 1007.1 1179.53 987.146L1154.85 963.204L1144.05 941.983L1154.85 929.468V911.511L1144.05 884.849L1154.85 870.157C1138.81 877.122 1138.22 860.725 1139.94 851.656V833.156C1134.59 848.391 1108.57 834.425 1096.23 825.538L1108.06 806.493L1096.23 790.169L1104.97 761.329C1090.23 762.78 1059.93 762.635 1056.64 750.447C1053.35 738.258 1014.47 730.495 995.449 728.137C962.54 707.242 905.636 747.726 881.298 770.58L864.329 790.169L850.96 804.86L857.131 833.156L864.329 892.466L857.131 884.849L842.219 870.157L801.084 833.156L727.554 765.683L698.245 736.843L669.45 728.137L655.567 718.887L605.691 682.43L577.41 647.061C571.651 605.706 548.272 574.328 537.303 563.808L505.937 517.556L510.565 447.362L523.934 407.64L543.987 394.037L567.126 388.051L593.864 380.978L611.347 360.3C634.657 379.527 684.568 401.22 697.731 334.182C710.894 267.144 658.652 260.542 630.886 265.621L621.63 249.297L593.864 215.56L550.672 191.074C540.731 188.172 516.118 182.15 497.196 181.279C478.274 180.409 449.89 200.506 438.064 210.663L431.379 230.796L393.329 239.502L391.272 244.399L393.329 268.885L383.045 276.503L377.389 283.577L373.79 300.445L362.477 312.961L366.591 323.843L410.297 348.329L417.496 364.654L410.297 404.92L405.155 440.833L391.272 447.362L383.045 440.833V407.64L377.389 372.816L356.821 339.079L347.052 244.399C348.251 223.178 353.016 179.538 362.477 174.75C371.939 169.961 390.415 150.264 398.471 141.013L462.231 81.7023L470.972 70.2755L473.543 84.423L465.83 107.277V127.954H478.171L483.827 154.617L497.196 161.146L506.966 164.411L520.849 148.087L529.59 164.411H543.987V81.7023L536.789 33.8184C524.62 16.5874 494.933 -12.6509 473.543 8.24392C452.153 29.1388 400.185 58.3045 376.875 70.2755L333.168 89.8645L298.203 120.336L275.579 148.087L283.806 290.107L293.576 380.434C301.46 426.685 309.31 524.956 277.636 548.028C245.961 571.099 247.984 641.801 252.954 674.268V768.403L258.611 804.316C260.256 822.599 278.835 884.486 287.919 913.144L307.459 967.013L317.228 994.22V1028.5L298.718 1041.02L277.636 1047C231.975 1050.48 161.257 1136.6 131.605 1179.23L102.296 1211.88L25.6812 1291.86L1 1315.26L10.7697 1336.48L34.4225 1354.44H54.9902L82.7566 1358.25H97.154L136.233 1346.82L161.942 1358.25L183.538 1346.82L195.365 1358.25L222.103 1346.82C231.153 1326.8 254.668 1331.59 265.295 1336.48C280.515 1312.98 306.259 1317.62 317.228 1322.88H343.452L357.336 1315.26L385.616 1322.88C393.329 1351.72 408.755 1418.97 408.755 1457.28C408.755 1495.59 425.209 1540.35 433.436 1557.95L438.064 1591.68L428.294 1683.1C428.808 1720.28 430.557 1801.5 433.436 1828.93C436.315 1856.35 424.695 1909.64 418.524 1932.86L397.957 1978.02L384.074 1991.62L378.417 2022.64L389.73 2042.23L397.957 2049.3C400.356 2053.47 405.464 2061.82 406.698 2061.82Z" stroke="black"/>
</svg>
