<svg width="567" height="569" viewBox="0 0 567 569" fill="none" xmlns="http://www.w3.org/2000/svg">
<g clip-path="url(#clip0_604_5)">
<path d="M514.393 186.99C506.661 201.96 496.259 214.654 484.071 224.79M350.01 239.393C333.195 230.707 319.253 218.655 308.58 204.486M297.607 75.0093C304.871 60.9465 314.49 48.8925 325.733 39.0805M461.991 22.6067C476.28 29.988 488.496 39.8007 498.392 51.2778M362.744 16.9247C377.591 11.3003 393.501 8.56807 409.547 9.02322M449.257 245.075C431.946 251.633 413.191 254.259 394.459 252.485M520.312 88.374C526.448 104.844 529.034 122.6 527.67 140.386M288.445 163.631C284.425 149.163 283.055 133.937 284.585 118.74" stroke="#898888" stroke-width="3"/>
<path d="M440.6 164.6H383.6V552.8H440.6V569H266.6V552.8H323.6V362.6H125V552.8H182V569H8V552.8H65V164.6H8V148.4H182V164.6H125V346.4H323.6V164.6H266.6V148.4H440.6V164.6Z" fill="black"/>
</g>
<defs>
<clipPath id="clip0_604_5">
<rect width="567" height="569" fill="white"/>
</clipPath>
</defs>
</svg>
