<svg width="1136" height="1214" viewBox="0 0 1136 1214" fill="none" xmlns="http://www.w3.org/2000/svg">
<path d="M45.824 0.479996L78.464 88.544H90.624V92H52.48V88.544H64.64L55.68 63.584H25.472L17.92 86.752L28.8 88.544V92H1.28V88.544L14.08 86.624L42.24 0.479996H45.824ZM40.192 18.016L26.624 60.128H54.272L40.192 18.016ZM116.496 60.896C118.715 60.896 120.891 61.0667 123.024 61.408C125.243 61.7493 127.163 62.2187 128.784 62.816V47.456C128.784 43.7867 127.888 41.184 126.096 39.648C124.389 38.0267 121.957 37.216 118.8 37.216C116.752 37.216 114.789 37.5573 112.912 38.24C111.035 38.8373 109.499 39.6053 108.304 40.544C109.413 40.9707 110.48 41.7387 111.504 42.848C112.528 43.9573 113.04 45.4507 113.04 47.328C113.04 48.9493 112.443 50.4427 111.248 51.808C110.053 53.088 108.517 53.728 106.64 53.728C104.848 53.728 103.355 53.1307 102.16 51.936C100.965 50.656 100.368 49.0347 100.368 47.072C100.368 45.1947 100.965 43.4453 102.16 41.824C103.355 40.2027 104.891 38.8373 106.768 37.728C108.731 36.5333 110.949 35.5947 113.424 34.912C115.899 34.2293 118.416 33.888 120.976 33.888C126.608 33.888 131.344 34.9973 135.184 37.216C139.024 39.3493 140.944 43.1893 140.944 48.736V82.272C140.944 83.9787 141.243 85.344 141.84 86.368C142.523 87.3067 143.589 87.776 145.04 87.776C146.405 87.776 147.557 87.3067 148.496 86.368C149.52 85.4293 150.331 84.5333 150.928 83.68L152.976 85.728C151.44 88.032 149.648 89.824 147.6 91.104C145.637 92.384 143.376 93.024 140.816 93.024C138.427 93.024 136.208 92.5547 134.16 91.616C132.112 90.592 130.533 88.8 129.424 86.24C127.291 88.1173 124.773 89.7387 121.872 91.104C119.056 92.4693 115.771 93.152 112.016 93.152C107.152 93.152 103.099 91.7013 99.856 88.8C96.6987 85.8987 95.12 82.1013 95.12 77.408C95.12 72.288 97.04 68.2773 100.88 65.376C104.72 62.3893 109.925 60.896 116.496 60.896ZM107.92 75.872C107.92 79.3707 108.859 82.1867 110.736 84.32C112.613 86.368 115.259 87.392 118.672 87.392C120.72 87.392 122.555 87.0507 124.176 86.368C125.797 85.6 127.333 84.576 128.784 83.296V66.016C126.992 65.3333 125.328 64.864 123.792 64.608C122.341 64.2667 120.677 64.096 118.8 64.096C115.131 64.096 112.4 65.2053 110.608 67.424C108.816 69.6427 107.92 72.4587 107.92 75.872ZM200.804 5.728H188.644V2.272H252.388V28.512H248.932L245.22 5.728H213.604V41.952C215.225 41.696 217.017 41.4827 218.98 41.312C220.943 41.056 223.289 40.928 226.02 40.928C235.577 40.928 243.172 42.9333 248.804 46.944C254.436 50.8693 257.252 57.0133 257.252 65.376C257.252 69.728 256.441 73.568 254.82 76.896C253.284 80.224 251.108 82.9973 248.292 85.216C245.561 87.4347 242.233 89.1413 238.308 90.336C234.468 91.4453 230.287 92 225.764 92H188.644V88.544H200.804V5.728ZM213.604 88.544H223.972C230.799 88.544 235.791 86.4533 238.948 82.272C242.105 78.0053 243.684 72.544 243.684 65.888C243.684 59.232 242.063 54.0267 238.82 50.272C235.577 46.432 230.5 44.512 223.588 44.512C221.796 44.512 219.961 44.64 218.084 44.896C216.292 45.0667 214.799 45.3227 213.604 45.664V88.544ZM267.495 58.72C267.495 54.9653 267.879 50.4427 268.647 45.152C269.415 39.776 270.908 34.8693 273.127 30.432C275.175 26.2507 277.692 22.7947 280.679 20.064C283.751 17.3333 287.463 15.4987 291.815 14.56C293.607 14.2187 295.484 13.8773 297.447 13.536C299.495 13.1093 302.396 12.5973 306.151 12C309.82 11.4027 312.551 10.336 314.343 8.8C316.135 7.17866 317.458 4.66133 318.311 1.24799L321.895 1.75999C321.468 4.91733 320.999 7.64799 320.487 9.952C319.975 12.1707 319.292 14.0053 318.439 15.456C317.159 17.76 315.452 19.6373 313.319 21.088C311.186 22.5387 307.815 23.6053 303.207 24.288C298.428 24.9707 294.375 25.6107 291.047 26.208C287.804 26.8053 285.372 27.488 283.751 28.256C279.996 30.048 277.351 32.8213 275.815 36.576C274.279 40.2453 273.511 44.2133 273.511 48.48C273.511 49.8453 273.596 51.168 273.767 52.448C273.938 53.728 274.151 54.88 274.407 55.904C275.004 53.0027 276.071 50.3573 277.607 47.968C279.143 45.5787 280.978 43.5307 283.111 41.824C285.33 40.1173 287.719 38.7947 290.279 37.856C292.924 36.9173 295.612 36.448 298.343 36.448C302.951 36.448 306.919 37.1733 310.247 38.624C313.66 39.9893 316.434 41.9093 318.567 44.384C320.786 46.8587 322.407 49.8027 323.431 53.216C324.54 56.544 325.095 60.1707 325.095 64.096C325.095 67.8507 324.455 71.52 323.175 75.104C321.98 78.6027 320.188 81.6747 317.799 84.32C315.495 86.9653 312.594 89.0987 309.095 90.72C305.682 92.3413 301.799 93.152 297.447 93.152C293.18 93.152 289.212 92.4267 285.543 90.976C281.874 89.5253 278.716 87.392 276.071 84.576C273.426 81.6747 271.335 78.048 269.799 73.696C268.263 69.344 267.495 64.352 267.495 58.72ZM297.575 39.904C294.759 39.904 292.37 40.6293 290.407 42.08C288.444 43.4453 286.866 45.3227 285.671 47.712C284.562 50.016 283.708 52.6613 283.111 55.648C282.599 58.6347 282.343 61.664 282.343 64.736C282.343 67.808 282.599 70.88 283.111 73.952C283.623 76.9387 284.476 79.584 285.671 81.888C286.866 84.192 288.402 86.0693 290.279 87.52C292.242 88.9707 294.588 89.696 297.319 89.696C300.05 89.696 302.354 89.0133 304.231 87.648C306.194 86.1973 307.772 84.32 308.967 82.016C310.162 79.712 311.015 77.0667 311.527 74.08C312.039 71.0933 312.295 68.0213 312.295 64.864C312.295 61.7067 312.039 58.6347 311.527 55.648C311.1 52.6613 310.29 50.016 309.095 47.712C307.986 45.408 306.492 43.5307 304.615 42.08C302.738 40.6293 300.391 39.904 297.575 39.904ZM402.383 92H365.775V88.544H377.935V5.728H365.775V2.272H401.615C411.087 2.272 418.468 3.93599 423.759 7.26399C429.05 10.5067 431.695 15.4987 431.695 22.24C431.695 25.4827 431.012 28.384 429.647 30.944C428.367 33.4187 426.703 35.5947 424.655 37.472C422.607 39.264 420.26 40.7147 417.615 41.824C414.97 42.848 412.324 43.5307 409.679 43.872V44.384C413.007 44.64 416.164 45.28 419.151 46.304C422.138 47.328 424.74 48.736 426.959 50.528C429.178 52.2347 430.927 54.4107 432.207 57.056C433.572 59.616 434.255 62.6027 434.255 66.016C434.255 69.4293 433.53 72.7147 432.079 75.872C430.714 79.0293 428.666 81.8027 425.935 84.192C423.29 86.5813 419.962 88.5013 415.951 89.952C412.026 91.3173 407.503 92 402.383 92ZM390.735 88.544H401.231C407.631 88.544 412.452 86.496 415.695 82.4C418.938 78.2187 420.559 72.928 420.559 66.528C420.559 59.4453 418.81 54.2827 415.311 51.04C411.898 47.712 407.204 46.048 401.231 46.048H390.735V88.544ZM390.735 42.592H401.231C406.607 42.592 410.746 40.8 413.647 37.216C416.548 33.5467 417.999 28.6827 417.999 22.624C417.999 17.3333 416.548 13.1947 413.647 10.208C410.746 7.22133 406.351 5.728 400.463 5.728H390.735V42.592ZM483.407 62.176V62.688C485.455 62.944 487.46 63.3707 489.423 63.968C491.386 64.5653 493.135 65.4187 494.671 66.528C496.207 67.552 497.444 68.832 498.383 70.368C499.322 71.904 499.791 73.696 499.791 75.744C499.791 80.9493 497.572 84.96 493.135 87.776C488.783 90.592 482.554 92 474.447 92H443.855V88.544H453.455V38.496H443.855V35.04H474.575C481.828 35.04 487.546 36.064 491.727 38.112C495.994 40.0747 498.127 43.488 498.127 48.352C498.127 52.0213 496.676 55.136 493.775 57.696C490.959 60.256 487.503 61.7493 483.407 62.176ZM473.935 38.496H465.615V60.768H474.447C478.031 60.768 480.762 59.744 482.639 57.696C484.516 55.648 485.455 52.7467 485.455 48.992C485.455 45.5787 484.474 42.976 482.511 41.184C480.634 39.392 477.775 38.496 473.935 38.496ZM465.615 64.224V88.544H473.679C478.714 88.544 482.17 87.2213 484.047 84.576C486.01 81.9307 486.991 78.9867 486.991 75.744C486.991 72.0747 485.967 69.2587 483.919 67.296C481.871 65.248 478.756 64.224 474.575 64.224H465.615ZM578.934 92H539.894V88.544H552.054V5.728H539.894V2.272H604.79V28.512H601.334L597.622 5.728H564.854V88.544H578.934V92ZM612.495 38.496V35.04H660.623V56.928H657.167L652.303 38.496H634.255V88.544H644.495V92H612.495V88.544H622.095V38.496H612.495ZM702.421 117.344H698.965V88.544H709.973C713.386 86.6667 716.202 83.424 718.421 78.816C720.64 74.1227 722.389 68.704 723.669 62.56C725.034 56.416 726.016 49.8027 726.613 42.72C727.21 35.6373 727.68 28.768 728.021 22.112C728.192 17.76 728.32 14.176 728.405 11.36C728.576 8.45866 728.661 7.008 728.661 7.008L715.093 5.728V2.272H782.421V5.728H770.261V88.544H782.421V117.344H778.965L774.741 92H706.645L702.421 117.344ZM731.989 18.656C731.648 26.08 731.136 33.4187 730.453 40.672C729.856 47.9253 728.96 54.6667 727.765 60.896C726.656 67.04 725.162 72.544 723.285 77.408C721.493 82.272 719.232 85.984 716.501 88.544H757.461V5.728H732.629C732.629 5.728 732.586 6.28266 732.501 7.392C732.501 8.50133 732.458 9.78133 732.373 11.232C732.288 12.6827 732.202 14.1333 732.117 15.584C732.032 17.0347 731.989 18.0587 731.989 18.656ZM852.283 110.048H848.827L844.091 92H798.907L794.171 110.048H790.715V88.544H798.907C800.016 87.4347 801.254 86.0693 802.619 84.448C803.984 82.8267 805.222 80.6933 806.331 78.048C807.44 75.4027 808.251 72.544 808.763 69.472C809.36 66.3147 809.787 62.8587 810.043 59.104C810.128 57.1413 810.214 55.0507 810.299 52.832C810.47 50.528 810.555 48.4373 810.555 46.56C810.64 44.5973 810.683 42.976 810.683 41.696C810.768 40.416 810.811 39.776 810.811 39.776L799.675 38.496V35.04H853.307V38.496H843.707V88.544H852.283V110.048ZM831.547 38.496H814.651C814.651 38.496 814.566 40.16 814.395 43.488C814.224 46.7307 813.968 51.424 813.627 57.568C813.286 65.0773 812.347 71.264 810.811 76.128C809.275 80.992 807.056 85.1307 804.155 88.544H831.547V38.496ZM960.829 92H894.525V88.544H906.685V5.728H894.525V2.272H957.501V28.512H954.045L949.693 5.728H919.485V44.128H938.301L940.989 29.152H944.445V62.432H941.117L938.301 47.584H919.485V88.544H953.021L957.373 64.48H960.829V92ZM999.491 33.888C1002.22 33.888 1005 34.3573 1007.81 35.296C1010.63 36.1493 1013.1 37.6 1015.24 39.648C1017.45 41.6107 1019.25 44.2133 1020.61 47.456C1022.06 50.6133 1022.79 54.4533 1022.79 58.976H986.051C985.966 59.6587 985.923 60.4267 985.923 61.28C985.923 62.1333 985.923 62.8587 985.923 63.456C986.008 71.904 987.672 78.1333 990.915 82.144C994.243 86.0693 998.51 88.032 1003.72 88.032C1007.64 88.032 1010.93 86.9653 1013.57 84.832C1016.3 82.6987 1018.35 80.0107 1019.72 76.768L1022.53 78.816C1020.65 82.7413 1018.01 86.112 1014.6 88.928C1011.18 91.6587 1006.49 93.024 1000.52 93.024C996.078 93.024 992.11 92.256 988.611 90.72C985.198 89.184 982.339 87.136 980.035 84.576C977.731 81.9307 975.982 78.816 974.787 75.232C973.592 71.648 972.995 67.808 972.995 63.712C972.995 58.9333 973.72 54.7093 975.171 51.04C976.707 47.2853 978.67 44.1707 981.059 41.696C983.534 39.136 986.35 37.216 989.507 35.936C992.75 34.5707 996.078 33.888 999.491 33.888ZM986.435 55.52H1009.99C1009.9 53.5573 1009.6 51.5093 1009.09 49.376C1008.66 47.2427 1008.02 45.3227 1007.17 43.616C1006.32 41.7387 1005.12 40.2027 1003.59 39.008C1002.05 37.8133 1000.34 37.216 998.467 37.216C996.59 37.216 994.883 37.856 993.347 39.136C991.896 40.3307 990.659 41.9093 989.635 43.872C988.782 45.4933 988.099 47.328 987.587 49.376C987.075 51.424 986.691 53.472 986.435 55.52ZM22.656 171.608C22.656 169.816 23.296 168.28 24.576 167C25.9413 165.635 27.52 164.952 29.312 164.952C31.104 164.952 32.64 165.635 33.92 167C35.2853 168.28 35.968 169.816 35.968 171.608C35.968 173.4 35.2853 174.979 33.92 176.344C32.64 177.624 31.104 178.264 29.312 178.264C27.52 178.264 25.9413 177.624 24.576 176.344C23.296 174.979 22.656 173.4 22.656 171.608ZM46.592 171.608C46.592 169.816 47.232 168.28 48.512 167C49.8773 165.635 51.456 164.952 53.248 164.952C55.04 164.952 56.576 165.635 57.856 167C59.2213 168.28 59.904 169.816 59.904 171.608C59.904 173.4 59.2213 174.979 57.856 176.344C56.576 177.624 55.04 178.264 53.248 178.264C51.456 178.264 49.8773 177.624 48.512 176.344C47.232 174.979 46.592 173.4 46.592 171.608ZM72.448 279H6.144V275.544H18.304V192.728H6.144V189.272H69.12V215.512H65.664L61.312 192.728H31.104V231.128H49.92L52.608 216.152H56.064V249.432H52.736L49.92 234.584H31.104V275.544H64.64L68.992 251.48H72.448V279ZM111.116 220.888C113.847 220.888 116.62 221.357 119.436 222.296C122.252 223.149 124.727 224.6 126.86 226.648C129.079 228.611 130.871 231.213 132.236 234.456C133.687 237.613 134.412 241.453 134.412 245.976H97.676C97.5907 246.659 97.548 247.427 97.548 248.28C97.548 249.133 97.548 249.859 97.548 250.456C97.6333 258.904 99.2973 265.133 102.54 269.144C105.868 273.069 110.135 275.032 115.34 275.032C119.265 275.032 122.551 273.965 125.196 271.832C127.927 269.699 129.975 267.011 131.34 263.768L134.156 265.816C132.279 269.741 129.633 273.112 126.22 275.928C122.807 278.659 118.113 280.024 112.14 280.024C107.703 280.024 103.735 279.256 100.236 277.72C96.8227 276.184 93.964 274.136 91.66 271.576C89.356 268.931 87.6067 265.816 86.412 262.232C85.2173 258.648 84.62 254.808 84.62 250.712C84.62 245.933 85.3453 241.709 86.796 238.04C88.332 234.285 90.2947 231.171 92.684 228.696C95.1587 226.136 97.9747 224.216 101.132 222.936C104.375 221.571 107.703 220.888 111.116 220.888ZM98.06 242.52H121.612C121.527 240.557 121.228 238.509 120.716 236.376C120.289 234.243 119.649 232.323 118.796 230.616C117.943 228.739 116.748 227.203 115.212 226.008C113.676 224.813 111.969 224.216 110.092 224.216C108.215 224.216 106.508 224.856 104.972 226.136C103.521 227.331 102.284 228.909 101.26 230.872C100.407 232.493 99.724 234.328 99.212 236.376C98.7 238.424 98.316 240.472 98.06 242.52ZM92.3 198.232C92.3 196.44 92.94 194.904 94.22 193.624C95.5853 192.259 97.164 191.576 98.956 191.576C100.748 191.576 102.284 192.259 103.564 193.624C104.929 194.904 105.612 196.44 105.612 198.232C105.612 200.024 104.929 201.603 103.564 202.968C102.284 204.248 100.748 204.888 98.956 204.888C97.164 204.888 95.5853 204.248 94.22 202.968C92.94 201.603 92.3 200.024 92.3 198.232ZM116.236 198.232C116.236 196.44 116.876 194.904 118.156 193.624C119.521 192.259 121.1 191.576 122.892 191.576C124.684 191.576 126.22 192.259 127.5 193.624C128.865 194.904 129.548 196.44 129.548 198.232C129.548 200.024 128.865 201.603 127.5 202.968C126.22 204.248 124.684 204.888 122.892 204.888C121.1 204.888 119.521 204.248 118.156 202.968C116.876 201.603 116.236 200.024 116.236 198.232ZM207.299 223.192C208.494 225.667 210.158 227.416 212.291 228.44C214.424 229.379 217.198 229.848 220.611 229.848H227.907V192.728H215.747V189.272H252.867V192.728H240.707V229.848H248.003C251.416 229.848 254.19 229.379 256.323 228.44C258.456 227.416 260.12 225.667 261.315 223.192C261.827 222.168 262.382 220.675 262.979 218.712C263.662 216.664 264.387 214.488 265.155 212.184C265.923 209.795 266.691 207.363 267.459 204.888C268.227 202.413 268.91 200.195 269.507 198.232C270.616 194.904 272.11 192.429 273.987 190.808C275.864 189.101 278.382 188.248 281.539 188.248C284.952 188.248 287.384 189.187 288.835 191.064C290.286 192.856 291.011 194.819 291.011 196.952C291.011 199 290.371 200.877 289.091 202.584C287.811 204.291 285.848 205.144 283.203 205.144C281.582 205.144 279.96 204.589 278.339 203.48C276.803 202.285 276.035 200.579 276.035 198.36C276.035 197.336 276.206 196.312 276.547 195.288C276.974 194.264 277.656 193.283 278.595 192.344C277.656 192.429 276.718 192.941 275.779 193.88C274.84 194.819 273.944 196.483 273.091 198.872C271.384 203.821 270.062 208.045 269.123 211.544C268.184 214.957 266.947 218.669 265.411 222.68C264.814 224.301 263.875 225.88 262.595 227.416C261.4 228.952 259.907 230.019 258.115 230.616V231.128H260.803C266.179 231.128 270.147 232.323 272.707 234.712C275.352 237.016 277.059 240.045 277.827 243.8C278.424 246.872 278.936 249.475 279.363 251.608C279.79 253.656 280.131 255.491 280.387 257.112C280.728 258.648 281.027 260.099 281.283 261.464C281.539 262.829 281.838 264.365 282.179 266.072C282.862 269.4 283.928 271.832 285.379 273.368C286.915 274.819 289.56 275.544 293.315 275.544H296.899V279H286.019C280.643 279 276.718 278.061 274.243 276.184C271.768 274.221 270.19 271.32 269.507 267.48C269.251 266.115 268.91 264.323 268.483 262.104C268.056 259.885 267.63 257.667 267.203 255.448C266.776 253.144 266.35 251.011 265.923 249.048C265.582 247.085 265.326 245.592 265.155 244.568C264.558 240.216 262.936 237.272 260.291 235.736C257.731 234.115 254.062 233.304 249.283 233.304H240.707V275.544H252.867V279H215.747V275.544H227.907V233.304H219.331C214.552 233.304 210.883 234.2 208.323 235.992C205.763 237.784 204.142 240.643 203.459 244.568C203.288 245.592 202.99 247.128 202.563 249.176C202.222 251.139 201.838 253.272 201.411 255.576C200.984 257.88 200.558 260.141 200.131 262.36C199.704 264.493 199.363 266.2 199.107 267.48C198.339 271.064 196.718 273.88 194.243 275.928C191.854 277.976 187.971 279 182.595 279H171.715V275.544H175.299C179.054 275.544 181.656 274.691 183.107 272.984C184.643 271.192 185.752 268.589 186.435 265.176C186.776 263.725 187.075 262.445 187.331 261.336C187.587 260.141 187.843 258.819 188.099 257.368C188.44 255.917 188.824 254.168 189.251 252.12C189.678 249.987 190.19 247.213 190.787 243.8C191.47 240.131 193.134 237.101 195.779 234.712C198.424 232.323 202.435 231.128 207.811 231.128H210.499V230.616C208.707 230.019 207.171 228.952 205.891 227.416C204.696 225.88 203.8 224.301 203.203 222.68C201.667 218.669 200.387 214.957 199.363 211.544C198.424 208.045 197.144 203.821 195.523 198.872C194.755 196.483 193.859 194.819 192.835 193.88C191.896 192.941 190.958 192.429 190.019 192.344C190.958 193.283 191.598 194.264 191.939 195.288C192.366 196.312 192.579 197.336 192.579 198.36C192.579 200.579 191.768 202.285 190.147 203.48C188.611 204.589 187.032 205.144 185.411 205.144C182.766 205.144 180.803 204.291 179.523 202.584C178.243 200.877 177.603 199 177.603 196.952C177.603 194.819 178.328 192.856 179.779 191.064C181.23 189.187 183.662 188.248 187.075 188.248C190.232 188.248 192.75 189.101 194.627 190.808C196.59 192.429 198.083 194.904 199.107 198.232C199.704 200.28 200.387 202.584 201.155 205.144C201.923 207.619 202.691 210.008 203.459 212.312C204.227 214.616 204.91 216.749 205.507 218.712C206.19 220.675 206.787 222.168 207.299 223.192ZM345.038 247.64V225.496H335.438V222.04H366.798V225.496H357.198V247.64H361.038C364.195 247.64 366.627 247 368.334 245.72C370.041 244.44 371.406 242.563 372.43 240.088C373.454 237.699 374.35 235.352 375.118 233.048C375.971 230.659 376.611 228.995 377.038 228.056C378.062 225.837 379.257 224.173 380.622 223.064C381.987 221.955 383.865 221.4 386.254 221.4C388.473 221.4 390.222 222.04 391.502 223.32C392.867 224.6 393.55 226.307 393.55 228.44C393.55 230.232 392.995 231.811 391.886 233.176C390.777 234.541 389.241 235.224 387.278 235.224C385.401 235.224 383.95 234.712 382.926 233.688C381.902 232.664 381.39 231.427 381.39 229.976C381.39 229.293 381.475 228.653 381.646 228.056C381.902 227.373 382.243 226.605 382.67 225.752C382.158 226.008 381.689 226.435 381.262 227.032C380.921 227.629 380.451 228.653 379.854 230.104C379.171 231.811 378.574 233.432 378.062 234.968C377.55 236.419 376.739 238.467 375.63 241.112C374.777 243.331 373.667 245.037 372.302 246.232C370.937 247.341 369.443 248.067 367.822 248.408V248.92C370.297 249.005 372.345 249.133 373.966 249.304C375.587 249.475 377.081 249.816 378.446 250.328C380.835 251.181 382.627 252.461 383.822 254.168C385.017 255.789 385.742 257.539 385.998 259.416C386.425 262.317 386.723 264.237 386.894 265.176C387.065 266.029 387.321 267.309 387.662 269.016C388.174 271.32 389.155 272.984 390.606 274.008C392.142 275.032 394.019 275.544 396.238 275.544H399.566V279H389.198C385.443 279 382.457 278.275 380.238 276.824C378.105 275.373 376.739 273.325 376.142 270.68C375.801 269.059 375.459 267.139 375.118 264.92C374.862 262.701 374.435 260.184 373.838 257.368C373.411 255.064 372.473 253.443 371.022 252.504C369.657 251.48 367.523 250.968 364.622 250.968H357.198V275.544H366.798V279H335.438V275.544H345.038V250.968H337.614C334.713 250.968 332.537 251.48 331.086 252.504C329.721 253.443 328.825 255.064 328.398 257.368C327.801 260.184 327.331 262.701 326.99 264.92C326.734 267.139 326.435 269.059 326.094 270.68C325.497 273.325 324.089 275.373 321.87 276.824C319.737 278.275 316.793 279 313.038 279H302.67V275.544H305.998C308.217 275.544 310.051 275.032 311.502 274.008C313.038 272.984 314.062 271.32 314.574 269.016C314.915 267.309 315.171 266.029 315.342 265.176C315.513 264.237 315.811 262.317 316.238 259.416C316.494 257.539 317.219 255.789 318.414 254.168C319.609 252.461 321.401 251.181 323.79 250.328C325.155 249.816 326.649 249.475 328.27 249.304C329.891 249.133 331.939 249.005 334.414 248.92V248.408C332.793 248.067 331.299 247.341 329.934 246.232C328.569 245.037 327.459 243.331 326.606 241.112C325.497 238.467 324.686 236.419 324.174 234.968C323.662 233.432 323.065 231.811 322.382 230.104C321.785 228.653 321.273 227.629 320.846 227.032C320.505 226.435 320.078 226.008 319.566 225.752C319.993 226.605 320.291 227.373 320.462 228.056C320.718 228.653 320.846 229.293 320.846 229.976C320.846 231.427 320.334 232.664 319.31 233.688C318.286 234.712 316.835 235.224 314.958 235.224C312.995 235.224 311.459 234.541 310.35 233.176C309.241 231.811 308.686 230.232 308.686 228.44C308.686 226.307 309.326 224.6 310.606 223.32C311.971 222.04 313.763 221.4 315.982 221.4C318.371 221.4 320.249 221.955 321.614 223.064C322.979 224.173 324.174 225.837 325.198 228.056C325.625 228.995 326.222 230.659 326.99 233.048C327.843 235.352 328.782 237.699 329.806 240.088C330.83 242.563 332.195 244.44 333.902 245.72C335.609 247 338.041 247.64 341.198 247.64H345.038ZM458.136 232.536V229.08H463.128C468.675 229.08 473.069 227.245 476.312 223.576C479.555 219.821 481.176 215.128 481.176 209.496C481.176 203.096 479.555 198.573 476.312 195.928C473.155 193.283 469.357 191.96 464.92 191.96C459.459 191.96 454.765 194.051 450.84 198.232C447 202.328 445.08 209.069 445.08 218.456H441.24V188.376H445.08L446.36 199.512C448.493 195.587 451.48 192.771 455.32 191.064C459.245 189.272 463.64 188.376 468.504 188.376C472.088 188.376 475.459 188.803 478.616 189.656C481.773 190.424 484.547 191.661 486.936 193.368C489.325 194.989 491.203 197.08 492.568 199.64C493.933 202.2 494.616 205.187 494.616 208.6C494.616 214.061 492.696 218.84 488.856 222.936C485.101 227.032 479.853 229.549 473.112 230.488V231C480.28 231.853 486.168 234.072 490.776 237.656C495.384 241.24 497.688 246.488 497.688 253.4C497.688 257.581 496.835 261.336 495.128 264.664C493.421 267.992 491.16 270.808 488.344 273.112C485.613 275.331 482.499 277.037 479 278.232C475.501 279.427 472.003 280.024 468.504 280.024C461.933 280.024 456.643 278.659 452.632 275.928C448.707 273.112 445.763 269.741 443.8 265.816V280.024H439.96V251.864L443.8 251.736C444.483 258.819 446.744 264.707 450.584 269.4C454.509 274.008 459.757 276.312 466.328 276.312C471.277 276.312 475.501 274.264 479 270.168C482.499 265.987 484.248 260.355 484.248 253.272C484.248 246.445 482.456 241.283 478.872 237.784C475.288 234.285 470.04 232.536 463.128 232.536H458.136ZM512.478 241.368H509.022V222.168H512.478L514.014 227.928C515.806 225.539 517.982 223.789 520.542 222.68C523.187 221.485 526.473 220.888 530.398 220.888C532.446 220.888 534.537 221.144 536.67 221.656C538.803 222.083 540.723 222.808 542.43 223.832C544.137 224.856 545.502 226.221 546.526 227.928C547.635 229.635 548.19 231.725 548.19 234.2C548.19 237.699 546.91 240.813 544.35 243.544C541.875 246.189 537.95 247.853 532.574 248.536V249.048C537.95 249.475 542.302 250.883 545.63 253.272C548.958 255.576 550.622 258.605 550.622 262.36C550.622 267.565 548.446 271.832 544.094 275.16C539.742 278.403 533.854 280.024 526.43 280.024C520.03 280.024 515.209 278.744 511.966 276.184C508.809 273.624 507.23 270.637 507.23 267.224C507.23 265.432 507.827 263.896 509.022 262.616C510.302 261.336 511.881 260.696 513.758 260.696C515.635 260.696 517.086 261.293 518.11 262.488C519.134 263.597 519.646 265.005 519.646 266.712C519.646 268.248 519.219 269.571 518.366 270.68C517.598 271.789 516.531 272.6 515.166 273.112C516.275 274.307 517.683 275.16 519.39 275.672C521.097 276.184 522.931 276.44 524.894 276.44C529.246 276.44 532.489 275.16 534.622 272.6C536.755 270.04 537.822 266.797 537.822 262.872C537.822 259.032 536.713 256.088 534.494 254.04C532.275 251.992 529.075 250.968 524.894 250.968H521.31V247.384H525.79C528.606 247.384 530.953 246.275 532.83 244.056C534.707 241.837 535.646 238.979 535.646 235.48C535.646 232.067 534.793 229.421 533.086 227.544C531.465 225.581 529.118 224.6 526.046 224.6C522.974 224.6 520.201 226.008 517.726 228.824C515.251 231.555 513.502 235.736 512.478 241.368ZM683.313 192.728H671.153V275.544H683.313V279H646.193V275.544H658.353V206.936L615.985 267.864V275.544H628.145V279H591.025V275.544H603.185V192.728H591.025V189.272H628.145V192.728H615.985V261.72L658.353 200.792V192.728H646.193V189.272H683.313V192.728ZM761.99 222.04V225.496H752.39V275.544H761.99V279H731.27V275.544H740.23V235.864L714.63 272.088V275.544H723.59V279H692.87V275.544H702.47V225.496H692.87V222.04H723.59V225.496H714.63V266.072L740.23 229.848V225.496H731.27V222.04H761.99ZM895.313 192.728H883.153V275.544H895.313V279H858.193V275.544H870.353V206.936L827.985 267.864V275.544H840.145V279H803.025V275.544H815.185V192.728H803.025V189.272H840.145V192.728H827.985V261.72L870.353 200.792V192.728H858.193V189.272H895.313V192.728ZM849.617 180.952C847.398 180.952 845.18 180.739 842.961 180.312C840.828 179.885 838.908 179.245 837.201 178.392C835.494 177.453 834.086 176.301 832.977 174.936C831.953 173.485 831.441 171.779 831.441 169.816C831.441 167.939 831.996 166.403 833.105 165.208C834.3 164.013 835.708 163.416 837.329 163.416C838.95 163.416 840.316 163.928 841.425 164.952C842.534 165.976 843.089 167.341 843.089 169.048C843.089 170.499 842.577 171.736 841.553 172.76C840.529 173.784 839.249 174.339 837.713 174.424C838.31 175.107 839.548 175.875 841.425 176.728C843.388 177.581 845.99 178.008 849.233 178.008C852.39 178.008 854.95 177.581 856.913 176.728C858.876 175.875 860.156 175.107 860.753 174.424C859.132 174.339 857.809 173.784 856.785 172.76C855.846 171.651 855.377 170.328 855.377 168.792C855.377 167.341 855.889 166.104 856.913 165.08C858.022 163.971 859.43 163.416 861.137 163.416C862.758 163.416 864.124 164.013 865.233 165.208C866.428 166.317 867.025 167.853 867.025 169.816C867.025 173.229 865.318 175.96 861.905 178.008C858.492 179.971 854.396 180.952 849.617 180.952ZM973.99 222.04V225.496H964.39V275.544H973.99V279H943.27V275.544H952.23V235.864L926.63 272.088V275.544H935.59V279H904.87V275.544H914.47V225.496H904.87V222.04H935.59V225.496H926.63V266.072L952.23 229.848V225.496H943.27V222.04H973.99ZM939.686 213.208C937.467 213.208 935.249 212.995 933.03 212.568C930.897 212.141 928.977 211.501 927.27 210.648C925.563 209.709 924.155 208.557 923.046 207.192C922.022 205.741 921.51 204.035 921.51 202.072C921.51 200.195 922.065 198.659 923.174 197.464C924.369 196.269 925.777 195.672 927.398 195.672C929.019 195.672 930.385 196.184 931.494 197.208C932.603 198.232 933.158 199.597 933.158 201.304C933.158 202.755 932.646 203.992 931.622 205.016C930.598 206.04 929.318 206.595 927.782 206.68C928.379 207.363 929.617 208.131 931.494 208.984C933.457 209.837 936.059 210.264 939.302 210.264C942.459 210.264 945.019 209.837 946.982 208.984C948.945 208.131 950.225 207.363 950.822 206.68C949.201 206.595 947.878 206.04 946.854 205.016C945.915 203.907 945.446 202.584 945.446 201.048C945.446 199.597 945.958 198.36 946.982 197.336C948.091 196.227 949.499 195.672 951.206 195.672C952.827 195.672 954.193 196.269 955.302 197.464C956.497 198.573 957.094 200.109 957.094 202.072C957.094 205.485 955.387 208.216 951.974 210.264C948.561 212.227 944.465 213.208 939.686 213.208ZM53.888 410.576C54.4 409.381 54.9973 407.717 55.68 405.584C56.448 403.451 57.216 401.232 57.984 398.928C58.752 396.539 59.4773 394.149 60.16 391.76C60.928 389.285 61.568 387.109 62.08 385.232C62.9333 381.904 64.3413 379.429 66.304 377.808C68.352 376.101 70.9547 375.248 74.112 375.248C77.5253 375.248 79.9573 376.187 81.408 378.064C82.8587 379.856 83.584 381.819 83.584 383.952C83.584 386 82.944 387.877 81.664 389.584C80.384 391.291 78.4213 392.144 75.776 392.144C74.1547 392.144 72.5333 391.589 70.912 390.48C69.376 389.285 68.608 387.579 68.608 385.36C68.608 384.336 68.7787 383.312 69.12 382.288C69.5467 381.264 70.2293 380.283 71.168 379.344C70.2293 379.429 69.248 379.941 68.224 380.88C67.2853 381.819 66.432 383.483 65.664 385.872C64.0427 390.821 62.72 395.088 61.696 398.672C60.672 402.171 59.4347 405.968 57.984 410.064C57.3867 411.685 56.448 413.264 55.168 414.8C53.9733 416.336 52.48 417.403 50.688 418V418.512C50.688 418.512 51.072 418.512 51.84 418.512C52.608 418.512 53.12 418.512 53.376 418.512C58.752 418.512 62.7627 419.707 65.408 422.096C68.0533 424.485 69.7173 427.515 70.4 431.184C70.9973 434.427 71.4667 437.157 71.808 439.376C72.2347 441.595 72.6187 443.515 72.96 445.136C73.3013 446.757 73.6 448.208 73.856 449.488C74.112 450.683 74.4107 451.877 74.752 453.072C75.6907 456.315 76.8427 458.704 78.208 460.24C79.5733 461.776 82.1333 462.544 85.888 462.544H89.472V466H78.592C73.216 466 69.2907 465.061 66.816 463.184C64.4267 461.221 62.848 458.32 62.08 454.48C61.824 453.2 61.568 452.005 61.312 450.896C61.056 449.701 60.7573 448.293 60.416 446.672C60.16 445.051 59.776 443.088 59.264 440.784C58.8373 438.395 58.3253 435.451 57.728 431.952C56.96 427.6 55.296 424.656 52.736 423.12C50.2613 421.499 46.6347 420.688 41.856 420.688H31.36V462.544H43.52V466H6.4V462.544H18.56V379.728H6.4V376.272H43.52V379.728H31.36V417.232H40.576C43.9893 417.232 46.7627 416.763 48.896 415.824C51.1147 414.885 52.7787 413.136 53.888 410.576ZM118.85 412.496V434.128H124.226C127.383 434.128 129.687 433.488 131.138 432.208C132.674 430.928 133.954 429.051 134.978 426.576C136.002 424.187 136.898 421.925 137.666 419.792C138.519 417.573 139.159 415.995 139.586 415.056C140.61 412.837 141.805 411.173 143.17 410.064C144.535 408.955 146.413 408.4 148.802 408.4C151.021 408.4 152.77 409.04 154.05 410.32C155.415 411.6 156.098 413.307 156.098 415.44C156.098 417.232 155.543 418.811 154.434 420.176C153.325 421.541 151.789 422.224 149.826 422.224C147.949 422.224 146.498 421.712 145.474 420.688C144.45 419.664 143.938 418.427 143.938 416.976C143.938 416.293 144.023 415.653 144.194 415.056C144.45 414.373 144.791 413.605 145.218 412.752C144.706 413.008 144.237 413.435 143.81 414.032C143.469 414.629 142.999 415.653 142.402 417.104L138.178 427.6C137.325 429.819 136.386 431.44 135.362 432.464C134.338 433.403 133.015 434.171 131.394 434.768V435.28C133.613 435.28 135.405 435.408 136.77 435.664C138.221 435.92 139.629 436.304 140.994 436.816C143.383 437.669 145.175 438.949 146.37 440.656C147.565 442.277 148.29 444.027 148.546 445.904C148.973 448.805 149.271 450.811 149.442 451.92C149.613 452.944 149.869 454.309 150.21 456.016C150.722 458.32 151.703 459.984 153.154 461.008C154.69 462.032 156.567 462.544 158.786 462.544H162.114V466H151.746C147.991 466 145.005 465.275 142.786 463.824C140.653 462.373 139.287 460.325 138.69 457.68C138.349 456.059 138.007 454.053 137.666 451.664C137.41 449.275 136.983 446.672 136.386 443.856C135.959 441.552 135.149 439.931 133.954 438.992C132.759 437.968 130.711 437.456 127.81 437.456H118.85V462.544H128.45V466H97.09V462.544H106.69V412.496H97.09V409.04H128.45V412.496H118.85ZM281.18 379.728H269.02V462.544H281.18V466H244.06V462.544H256.22V379.728H231.772C231.772 379.728 231.729 380.624 231.644 382.416C231.559 384.208 231.431 386.256 231.26 388.56C231.175 390.864 231.089 393.125 231.004 395.344C230.919 397.477 230.833 398.971 230.748 399.824C230.236 408.272 229.639 415.568 228.956 421.712C228.359 427.856 227.633 433.104 226.78 437.456C226.012 441.808 225.116 445.52 224.092 448.592C223.153 451.579 222.087 454.267 220.892 456.656C218.844 460.667 216.327 463.397 213.34 464.848C210.439 466.299 207.793 467.024 205.404 467.024C202.247 467.024 199.687 466.213 197.724 464.592C195.761 462.885 194.78 460.624 194.78 457.808C194.78 455.419 195.463 453.456 196.828 451.92C198.279 450.384 200.156 449.616 202.46 449.616C204.849 449.616 206.684 450.213 207.964 451.408C209.244 452.603 209.884 454.139 209.884 456.016C209.884 457.637 209.457 459.131 208.604 460.496C207.836 461.776 206.684 462.587 205.148 462.928C205.404 463.013 205.617 463.099 205.788 463.184C205.959 463.184 206.215 463.184 206.556 463.184C207.921 463.184 209.628 462.672 211.676 461.648C213.724 460.624 215.559 458.661 217.18 455.76C218.119 454.053 219.057 451.92 219.996 449.36C220.935 446.8 221.788 443.557 222.556 439.632C223.409 435.621 224.177 430.715 224.86 424.912C225.628 419.109 226.268 412.112 226.78 403.92C226.865 402.555 226.951 400.592 227.036 398.032C227.207 395.387 227.335 392.827 227.42 390.352C227.505 387.877 227.548 385.701 227.548 383.824C227.633 381.947 227.676 381.008 227.676 381.008L214.236 379.728V376.272H281.18V379.728ZM299.065 467.024C296.42 467.024 294.244 466.341 292.537 464.976C290.83 463.611 289.977 461.605 289.977 458.96C289.977 457.083 290.574 455.419 291.769 453.968C292.964 452.432 294.628 451.664 296.761 451.664C298.638 451.664 300.089 452.261 301.113 453.456C302.137 454.565 302.649 455.931 302.649 457.552C302.649 458.747 302.35 459.856 301.753 460.88C301.156 461.819 300.302 462.459 299.193 462.8C299.278 462.885 299.406 462.971 299.577 463.056C299.748 463.056 299.961 463.056 300.217 463.056C301.497 463.056 302.777 462.715 304.057 462.032C305.422 461.264 306.532 460.197 307.385 458.832C308.068 457.808 308.622 456.699 309.049 455.504C309.561 454.309 309.945 452.816 310.201 451.024C310.542 449.232 310.841 446.971 311.097 444.24C311.438 441.509 311.737 438.053 311.993 433.872C312.078 431.909 312.164 429.776 312.249 427.472C312.42 425.083 312.548 422.907 312.633 420.944C312.718 418.896 312.761 417.189 312.761 415.824C312.846 414.459 312.889 413.776 312.889 413.776L301.625 412.496V409.04H355.129V412.496H345.529V462.544H355.129V466H324.409V462.544H333.369V412.496H316.985C316.985 412.496 316.942 413.179 316.857 414.544C316.772 415.909 316.686 417.573 316.601 419.536C316.516 421.499 316.388 423.632 316.217 425.936C316.132 428.24 316.046 430.331 315.961 432.208C315.534 440.4 314.937 446.501 314.169 450.512C313.486 454.437 312.462 457.723 311.097 460.368C309.988 462.501 308.366 464.165 306.233 465.36C304.1 466.469 301.71 467.024 299.065 467.024ZM497.398 379.728H485.238V462.544H497.398V466H460.278V462.544H472.438V386.768L443.766 467.152H440.31L413.43 386.896V460.752L425.59 462.544V466H396.022V462.544L409.718 460.752V379.728H397.558V376.272H423.798L446.966 447.184L472.182 376.272H497.398V379.728ZM586.483 409.04V412.496H576.883V462.544H586.483V466H555.763V462.544H564.723V416.208L543.731 467.024H540.275L520.435 415.952V462.544H529.395V466H506.995V462.544H516.595V412.496H508.275V409.04H529.907L546.291 450.512L563.571 409.04H586.483ZM719.813 379.728H707.653V462.544H719.813V466H682.693V462.544H694.853V421.968H652.485V462.544H664.645V466H627.525V462.544H639.685V379.728H627.525V376.272H664.645V379.728H652.485V418.512H694.853V379.728H682.693V376.272H719.813V379.728ZM798.49 409.04V412.496H788.89V462.544H798.49V466H767.77V462.544H776.73V439.504H751.13V462.544H760.09V466H729.37V462.544H738.97V412.496H729.37V409.04H760.09V412.496H751.13V436.048H776.73V412.496H767.77V409.04H798.49ZM882.149 467.024C875.92 467.024 870.245 465.872 865.125 463.568C860.005 461.179 855.653 457.979 852.069 453.968C848.485 449.872 845.712 445.051 843.749 439.504C841.786 433.872 840.805 427.813 840.805 421.328C840.805 414.843 841.744 408.784 843.621 403.152C845.498 397.52 848.186 392.656 851.685 388.56C855.269 384.464 859.621 381.221 864.741 378.832C869.946 376.443 875.749 375.248 882.149 375.248C888.378 375.248 894.01 376.357 899.045 378.576C904.165 380.795 908.517 383.909 912.101 387.92C915.685 391.931 918.416 396.795 920.293 402.512C922.256 408.144 923.237 414.331 923.237 421.072C923.237 427.131 922.213 432.933 920.165 438.48C918.117 444.027 915.258 448.933 911.589 453.2C908.005 457.381 903.696 460.752 898.661 463.312C893.626 465.787 888.122 467.024 882.149 467.024ZM882.149 378.704C877.797 378.704 873.914 379.813 870.501 382.032C867.088 384.251 864.186 387.323 861.797 391.248C859.408 395.088 857.573 399.653 856.293 404.944C855.098 410.149 854.501 415.739 854.501 421.712C854.501 427.685 855.226 433.232 856.677 438.352C858.128 443.472 860.09 447.867 862.565 451.536C865.125 455.205 868.069 458.107 871.397 460.24C874.81 462.288 878.394 463.312 882.149 463.312C885.904 463.312 889.445 462.288 892.773 460.24C896.186 458.107 899.088 455.205 901.477 451.536C903.952 447.867 905.914 443.472 907.365 438.352C908.816 433.232 909.541 427.685 909.541 421.712C909.541 415.397 908.901 409.595 907.621 404.304C906.426 398.928 904.677 394.363 902.373 390.608C900.069 386.853 897.21 383.952 893.797 381.904C890.384 379.771 886.501 378.704 882.149 378.704ZM962.42 407.888C967.369 407.888 971.679 408.741 975.348 410.448C979.017 412.155 982.004 414.373 984.308 417.104C986.612 419.835 988.319 422.992 989.428 426.576C990.623 430.075 991.22 433.659 991.22 437.328C991.22 441.083 990.58 444.752 989.3 448.336C988.105 451.92 986.313 455.077 983.924 457.808C981.535 460.539 978.505 462.757 974.836 464.464C971.252 466.171 967.113 467.024 962.42 467.024C953.545 467.024 946.505 464.336 941.3 458.96C936.18 453.499 933.62 446.331 933.62 437.456C933.62 433.445 934.26 429.648 935.54 426.064C936.82 422.48 938.655 419.365 941.044 416.72C943.519 413.989 946.548 411.856 950.132 410.32C953.716 408.699 957.812 407.888 962.42 407.888ZM962.292 463.568C964.937 463.568 967.241 462.843 969.204 461.392C971.252 459.856 972.916 457.893 974.196 455.504C975.561 453.115 976.543 450.341 977.14 447.184C977.823 444.027 978.164 440.784 978.164 437.456C978.164 434.043 977.865 430.757 977.268 427.6C976.671 424.443 975.732 421.669 974.452 419.28C973.257 416.891 971.636 414.971 969.588 413.52C967.625 412.069 965.236 411.344 962.42 411.344C959.775 411.344 957.471 412.069 955.508 413.52C953.545 414.971 951.881 416.933 950.516 419.408C949.236 421.797 948.255 424.571 947.572 427.728C946.975 430.885 946.676 434.128 946.676 437.456C946.676 440.955 947.017 444.325 947.7 447.568C948.383 450.725 949.364 453.499 950.644 455.888C952.009 458.192 953.673 460.069 955.636 461.52C957.599 462.885 959.817 463.568 962.292 463.568ZM98.688 566.728H86.528V649.544H98.688V653H61.568V649.544H73.728V566.728H31.36V649.544H43.52V653H6.4V649.544H18.56V566.728H6.4V563.272H98.688V566.728ZM177.749 596.04V599.496H168.149V649.544H177.749V653H147.029V649.544H155.989V599.496H130.005V649.544H138.965V653H108.245V649.544H117.845V599.496H108.245V596.04H177.749ZM253.719 612.936C251.927 612.936 250.007 612.851 247.959 612.68C245.911 612.424 243.906 612.083 241.943 611.656V649.544H255.383V653H216.983V649.544H229.143V566.728H216.983V563.272H255.255C259.095 563.272 262.807 563.656 266.391 564.424C269.975 565.192 273.132 566.472 275.863 568.264C278.594 569.971 280.77 572.275 282.391 575.176C284.012 577.992 284.823 581.533 284.823 585.8C284.823 590.067 283.97 593.907 282.263 597.32C280.642 600.733 278.423 603.592 275.607 605.896C272.791 608.2 269.506 609.949 265.751 611.144C261.996 612.339 257.986 612.936 253.719 612.936ZM252.183 609.48C257.559 609.48 262.039 607.475 265.623 603.464C269.292 599.453 271.127 593.736 271.127 586.312C271.127 579.229 269.42 574.195 266.007 571.208C262.679 568.221 257.9 566.728 251.671 566.728H241.943V607.944C243.479 608.456 245.015 608.84 246.551 609.096C248.172 609.352 250.05 609.48 252.183 609.48ZM291.685 686.536V683.08H301.285V599.496H291.685V596.04H301.413L313.445 594.248V607.816C315.237 603.293 317.882 600.008 321.381 597.96C324.88 595.912 328.805 594.888 333.157 594.888C337.509 594.888 341.264 595.656 344.421 597.192C347.578 598.643 350.138 600.648 352.101 603.208C354.064 605.768 355.514 608.797 356.453 612.296C357.392 615.709 357.861 619.379 357.861 623.304C357.861 627.229 357.264 631.069 356.069 634.824C354.874 638.493 353.168 641.736 350.949 644.552C348.816 647.368 346.128 649.672 342.885 651.464C339.728 653.171 336.144 654.024 332.133 654.024C328.122 654.024 324.453 653.085 321.125 651.208C317.882 649.331 315.322 646.515 313.445 642.76V683.08H323.685V686.536H291.685ZM313.445 620.36V631.624C313.445 633.501 313.829 635.507 314.597 637.64C315.365 639.773 316.432 641.693 317.797 643.4C319.162 645.107 320.784 646.557 322.661 647.752C324.624 648.861 326.757 649.416 329.061 649.416C331.621 649.416 333.882 648.776 335.845 647.496C337.808 646.131 339.429 644.339 340.709 642.12C342.074 639.816 343.098 637.128 343.781 634.056C344.464 630.899 344.805 627.528 344.805 623.944C344.805 616.605 343.44 610.717 340.709 606.28C338.064 601.843 334.266 599.624 329.317 599.624C326.672 599.624 324.368 600.349 322.405 601.8C320.442 603.251 318.778 605.043 317.413 607.176C316.133 609.224 315.152 611.443 314.469 613.832C313.786 616.221 313.445 618.397 313.445 620.36ZM464.18 561.992H467.636V592.072H464.18C463.753 587.464 462.815 583.496 461.364 580.168C459.913 576.755 458.079 574.024 455.86 571.976C453.727 569.843 451.252 568.307 448.436 567.368C445.705 566.344 442.889 565.832 439.988 565.832C435.977 565.832 432.351 566.856 429.108 568.904C425.865 570.952 423.092 573.853 420.788 577.608C418.569 581.277 416.863 585.8 415.668 591.176C414.473 596.467 413.876 602.355 413.876 608.84C413.876 615.411 414.559 621.299 415.924 626.504C417.289 631.709 419.167 636.061 421.556 639.56C423.945 643.059 426.761 645.747 430.004 647.624C433.247 649.501 436.703 650.44 440.372 650.44C446.943 650.44 452.276 648.136 456.372 643.528C460.553 638.92 463.028 633.117 463.796 626.12H467.252V654.408H463.924L461.876 642.248C459.572 645.576 456.5 648.392 452.66 650.696C448.82 652.915 444.212 654.024 438.836 654.024C433.119 654.024 427.871 652.915 423.092 650.696C418.313 648.477 414.217 645.405 410.804 641.48C407.476 637.469 404.873 632.691 402.996 627.144C401.119 621.512 400.18 615.411 400.18 608.84C400.18 602.013 401.161 595.741 403.124 590.024C405.087 584.307 407.775 579.4 411.188 575.304C414.687 571.208 418.825 568.051 423.604 565.832C428.468 563.528 433.716 562.376 439.348 562.376C443.871 562.376 448.052 563.229 451.892 564.936C455.817 566.557 459.359 569.373 462.516 573.384L464.18 561.992ZM526.224 638.28L528.784 639.944C526.907 643.357 524.133 646.557 520.464 649.544C516.88 652.445 512.357 653.896 506.896 653.896C502.715 653.896 498.917 653.171 495.504 651.72C492.091 650.184 489.147 648.136 486.672 645.576C484.283 642.931 482.405 639.816 481.04 636.232C479.76 632.563 479.12 628.637 479.12 624.456C479.12 615.752 481.68 608.669 486.8 603.208C491.92 597.661 498.704 594.888 507.152 594.888C509.883 594.888 512.443 595.272 514.832 596.04C517.307 596.723 519.397 597.704 521.104 598.984C523.493 600.776 525.243 602.611 526.352 604.488C527.547 606.365 528.144 608.157 528.144 609.864C528.144 611.912 527.461 613.576 526.096 614.856C524.816 616.051 523.323 616.648 521.616 616.648C519.909 616.648 518.459 616.093 517.264 614.984C516.069 613.875 515.472 612.424 515.472 610.632C515.472 609.011 515.899 607.603 516.752 606.408C517.605 605.213 518.8 604.189 520.336 603.336C519.227 601.971 517.563 600.819 515.344 599.88C513.125 598.941 510.949 598.472 508.816 598.472C503.355 598.472 499.216 600.904 496.4 605.768C493.584 610.632 492.176 616.819 492.176 624.328C492.176 631.496 493.669 637.427 496.656 642.12C499.728 646.813 504.208 649.16 510.096 649.16C514.021 649.16 517.264 648.093 519.824 645.96C522.469 643.741 524.603 641.181 526.224 638.28ZM572.234 589.384H568.778V563.272H641.354V589.384H637.898L633.546 567.24H611.402V649.544H623.562V653H586.442V649.544H598.602V567.24H576.458L572.234 589.384ZM671.362 649.544V600.008H656.642L652.546 618.312H649.09V596.04H705.794V618.312H702.338L698.242 600.008H683.522V649.544H693.122V653H661.762V649.544H671.362ZM800.821 566.728V563.272H828.597V566.728L817.333 568.008L786.357 642.248C784.736 646.088 782.816 649.203 780.597 651.592C778.464 653.981 775.52 655.176 771.765 655.176C768.778 655.176 766.09 654.365 763.701 652.744C761.312 651.037 760.117 648.392 760.117 644.808C760.117 642.419 760.842 640.413 762.293 638.792C763.829 637.171 765.834 636.36 768.309 636.36C770.186 636.36 771.808 637 773.173 638.28C774.538 639.475 775.221 641.139 775.221 643.272C775.221 644.979 774.666 646.6 773.557 648.136C772.533 649.587 771.04 650.44 769.077 650.696C769.162 650.867 769.461 651.037 769.973 651.208C770.57 651.293 771.125 651.336 771.637 651.336C774.282 651.336 776.416 650.525 778.037 648.904C779.658 647.197 781.152 644.723 782.517 641.48L786.101 633.288L756.021 566.728H743.861V563.272H782.133V566.728H769.973L791.989 619.208L813.109 568.008L800.821 566.728ZM840.223 687.816C837.578 687.816 835.231 687.005 833.183 685.384C831.135 683.848 830.111 681.544 830.111 678.472C830.111 676.168 830.794 674.248 832.159 672.712C833.524 671.261 835.146 670.536 837.023 670.536C838.73 670.536 840.223 671.048 841.503 672.072C842.783 673.181 843.423 674.675 843.423 676.552C843.423 678.344 842.954 679.795 842.015 680.904C841.162 682.013 840.266 682.739 839.327 683.08C839.498 683.336 839.796 683.507 840.223 683.592C840.65 683.763 841.119 683.848 841.631 683.848C843.764 683.848 846.154 682.099 848.799 678.6C851.444 675.101 854.388 669.256 857.631 661.064L860.063 654.92L833.695 599.496H824.095V596.04H856.735V599.496H846.751L866.079 641.224L883.743 599.496H874.783V596.04H897.311V599.496H887.711L862.623 658.632C858.954 667.421 855.498 674.461 852.255 679.752C849.098 685.128 845.087 687.816 840.223 687.816ZM971.068 649.544V642.504H968.38C956.604 642.504 947.345 639.261 940.604 632.776C933.948 626.291 930.62 617.331 930.62 605.896C930.62 600.691 931.516 595.912 933.308 591.56C935.1 587.208 937.617 583.496 940.86 580.424C944.188 577.267 948.199 574.835 952.892 573.128C957.585 571.421 962.833 570.568 968.636 570.568H971.068V563.656H958.908V560.2H996.028V563.656H983.868V570.568H985.66C990.951 570.568 995.943 571.379 1000.64 573C1005.33 574.621 1009.43 576.968 1012.92 580.04C1016.42 583.027 1019.2 586.696 1021.24 591.048C1023.29 595.4 1024.32 600.264 1024.32 605.64C1024.32 611.699 1023.38 617.075 1021.5 621.768C1019.62 626.376 1016.98 630.216 1013.56 633.288C1010.24 636.36 1006.18 638.664 1001.4 640.2C996.711 641.736 991.591 642.504 986.044 642.504H983.868V649.544H996.028V653H958.908V649.544H971.068ZM944.06 606.792C944.06 611.315 944.572 615.539 945.596 619.464C946.62 623.389 948.156 626.76 950.204 629.576C952.252 632.392 954.897 634.611 958.14 636.232C961.468 637.853 965.351 638.664 969.788 638.664H971.068V574.28H969.66C960.785 574.28 954.3 577.267 950.204 583.24C946.108 589.213 944.06 597.064 944.06 606.792ZM985.404 574.28H983.868V638.664H985.66C989.585 638.664 993.084 637.853 996.156 636.232C999.313 634.611 1001.96 632.392 1004.09 629.576C1006.31 626.675 1007.97 623.261 1009.08 619.336C1010.28 615.411 1010.88 611.144 1010.88 606.536C1010.88 596.637 1008.61 588.787 1004.09 582.984C999.569 577.181 993.34 574.28 985.404 574.28ZM1065.47 686.536V683.08H1075.07V644.296C1073.45 647.197 1071.23 649.544 1068.42 651.336C1065.68 653.128 1062.36 654.024 1058.43 654.024C1054.42 654.024 1050.84 653.213 1047.68 651.592C1044.61 649.971 1042 647.837 1039.87 645.192C1037.74 642.461 1036.07 639.304 1034.88 635.72C1033.77 632.051 1033.22 628.211 1033.22 624.2C1033.22 620.275 1033.73 616.563 1034.75 613.064C1035.86 609.48 1037.44 606.365 1039.49 603.72C1041.54 600.989 1044.05 598.856 1047.04 597.32C1050.11 595.699 1053.52 594.888 1057.28 594.888C1061.2 594.888 1064.62 595.613 1067.52 597.064C1070.42 598.429 1072.94 600.861 1075.07 604.36V566.088H1065.47V562.632H1075.07L1087.23 560.968V604.36C1088.68 601.715 1090.73 599.496 1093.38 597.704C1096.02 595.827 1099.48 594.888 1103.74 594.888C1108.01 594.888 1111.72 595.699 1114.88 597.32C1118.04 598.856 1120.64 600.947 1122.69 603.592C1124.82 606.152 1126.4 609.181 1127.42 612.68C1128.53 616.093 1129.09 619.635 1129.09 623.304C1129.09 627.485 1128.49 631.453 1127.3 635.208C1126.1 638.963 1124.35 642.248 1122.05 645.064C1119.83 647.795 1117.1 649.971 1113.86 651.592C1110.7 653.213 1107.16 654.024 1103.23 654.024C1099.82 654.024 1096.58 653.213 1093.5 651.592C1090.52 649.885 1088.43 647.539 1087.23 644.552V683.08H1096.83V686.536H1065.47ZM1087.23 615.624V635.72C1087.23 637.171 1087.53 638.707 1088.13 640.328C1088.81 641.864 1089.71 643.272 1090.82 644.552C1092.01 645.747 1093.42 646.771 1095.04 647.624C1096.66 648.392 1098.45 648.776 1100.42 648.776C1105.19 648.776 1109.03 646.515 1111.94 641.992C1114.84 637.469 1116.29 631.24 1116.29 623.304C1116.29 615.368 1114.71 609.48 1111.55 605.64C1108.39 601.715 1104.72 599.752 1100.54 599.752C1096.62 599.752 1093.42 601.331 1090.94 604.488C1088.47 607.56 1087.23 611.272 1087.23 615.624ZM1061.38 648.648C1064.79 648.648 1067.9 647.368 1070.72 644.808C1073.62 642.248 1075.07 639.133 1075.07 635.464V615.368C1075.07 611.016 1073.66 607.347 1070.85 604.36C1068.12 601.288 1064.7 599.752 1060.61 599.752C1055.83 599.752 1052.2 602.013 1049.73 606.536C1047.25 610.973 1046.02 616.861 1046.02 624.2C1046.02 631.965 1047.47 637.981 1050.37 642.248C1053.27 646.515 1056.94 648.648 1061.38 648.648ZM33.152 836.544V840H4.736V836.544L16.896 835.264L40.704 797.888L14.72 753.728H2.56V750.272H41.344V753.728H29.184L49.152 787.648L68.736 755.008L56.448 753.728V750.272H85.376V753.728L73.216 755.008L51.2 791.104L78.08 836.544H90.24V840H51.456V836.544H63.616L42.88 801.472L20.992 835.264L33.152 836.544ZM131.576 840V836.544H141.048L126.84 817.216L111.352 836.544H119.928V840H97.272V836.544H106.872L124.664 814.272L104.44 786.496H94.84V783.04H126.968V786.496H118.008L132.088 805.824L147.448 786.496H137.848V783.04H161.528V786.496H151.928L134.264 808.768L154.616 836.544H163.96V840H131.576ZM295.938 865.344L292.482 865.472L288.002 840H203.65V836.544H215.81V753.728H203.65V750.272H240.77V753.728H228.61V836.544H269.442V753.728H257.282V750.272H294.402V753.728H282.242V836.544H295.938V865.344ZM374.231 858.048H370.775L366.039 840H305.495V836.544H315.095V786.496H305.495V783.04H336.215V786.496H327.255V836.544H352.215V786.496H343.255V783.04H373.975V786.496H364.375V836.544H374.231V858.048ZM503.693 753.728H491.533V836.544H503.693V840H466.573V836.544H478.733V798.656C476.088 800.021 472.802 801.301 468.877 802.496C465.037 803.605 460.514 804.16 455.309 804.16C446.264 804.16 439.437 801.813 434.829 797.12C430.306 792.341 428.045 785.515 428.045 776.64V753.728H415.885V750.272H453.005V753.728H440.845V778.56C440.845 785.387 442.296 790.72 445.197 794.56C448.098 798.315 452.877 800.192 459.533 800.192C463.373 800.192 466.786 799.765 469.773 798.912C472.76 797.973 475.746 796.693 478.733 795.072V753.728H466.573V750.272H503.693V753.728ZM577.245 783.04V786.496H567.645V836.544H577.245V840H545.885V836.544H555.485V813.504C555.485 813.504 555.101 813.76 554.333 814.272C553.565 814.699 552.498 815.211 551.133 815.808C549.768 816.405 548.146 816.96 546.269 817.472C544.392 817.899 542.344 818.112 540.125 818.112C532.701 818.112 527.325 816.448 523.997 813.12C520.754 809.707 519.133 804.715 519.133 798.144V786.496H509.533V783.04H540.253V786.496H531.293V799.808C531.293 804.587 532.232 808.085 534.109 810.304C535.986 812.437 538.93 813.504 542.941 813.504C546.61 813.504 549.597 812.949 551.901 811.84C554.29 810.645 555.485 810.048 555.485 810.048V786.496H546.525V783.04H577.245ZM745.251 753.728H733.091V836.544H745.251V840H618.275V836.544H630.435V753.728H618.275V750.272H655.395V753.728H643.235V836.544H675.363V753.728H663.203V750.272H700.323V753.728H688.163V836.544H720.291V753.728H708.131V750.272H745.251V753.728ZM855.35 783.04V786.496H845.75V836.544H855.35V840H754.87V836.544H764.47V786.496H754.87V783.04H785.59V786.496H776.63V836.544H799.03V786.496H790.07V783.04H820.15V786.496H811.19V836.544H833.59V786.496H824.63V783.04H855.35ZM1024.91 865.344H1021.46L1016.98 840H896.4V836.544H908.56V753.728H896.4V750.272H933.52V753.728H921.36V836.544H953.488V753.728H941.328V750.272H978.448V753.728H966.288V836.544H998.416V753.728H986.256V750.272H1023.38V753.728H1011.22V836.544H1024.91V865.344ZM1135.23 858.688H1131.78L1127.04 840H1034.5V836.544H1044.1V786.496H1034.5V783.04H1065.22V786.496H1056.26V836.544H1078.66V786.496H1069.7V783.04H1099.78V786.496H1090.82V836.544H1113.22V786.496H1104.26V783.04H1134.98V786.496H1125.38V836.544H1135.23V858.688ZM33.664 940.728H15.36L11.008 963.512H7.68V937.272H58.624V940.728H46.464V976.952C48.3413 976.611 50.304 976.355 52.352 976.184C54.4 976.013 56.3627 975.928 58.24 975.928C69.1627 975.928 77.3973 977.805 82.944 981.56C88.576 985.315 91.392 991.331 91.392 999.608C91.392 1004.13 90.5813 1008.14 88.96 1011.64C87.3387 1015.05 85.12 1017.91 82.304 1020.22C79.488 1022.43 76.1173 1024.14 72.192 1025.34C68.352 1026.45 64.256 1027 59.904 1027H21.504V1023.54H33.664V940.728ZM46.464 1023.54H58.24C65.0667 1023.54 70.016 1021.28 73.088 1016.76C76.2453 1012.15 77.824 1006.52 77.824 999.864C77.824 993.72 76.288 988.813 73.216 985.144C70.144 981.389 65.152 979.512 58.24 979.512C56.1067 979.512 53.9733 979.64 51.84 979.896C49.792 980.067 48 980.323 46.464 980.664V1023.54ZM140.562 970.04V973.496H130.962V995.128C132.669 994.787 134.418 994.531 136.21 994.36C138.002 994.189 140.007 994.104 142.226 994.104C149.138 994.104 154.642 995.384 158.738 997.944C162.834 1000.5 164.882 1004.34 164.882 1009.46C164.882 1014.84 162.962 1019.11 159.122 1022.26C155.367 1025.42 150.034 1027 143.122 1027H109.202V1023.54H118.802V973.496H107.41L102.546 991.928H99.09V970.04H140.562ZM130.962 998.712V1023.54H139.154C143.591 1023.54 146.834 1022.26 148.882 1019.7C151.015 1017.06 152.082 1013.77 152.082 1009.85C152.082 1005.58 150.93 1002.47 148.626 1000.5C146.407 998.541 143.506 997.56 139.922 997.56C138.301 997.56 136.807 997.688 135.442 997.944C134.077 998.115 132.583 998.371 130.962 998.712ZM215.929 940.728H204.025V937.272H240.633V940.728H228.729V976.952C230.606 976.611 232.526 976.355 234.489 976.184C236.537 976.013 238.414 975.928 240.121 975.928C250.361 975.928 258.297 977.933 263.929 981.944C269.561 985.955 272.377 992.013 272.377 1000.12C272.377 1008.91 269.39 1015.61 263.417 1020.22C257.444 1024.74 249.55 1027 239.737 1027H204.025V1023.54H215.929V940.728ZM228.729 1023.54H240.121C243.534 1023.54 246.436 1022.95 248.825 1021.75C251.214 1020.56 253.134 1018.94 254.585 1016.89C256.036 1014.75 257.102 1012.32 257.785 1009.59C258.468 1006.78 258.809 1003.83 258.809 1000.76C258.809 994.616 257.316 989.539 254.329 985.528C251.342 981.517 246.35 979.512 239.353 979.512C237.561 979.512 235.812 979.64 234.105 979.896C232.398 980.067 230.606 980.323 228.729 980.664V1023.54ZM310.905 940.728H298.745V1023.54H310.905V1027H273.785V1023.54H285.945V940.728H273.785V937.272H310.905V940.728ZM398.191 973.496V1023.54H407.151V1027H376.431V1023.54H386.031V973.496H376.431V970.04H407.151V973.496H398.191ZM351.855 970.04V973.496H342.255V995.512C343.962 995.171 345.668 994.915 347.375 994.744C349.167 994.573 351.13 994.488 353.263 994.488C359.919 994.488 365.167 995.768 369.007 998.328C372.932 1000.89 374.895 1004.64 374.895 1009.59C374.895 1014.97 372.932 1019.23 369.007 1022.39C365.167 1025.46 360.303 1027 354.415 1027H320.495V1023.54H330.095V973.496H320.495V970.04H351.855ZM342.255 998.968V1023.54H350.447C354.884 1023.54 357.914 1022.22 359.535 1019.58C361.242 1016.85 362.095 1013.65 362.095 1009.98C362.095 1006.22 361.071 1003.28 359.023 1001.14C356.975 999.011 354.116 997.944 350.447 997.944C349.252 997.944 347.972 998.029 346.607 998.2C345.327 998.371 343.876 998.627 342.255 998.968ZM460.31 940.728H448.15V937.272H485.27V940.728H473.11V976.952C474.817 976.696 476.737 976.483 478.87 976.312C481.089 976.056 483.393 975.928 485.782 975.928C495.937 975.928 503.83 977.805 509.462 981.56C515.179 985.315 518.038 991.331 518.038 999.608C518.038 1004.13 517.227 1008.14 515.606 1011.64C513.985 1015.05 511.766 1017.91 508.95 1020.22C506.134 1022.43 502.763 1024.14 498.838 1025.34C494.998 1026.45 490.902 1027 486.55 1027H448.15V1023.54H460.31V940.728ZM473.11 1023.54H484.886C491.713 1023.54 496.662 1021.28 499.734 1016.76C502.891 1012.15 504.47 1006.52 504.47 999.864C504.47 993.72 502.934 988.813 499.862 985.144C496.79 981.389 491.798 979.512 484.886 979.512C482.923 979.512 480.875 979.64 478.742 979.896C476.609 980.067 474.731 980.323 473.11 980.664V1023.54ZM559.605 970.04V973.496H550.005V995.512C551.712 995.171 553.461 994.915 555.253 994.744C557.045 994.573 559.05 994.488 561.269 994.488C568.181 994.488 573.685 995.768 577.781 998.328C581.877 1000.89 583.925 1004.64 583.925 1009.59C583.925 1014.97 582.005 1019.23 578.165 1022.39C574.41 1025.46 569.077 1027 562.165 1027H528.245V1023.54H537.845V973.496H528.245V970.04H559.605ZM550.005 999.096V1023.54H558.197C562.634 1023.54 565.877 1022.22 567.925 1019.58C570.058 1016.85 571.125 1013.65 571.125 1009.98C571.125 1006.65 570.229 1003.83 568.437 1001.53C566.645 999.139 563.488 997.944 558.965 997.944C557.344 997.944 555.85 998.072 554.485 998.328C553.12 998.499 551.626 998.755 550.005 999.096ZM641.969 984.632V980.664H678.449C678.449 967.181 676.102 957.069 671.409 950.328C666.716 943.501 660.7 940.088 653.361 940.088C650.63 940.088 647.942 940.6 645.297 941.624C642.652 942.648 640.262 944.227 638.129 946.36C635.996 948.493 634.161 951.224 632.625 954.552C631.174 957.88 630.236 961.805 629.809 966.328H625.969V936.248H629.809L631.089 949.048C634.161 944.867 637.574 941.709 641.329 939.576C645.169 937.357 649.777 936.248 655.153 936.248C660.529 936.248 665.478 937.272 670.001 939.32C674.609 941.283 678.492 944.141 681.649 947.896C684.892 951.651 687.409 956.344 689.201 961.976C690.993 967.523 691.889 973.837 691.889 980.92C691.889 986.979 691.078 992.867 689.457 998.584C687.921 1004.22 685.617 1009.21 682.545 1013.56C679.473 1017.91 675.59 1021.41 670.897 1024.06C666.289 1026.7 660.956 1028.02 654.897 1028.02C651.74 1028.02 648.838 1027.64 646.193 1026.87C643.633 1026.1 641.372 1025.12 639.409 1023.93C637.446 1022.65 635.74 1021.28 634.289 1019.83C632.838 1018.3 631.686 1016.85 630.833 1015.48L629.425 1028.02H625.585V999.864L629.425 999.736C629.766 1003.23 630.662 1006.52 632.113 1009.59C633.564 1012.58 635.356 1015.14 637.489 1017.27C639.708 1019.41 642.225 1021.11 645.041 1022.39C647.857 1023.59 650.758 1024.18 653.745 1024.18C660.742 1024.18 666.502 1020.86 671.025 1014.2C675.633 1007.46 678.108 997.603 678.449 984.632H641.969ZM705.448 989.752H701.992V968.888H705.448L707.624 974.904C709.075 973.197 711.123 971.789 713.768 970.68C716.413 969.485 719.315 968.888 722.472 968.888C726.312 968.888 729.896 969.485 733.224 970.68C736.637 971.789 739.539 973.496 741.928 975.8C744.403 978.104 746.323 981.091 747.688 984.76C749.139 988.344 749.864 992.568 749.864 997.432C749.864 1001.87 749.139 1005.97 747.688 1009.72C746.323 1013.47 744.36 1016.72 741.8 1019.45C739.325 1022.18 736.296 1024.31 732.712 1025.85C729.213 1027.3 725.373 1028.02 721.192 1028.02C715.304 1028.02 710.525 1026.74 706.856 1024.18C703.272 1021.54 701.48 1018.47 701.48 1014.97C701.48 1013.18 702.077 1011.55 703.272 1010.1C704.467 1008.65 706.045 1007.93 708.008 1007.93C709.971 1007.93 711.507 1008.53 712.616 1009.72C713.811 1010.83 714.408 1012.28 714.408 1014.07C714.408 1015.61 713.981 1017.06 713.128 1018.42C712.275 1019.79 711.037 1020.69 709.416 1021.11C710.44 1022.22 711.805 1023.12 713.512 1023.8C715.304 1024.4 717.267 1024.7 719.4 1024.7C724.776 1024.7 729.043 1022.43 732.2 1017.91C735.443 1013.3 737.064 1007.12 737.064 999.352H716.2V995.896H737.064C737.064 988.557 735.613 982.84 732.712 978.744C729.811 974.563 725.885 972.472 720.936 972.472C716.072 972.472 712.445 974.136 710.056 977.464C707.667 980.707 706.131 984.803 705.448 989.752ZM869.62 1028.02C863.391 1028.02 857.887 1026.91 853.108 1024.7C848.415 1022.39 844.447 1019.23 841.204 1015.22C838.047 1011.21 835.615 1006.43 833.908 1000.89C832.287 995.341 831.391 989.325 831.22 982.84H815.86V1023.54H828.02V1027H790.9V1023.54H803.06V940.728H790.9V937.272H828.02V940.728H815.86V979.384H831.348C831.689 973.667 832.713 968.205 834.42 963C836.127 957.709 838.516 953.144 841.588 949.304C844.745 945.379 848.628 942.264 853.236 939.96C857.929 937.571 863.391 936.376 869.62 936.376C876.02 936.376 881.652 937.656 886.516 940.216C891.38 942.776 895.391 946.189 898.548 950.456C901.791 954.723 904.223 959.629 905.844 965.176C907.465 970.723 908.276 976.44 908.276 982.328C908.276 988.216 907.423 993.933 905.716 999.48C904.095 1005.03 901.62 1009.89 898.292 1014.07C895.049 1018.25 890.996 1021.62 886.132 1024.18C881.353 1026.74 875.849 1028.02 869.62 1028.02ZM869.62 939.576C865.524 939.576 861.983 940.771 858.996 943.16C856.009 945.464 853.535 948.621 851.572 952.632C849.695 956.557 848.287 961.165 847.348 966.456C846.409 971.661 845.94 977.08 845.94 982.712C845.94 988.344 846.409 993.763 847.348 998.968C848.372 1004.09 849.865 1008.57 851.828 1012.41C853.791 1016.25 856.265 1019.32 859.252 1021.62C862.239 1023.84 865.695 1024.95 869.62 1024.95C873.545 1024.95 877.001 1023.84 879.988 1021.62C882.975 1019.32 885.449 1016.25 887.412 1012.41C889.46 1008.57 890.996 1004.09 892.02 998.968C893.044 993.763 893.556 988.344 893.556 982.712C893.556 977.08 893.087 971.661 892.148 966.456C891.209 961.165 889.759 956.557 887.796 952.632C885.833 948.621 883.316 945.464 880.244 943.16C877.257 940.771 873.716 939.576 869.62 939.576ZM980.188 968.888C984.711 968.888 988.721 969.741 992.22 971.448C995.804 973.069 998.833 975.245 1001.31 977.976C1003.78 980.707 1005.66 983.864 1006.94 987.448C1008.22 990.947 1008.86 994.531 1008.86 998.2C1008.86 1001.95 1008.18 1005.62 1006.81 1009.21C1005.45 1012.79 1003.48 1015.99 1000.92 1018.81C998.449 1021.62 995.377 1023.89 991.708 1025.59C988.124 1027.3 984.156 1028.15 979.804 1028.15C975.537 1028.15 971.697 1027.47 968.284 1026.1C964.871 1024.65 961.969 1022.73 959.58 1020.34C957.191 1017.87 955.271 1014.93 953.82 1011.51C952.455 1008.1 951.687 1004.43 951.516 1000.5H940.38V1023.54H949.98V1027H918.62V1023.54H928.22V973.496H918.62V970.04H949.98V973.496H940.38V997.048H951.516C951.601 993.208 952.327 989.581 953.692 986.168C955.057 982.755 956.977 979.768 959.452 977.208C961.927 974.648 964.913 972.643 968.412 971.192C971.911 969.656 975.836 968.888 980.188 968.888ZM979.804 1024.7C982.193 1024.7 984.327 1023.97 986.204 1022.52C988.167 1020.98 989.831 1019.02 991.196 1016.63C992.561 1014.16 993.628 1011.34 994.396 1008.18C995.164 1005.03 995.548 1001.78 995.548 998.456C995.548 995.043 995.164 991.757 994.396 988.6C993.713 985.443 992.689 982.669 991.324 980.28C990.044 977.891 988.423 975.971 986.46 974.52C984.583 973.069 982.407 972.344 979.932 972.344C977.457 972.344 975.239 973.069 973.276 974.52C971.399 975.971 969.82 977.933 968.54 980.408C967.26 982.797 966.279 985.571 965.596 988.728C964.913 991.885 964.572 995.128 964.572 998.456C964.572 1001.95 964.913 1005.33 965.596 1008.57C966.279 1011.73 967.26 1014.5 968.54 1016.89C969.905 1019.28 971.527 1021.2 973.404 1022.65C975.281 1024.01 977.415 1024.7 979.804 1024.7ZM26.112 1202.86C25.2587 1206.7 23.5947 1209.52 21.12 1211.31C18.7307 1213.1 14.8907 1214 9.6 1214H0.896V1210.54H3.328C6.4 1210.54 8.576 1209.99 9.856 1208.88C11.2213 1207.69 12.2027 1205.94 12.8 1203.63C13.6533 1200.22 14.3787 1197.1 14.976 1194.29C15.5733 1191.47 16.3413 1187.89 17.28 1183.54C18.1333 1179.35 20.2667 1176.03 23.68 1173.55C27.0933 1171.08 31.9573 1169.8 38.272 1169.71V1169.2C35.2 1168.69 32.2133 1167.92 29.312 1166.9C26.496 1165.79 23.9787 1164.38 21.76 1162.67C19.6267 1160.88 17.92 1158.7 16.64 1156.14C15.36 1153.5 14.72 1150.47 14.72 1147.06C14.72 1143.3 15.488 1140.02 17.024 1137.2C18.56 1134.3 20.6507 1131.91 23.296 1130.03C25.9413 1128.15 29.0133 1126.75 32.512 1125.81C36.096 1124.78 39.8507 1124.27 43.776 1124.27H81.92V1127.73H69.76V1210.54H81.92V1214H44.16V1210.54H56.96V1171.25H46.976C40.9173 1171.25 36.864 1172.1 34.816 1173.81C32.768 1175.43 31.2747 1178.42 30.336 1182.77C29.056 1188.66 28.1173 1193.09 27.52 1196.08C26.9227 1198.98 26.4533 1201.24 26.112 1202.86ZM46.976 1167.79H56.96V1127.73H47.744C42.1973 1127.73 37.5467 1129.43 33.792 1132.85C30.0373 1136.18 28.16 1140.91 28.16 1147.06C28.16 1153.8 29.952 1158.96 33.536 1162.54C37.12 1166.04 41.6 1167.79 46.976 1167.79ZM151.277 1157.04V1160.5H141.677V1210.54H151.277V1214H119.917V1210.54H129.517V1188.14H121.709C118.722 1188.14 116.589 1188.83 115.309 1190.19C114.114 1191.56 113.218 1193.69 112.621 1196.59L110.701 1206.7C110.36 1208.67 109.336 1210.37 107.629 1211.82C105.922 1213.27 103.405 1214 100.077 1214H88.173V1210.54H92.141C94.189 1210.54 95.725 1210.12 96.749 1209.26C97.8583 1208.41 98.5837 1207.22 98.925 1205.68L100.589 1197.49C101.186 1194.33 102.381 1191.81 104.173 1189.94C106.05 1188.06 109.506 1186.82 114.541 1186.22V1185.71C109.08 1185.37 104.898 1183.96 101.997 1181.49C99.0957 1179.01 97.645 1176.07 97.645 1172.66C97.645 1168.05 99.565 1164.29 103.405 1161.39C107.245 1158.49 112.621 1157.04 119.533 1157.04H151.277ZM129.517 1160.5H122.989C118.296 1160.5 115.01 1161.69 113.133 1164.08C111.256 1166.47 110.317 1169.33 110.317 1172.66C110.317 1176.33 111.341 1179.27 113.389 1181.49C115.437 1183.62 118.552 1184.69 122.733 1184.69H129.517V1160.5Z" fill="black"/>
</svg>
