<svg width="672" height="1597" viewBox="0 0 672 1597" fill="none" xmlns="http://www.w3.org/2000/svg">
<path d="M339 1145.24C342.8 1146.32 346.641 1147.43 350.5 1148.58M350.5 1148.58L339 1173.34L324.995 1202.84L315.5 1222.84C223.5 1256.04 129.167 1183.67 93.5 1143.34L112.5 1103.34C66.9 1092.14 19.1667 1025 1 992.837C52.6667 960.67 161.1 887.337 181.5 851.337C201.9 815.337 273.374 757.003 306.56 732.337C310.638 573.109 321.812 536.689 328 523.837C333.2 513.037 333.833 397.67 333.5 341.337C334.667 322.337 347.9 281.537 391.5 270.337C435.1 259.137 438 212.003 434 189.837C431 186.837 423 177.837 415 165.837C407 153.837 403 111.837 402 92.3367C394.8 86.3367 394 62.5033 394.5 51.3367C397.333 36.5034 412 5.83673 448 1.83673C493 -3.16327 524 15.8367 524.5 16.8367C554.1 29.2367 552.833 72.3367 548.5 92.3367C553.7 103.137 544.667 123.837 539.5 132.837C544.7 130.437 550.667 139.17 553 143.837C556 149.503 558.6 163.137 545 172.337C531.4 181.537 520 174.503 516 169.837C514.4 172.237 514 202.17 514 216.837C511 267.837 537.5 287.337 551.5 289.837C562.7 291.837 581.833 302.337 590 307.337L606.5 346.837C611.5 358.337 618.5 393.637 606.5 442.837C594.5 492.037 611.5 561.003 621.5 589.337C625.667 635.337 634.1 741.737 634.5 799.337C634.9 856.937 659.333 1005.34 671.5 1072.34C669.9 1087.14 639.833 1108.5 625 1117.34L642.5 1169.34C627.7 1190.54 562 1213.84 531 1222.84C527 1243.24 526.333 1322.67 526.5 1359.84L531 1396.84L538 1417.84L567.5 1435.84C577.9 1438.24 581.5 1448.84 582 1453.84C575.6 1466.64 563 1471.17 557.5 1471.84L536 1467.84V1499.84C529.6 1504.24 522 1523 519 1531.84C515 1547.5 501.3 1581.44 478.5 1591.84C455.7 1602.24 441.667 1592.5 437.5 1586.34L434.5 1575.34L437.5 1567.34L455 1535.34C461 1514.14 470.833 1500.84 475 1496.84L486.5 1456.34L447.5 1453.84C420.3 1455.84 414.167 1442.67 414.5 1435.84V1387.34V1340.84C408.1 1312.04 406.833 1212.81 407 1166.79C389.921 1160.89 369.995 1154.36 350.5 1148.58ZM377.5 598.837C382.5 586.837 391 558.137 385 539.337C387.292 518.364 392.342 479.755 398.525 448.837C421.35 473.337 465 528.037 457 550.837C449 573.637 436 588.003 430.5 592.337C411.167 614.503 368.6 665.737 353 693.337L346.529 704.837C357.332 656.349 370.532 604.132 377.5 598.837ZM495.5 1396.84C491.1 1369.24 480 1314.67 475 1290.84C473.594 1286.58 471.699 1280.61 469.487 1273.34L459.5 1335.84C459.5 1348.34 460.3 1373.74 463.5 1375.34L485.5 1394.34L496.052 1400.84C495.898 1399.51 495.714 1398.18 495.5 1396.84Z" stroke="black"/>
</svg>
