<svg width="1298" height="1649" viewBox="0 0 1298 1649" fill="none" xmlns="http://www.w3.org/2000/svg">
<path d="M555 1648.5H533.5H524C512.334 1631 488.8 1586.5 488 1548.5C487.2 1510.5 494 1465.33 497.5 1447.5L506.5 1421.5L510 1362.5V1308L508.5 1244.5L506.5 1189C504.667 1174.83 499 1143 491 1129C481 1111.5 471.5 1088 466 1057L459 1032.5L439 974L421 910.5L399.5 904.5L379 910.5L353 904.5H314.5L280.5 919L234 929.5H219.5C219.333 922.5 215.4 910.6 201 919C200 911.667 194.8 899.7 182 910.5L188 895.5V887L251.5 845L329 780C339.667 767.167 365.9 737.2 385.5 720L383 684V646.5L379.5 591.5L377 564L375 531.5L379.5 502.5C381.833 498.833 385.8 488.9 383 478.5C379.5 465.5 372 446 394.5 421.5C412.5 401.9 412.333 374 410 362.5L390 340C355.167 309.167 281.7 240.4 266.5 212L237 189L207 138.5L174.5 83L161.5 61.5C156.667 52.3333 142.1 38.1 122.5 54.5L93 59L77.5 61.5L63 66.5H55L50.5 59L39 61.5L22 59V51L55 20.5L45 16L12 13L1 9L6 1H37L76 2L118.5 6.5H156L167 10.5L226.5 78C247.5 96 292.4 139.6 304 170C315.6 200.4 368.833 243.333 394 261C419.667 275.833 474.2 309.5 487 325.5C499.8 341.5 526 324.5 537.5 314L550 289.5L554.5 264V254.5L527 236C522.333 230.833 516.7 218.2 531.5 209L537.5 202V197L545 193.5V188L550 184.5H554.5L552.5 165L554.5 160.5H595.5L599.5 152.5L623 138.5L653 132.5C675.5 137.167 730.5 157.9 732.5 193.5C736.667 205 737.7 232.7 720.5 247.5C730 257.333 739.8 278.3 717 289.5C688.5 303.5 654.5 291 662.5 273.5C651.167 277 643.6 279.7 624 268.5L616.5 297V349L634 385C652.833 391.667 693.8 420.9 707 484.5L729 509.5L748.5 538L759 491L765.5 418L748.5 409L720.5 416L709 413L717 404.5L729 397.5L709 385H690.5L665.5 388L658.5 385L661.5 376.5L671 370.5L661.5 365.5L665.5 357.5L674 360L686.5 355L682.5 351.5H671L674 344.5L706 343H729L752.5 355L806.5 400V474L809.5 532.5L801 571L798 617L780 624C763.167 622.667 725 615.7 707 598.5C689 581.3 658.167 535 645 514C637.667 501.333 620.8 480.2 612 497C603.2 513.8 568.667 538.667 552.5 549L524.5 581L526 600.5L528 616L545 631L568.5 648.5C612.833 648 710.9 651.4 748.5 669C786.1 686.6 822.833 700 836.5 704.5L832 725C825 727.5 813.1 734.6 821.5 743C814.667 745.667 803.6 753.2 814 762L811.5 775L798 778.5L785 794L775.5 812.5H756.5L743 820.5L737.5 830L827.5 913.5L850 925.5C887.333 940.333 966 977.4 982 1007L1024.5 1046L1069.5 1083.5L1111 1118L1133 1129.5L1150 1134C1169.5 1136.17 1214.5 1143.7 1238.5 1156.5C1262.5 1169.3 1287.17 1189.17 1296.5 1197.5L1284.5 1237.5H1225L1195.5 1234.5L1165 1223L1115 1197.5L1087 1169.5L1062 1147L959 1093L897 1060.5L860.5 1028C853.167 1021.33 832.2 1008.6 807 1011L782.5 999.5L737.5 972L673.5 934.5L573.5 875.5H557L567.5 1007L570.5 1089L585 1134C594.333 1174 607.4 1269.6 585 1332C562.6 1394.4 564 1435 567.5 1447.5L580 1465C592.5 1469.5 612.8 1486.3 594 1517.5L570.5 1531.5L555 1548.5V1603V1644" stroke="black"/>
</svg>
