<svg width="1056" height="1434" viewBox="0 0 1056 1434" fill="none" xmlns="http://www.w3.org/2000/svg">
<path d="M1037.66 1282.28L1053.11 1274.78C1060.61 1264.22 1044.33 1125.13 1035.26 1056.91L1016.65 943.505C1001.46 900.816 968.361 811.818 957.475 797.348C946.588 782.877 920.516 705.573 908.841 668.729C907.701 649.938 896.034 601.077 858.479 555.966C820.924 510.856 789.035 496.918 777.785 495.587L782.515 485.577C793.575 490.731 802.706 494.959 804.922 495.914C809.813 498.021 835.11 512.154 847.147 518.957L854.346 516.483C866.422 500.24 868.964 479.103 868.726 470.565L864.877 450.033L855.562 415.608C846.936 383.547 829.111 344.274 821.276 328.645L814.318 311.149C813.888 304.315 809.468 280.158 795.226 238.197C780.984 196.235 739.477 190.068 720.504 192.229C707.884 191.223 673.949 188.493 639.162 185.615C604.375 182.738 593.346 148.872 592.181 132.3L595.339 125.168L604.043 125.273L611.81 118.197C629.3 94.6446 614.467 67.6986 604.864 57.1696L593.174 49.8589L583.927 52.3081C584.797 50.9529 579.64 42.6284 552.053 20.172C524.466 -2.28443 491.196 -0.70519 478.009 2.89148C468.925 6.02547 448.261 15.3361 438.282 27.5069C428.303 39.6778 427.268 63.2232 427.998 73.4745L431.015 78.12C429.07 103.498 434.222 123.567 437.042 130.43C440.584 133.887 447.556 141.823 447.097 145.915C446.638 150.006 452.215 160.316 455.06 164.96L465.634 179.939L481.783 199.594L489.852 209.934C492.616 218.571 498.406 222.499 500.956 223.383L508.636 223.476L508.605 226.036L497.137 242.798L473.696 275.804L446.695 306.718L431.704 318.316L422.26 337.151C418.924 376.033 444.685 416.802 457.983 432.326L462.936 446.213L477.852 483.266L493.799 519.819C458.089 525.534 410.573 584.539 391.279 613.327C358.557 665.682 290.269 777.015 278.888 803.509C267.508 830.002 206.466 878.26 177.368 899.077L116.809 952.633C101.594 957.366 57.191 1013.03 36.8914 1040.27L53.1831 1048.15L47.9458 1057.81L65.644 1076.46L73.3858 1071.44L77.9013 1079.17L105.926 1090.78L91.2936 1115.18L105.55 1122.01L105.445 1130.72L124.364 1132.99L127.844 1141.74L148.509 1169.13L161.247 1174.41C161.208 1177.69 120.792 1216.94 100.589 1236.16L75.7228 1259.93L63.2062 1278.72L42.9045 1306.13L28.2906 1329L0.555346 1378.35L2.49233 1387.59L23.3242 1401.15L32.0284 1401.26C39.5873 1397.25 59.2934 1382.43 77.6469 1355.21C96.0004 1327.98 120.999 1327.22 131.205 1330.24L153.221 1330.51C194.67 1324.45 177.339 1298.02 163.492 1285.57C161.736 1261.37 179.433 1251.79 188.501 1250.02L224.853 1250.46L258.961 1267.26L273.13 1281.25L333.035 1281.98L363.244 1282.34L383.145 1288.21L394.699 1264.28L413.995 1277.83L447.726 1283.36L457.349 1292.18L484.911 1299.68L479.038 1319.59L494.874 1322.85L518.426 1323.13C513.526 1333.15 499.757 1359.58 483.881 1385.2C468.004 1410.82 486.823 1424.32 498.217 1427.88L680.461 1432.63L705.1 1427.81L705.377 1404.77C701.304 1402.84 681.502 1397.31 634.88 1390.6C588.259 1383.89 571.792 1356.55 569.386 1343.72L583.532 1317.26L596.764 1324.08L624.332 1331.07L635.88 1307.65L648.286 1298.07L678.494 1298.43L706.834 1283.92L719.967 1298.93L744.544 1299.23L794.776 1295.22L809.452 1309.74L843.873 1300.42L879.961 1280.37L908.214 1273.03L919.152 1257.8L932.883 1265.65L932.507 1296.88L954.647 1286.91L985.947 1281.65L1001.75 1287.48L1037.66 1282.28Z" stroke="black"/>
</svg>
