<svg width="1049" height="1413" viewBox="0 0 1049 1413" fill="none" xmlns="http://www.w3.org/2000/svg">
<path d="M20.736 47.248C23.296 47.248 25.1733 48.144 26.368 49.936C27.5627 51.728 28.16 53.6907 28.16 55.824C28.16 58.128 27.8613 60.816 27.264 63.888C26.6667 66.96 25.984 70.8427 25.216 75.536C24.448 80.2293 23.7653 86.032 23.168 92.944C22.5707 99.7707 22.272 108.091 22.272 117.904H18.944C18.944 107.92 18.6453 99.6 18.048 92.944C17.4507 86.288 16.768 80.6987 16 76.176C15.232 71.6533 14.5493 67.856 13.952 64.784C13.3547 61.712 13.056 58.7253 13.056 55.824C13.056 53.264 13.696 51.216 14.976 49.68C16.256 48.0587 18.176 47.248 20.736 47.248ZM13.056 131.472C13.056 129.168 13.7813 127.333 15.232 125.968C16.6827 124.603 18.4747 123.92 20.608 123.92C22.7413 123.92 24.5333 124.645 25.984 126.096C27.4347 127.547 28.16 129.339 28.16 131.472C28.16 133.776 27.392 135.611 25.856 136.976C24.4053 138.341 22.656 139.024 20.608 139.024C18.4747 139.024 16.6827 138.384 15.232 137.104C13.7813 135.739 13.056 133.861 13.056 131.472ZM83.265 139.024C80.705 139.024 78.785 138.256 77.505 136.72C76.225 135.099 75.585 133.008 75.585 130.448C75.585 127.547 75.8837 124.56 76.481 121.488C77.0783 118.416 77.761 114.619 78.529 110.096C79.297 105.573 79.9797 99.984 80.577 93.328C81.1743 86.672 81.473 78.352 81.473 68.368H84.801C84.801 78.1813 85.0997 86.544 85.697 93.456C86.2943 100.283 86.977 106.043 87.745 110.736C88.513 115.429 89.1957 119.312 89.793 122.384C90.3903 125.456 90.689 128.144 90.689 130.448C90.689 132.581 90.0917 134.544 88.897 136.336C87.7023 138.128 85.825 139.024 83.265 139.024ZM75.585 54.8C75.585 52.4107 76.3103 50.576 77.761 49.296C79.2117 47.9307 81.0037 47.248 83.137 47.248C85.185 47.248 86.9343 47.9307 88.385 49.296C89.921 50.6613 90.689 52.496 90.689 54.8C90.689 56.9333 89.9637 58.7253 88.513 60.176C87.0623 61.6267 85.2703 62.352 83.137 62.352C81.0037 62.352 79.2117 61.6693 77.761 60.304C76.3103 58.9387 75.585 57.104 75.585 54.8ZM157.442 118.416V88.72C164.439 88.6347 170.242 86.8427 174.85 83.344C179.543 79.8453 181.89 74.768 181.89 68.112C181.89 62.5653 180.354 58.256 177.282 55.184C174.21 52.112 169.986 50.576 164.61 50.576C161.623 50.576 158.637 51.1307 155.65 52.24C152.749 53.264 150.231 54.928 148.098 57.232C150.146 57.3173 151.725 57.9573 152.834 59.152C154.029 60.3467 154.626 61.7547 154.626 63.376C154.626 65.5093 153.943 67.216 152.578 68.496C151.213 69.6907 149.591 70.288 147.714 70.288C145.751 70.288 144.13 69.6907 142.85 68.496C141.57 67.216 140.93 65.3813 140.93 62.992C140.93 61.2 141.485 59.408 142.594 57.616C143.789 55.7387 145.41 54.0747 147.458 52.624C149.591 51.088 152.109 49.8507 155.01 48.912C157.911 47.888 161.111 47.376 164.61 47.376C172.034 47.376 178.093 49.3387 182.786 53.264C187.479 57.1893 189.826 63.376 189.826 71.824C189.826 75.408 189.058 78.864 187.522 82.192C185.986 85.52 183.895 88.5067 181.25 91.152C178.69 93.7973 175.618 96.016 172.034 97.808C168.535 99.5147 164.823 100.581 160.898 101.008V118.416H157.442ZM151.554 131.472C151.554 129.168 152.279 127.333 153.73 125.968C155.181 124.603 156.973 123.92 159.106 123.92C161.239 123.92 163.031 124.645 164.482 126.096C165.933 127.547 166.658 129.339 166.658 131.472C166.658 133.776 165.89 135.611 164.354 136.976C162.903 138.341 161.154 139.024 159.106 139.024C156.973 139.024 155.181 138.384 153.73 137.104C152.279 135.739 151.554 133.861 151.554 131.472ZM230.609 46.48L272.209 138.896H267.345L225.745 46.48H230.609ZM309.4 171.536V47.376H314.264V171.536H309.4ZM355.245 138.896L396.845 46.48H401.709L360.109 138.896H355.245ZM438.9 131.472C438.9 129.168 439.625 127.333 441.076 125.968C442.527 124.603 444.319 123.92 446.452 123.92C448.585 123.92 450.377 124.645 451.828 126.096C453.279 127.547 454.004 129.339 454.004 131.472C454.004 133.776 453.236 135.611 451.7 136.976C450.249 138.341 448.5 139.024 446.452 139.024C444.319 139.024 442.527 138.384 441.076 137.104C439.625 135.739 438.9 133.861 438.9 131.472ZM503.187 156.304L501.395 154.256C503.699 152.635 505.79 150.501 507.667 147.856C509.544 145.296 510.483 142.565 510.483 139.664C510.483 139.067 510.44 138.341 510.355 137.488C510.355 136.549 510.184 135.781 509.843 135.184C509.416 136.293 508.648 137.232 507.539 138C506.515 138.683 505.235 139.024 503.699 139.024C501.566 139.024 499.774 138.341 498.323 136.976C496.958 135.611 496.275 133.861 496.275 131.728C496.275 129.68 497.043 127.888 498.579 126.352C500.115 124.731 502.206 123.92 504.851 123.92C507.496 123.92 509.8 124.987 511.763 127.12C513.726 129.168 514.707 132.155 514.707 136.08C514.707 140.432 513.598 144.315 511.379 147.728C509.246 151.141 506.515 154 503.187 156.304ZM557.537 88.592C557.537 86.288 558.22 84.4533 559.585 83.088C561.036 81.7227 562.87 81.04 565.089 81.04C567.393 81.04 569.228 81.7653 570.593 83.216C571.958 84.6667 572.641 86.4587 572.641 88.592C572.641 90.896 571.958 92.7307 570.593 94.096C569.313 95.4613 567.478 96.144 565.089 96.144C562.7 96.144 560.822 95.504 559.457 94.224C558.177 92.8587 557.537 90.9813 557.537 88.592ZM563.937 156.304L562.145 154.256C564.449 152.635 566.54 150.501 568.417 147.856C570.294 145.296 571.233 142.565 571.233 139.664C571.233 139.067 571.19 138.341 571.105 137.488C571.105 136.549 570.934 135.781 570.593 135.184C570.166 136.293 569.398 137.232 568.289 138C567.265 138.683 565.985 139.024 564.449 139.024C562.316 139.024 560.524 138.341 559.073 136.976C557.708 135.611 557.025 133.861 557.025 131.728C557.025 129.68 557.793 127.888 559.329 126.352C560.865 124.731 562.956 123.92 565.601 123.92C568.246 123.92 570.55 124.987 572.513 127.12C574.476 129.168 575.457 132.155 575.457 136.08C575.457 140.432 574.348 144.315 572.129 147.728C569.996 151.141 567.265 154 563.937 156.304ZM650.543 46.224V49.68C646.362 51.6427 642.863 54.544 640.047 58.384C637.316 62.1387 635.098 66.6187 633.391 71.824C631.77 77.0293 630.618 82.832 629.935 89.232C629.252 95.632 628.911 102.373 628.911 109.456C628.911 124.816 630.447 137.659 633.519 147.984C636.591 158.309 642.266 165.947 650.543 170.896V174.352C639.108 168.635 630.575 160.357 624.943 149.52C619.311 138.683 616.495 125.371 616.495 109.584C616.495 103.013 617.22 96.4427 618.671 89.872C620.207 83.216 622.383 77.072 625.199 71.44C628.1 65.808 631.684 60.7733 635.951 56.336C640.218 51.8987 645.082 48.528 650.543 46.224ZM692.9 49.68V46.224C698.361 48.528 703.225 51.8987 707.492 56.336C711.759 60.7733 715.3 65.808 718.116 71.44C721.017 77.072 723.193 83.216 724.644 89.872C726.18 96.4427 726.948 103.013 726.948 109.584C726.948 116.923 726.223 123.92 724.772 130.576C723.407 137.147 721.316 143.163 718.5 148.624C715.769 154.171 712.228 159.12 707.876 163.472C703.609 167.824 698.617 171.451 692.9 174.352V170.896C701.177 165.947 706.852 158.139 709.924 147.472C712.996 136.805 714.532 124.133 714.532 109.456C714.532 102.373 714.191 95.632 713.508 89.232C712.825 82.832 711.631 77.0293 709.924 71.824C708.303 66.6187 706.084 62.1387 703.268 58.384C700.537 54.544 697.081 51.6427 692.9 49.68ZM794.521 49.808H782.361V170.896H794.521V174.352H771.865V46.352H794.521V49.808ZM851.59 49.808H839.43V46.352H862.086V174.352H839.43V170.896H851.59V49.808ZM952.563 46.224V49.68H948.211C944.115 49.68 941 50.7893 938.867 53.008C936.819 55.1413 935.795 58.6827 935.795 63.632V92.816C935.795 97.3387 934.6 101.221 932.211 104.464C929.907 107.707 925.811 110.011 919.923 111.376C926.152 112.656 930.334 114.363 932.467 116.496C934.686 118.629 935.795 122.043 935.795 126.736V153.232C935.795 155.024 935.966 156.944 936.307 158.992C936.648 161.125 937.246 163.045 938.099 164.752C939.038 166.544 940.318 167.995 941.939 169.104C943.56 170.299 945.608 170.896 948.083 170.896H952.563V174.352H948.211C943.432 174.352 939.464 173.84 936.307 172.816C933.235 171.792 930.76 170.427 928.883 168.72C927.091 167.099 925.811 165.179 925.043 162.96C924.36 160.827 924.019 158.651 924.019 156.432V125.712C924.019 121.531 923.208 118.459 921.587 116.496C920.051 114.448 917.406 113.424 913.651 113.424H912.115V109.584H913.651C917.406 109.584 920.051 108.56 921.587 106.512C923.208 104.379 924.019 101.008 924.019 96.4V70.16C924.019 62.1387 926.067 56.1653 930.163 52.24C934.344 48.2293 940.36 46.224 948.211 46.224H952.563ZM997.43 49.68V46.224H1001.78C1009.63 46.224 1015.61 48.2293 1019.7 52.24C1023.88 56.1653 1025.97 62.1387 1025.97 70.16V96.4C1025.97 101.008 1026.7 104.379 1028.15 106.512C1029.69 108.56 1031.99 109.584 1035.06 109.584H1037.88V113.424H1035.06C1031.73 113.424 1029.39 114.448 1028.02 116.496C1026.66 118.459 1025.97 121.531 1025.97 125.712V147.344C1025.97 155.963 1023.97 162.619 1019.96 167.312C1015.95 172.005 1009.89 174.352 1001.78 174.352H997.43V170.896H1001.91C1004.38 170.896 1006.43 170.299 1008.05 169.104C1009.68 167.995 1010.91 166.544 1011.77 164.752C1012.7 163.045 1013.34 161.125 1013.69 158.992C1014.03 156.944 1014.2 155.024 1014.2 153.232V130.576C1014.2 125.883 1015.31 121.701 1017.53 118.032C1019.74 114.277 1023.93 112.059 1030.07 111.376C1023.93 110.011 1019.74 107.707 1017.53 104.464C1015.31 101.221 1014.2 97.3387 1014.2 92.816V63.632C1014.2 58.6827 1013.13 55.1413 1011 53.008C1008.95 50.7893 1005.88 49.68 1001.78 49.68H997.43ZM23.936 325.896L68.096 233.48H72.96L28.8 325.896H23.936ZM25.856 234.248C31.5733 234.248 36.3093 235.997 40.064 239.496C43.904 242.995 45.824 247.987 45.824 254.472C45.824 257.203 45.3547 259.848 44.416 262.408C43.5627 264.883 42.24 267.059 40.448 268.936C38.7413 270.813 36.608 272.349 34.048 273.544C31.5733 274.653 28.7147 275.208 25.472 275.208C22.8267 275.208 20.224 274.739 17.664 273.8C15.104 272.861 12.8427 271.539 10.88 269.832C8.91733 268.04 7.296 265.907 6.016 263.432C4.82133 260.872 4.224 257.971 4.224 254.728C4.224 252.083 4.69333 249.523 5.632 247.048C6.656 244.573 8.064 242.397 9.856 240.52C11.7333 238.557 13.9947 237.021 16.64 235.912C19.3707 234.803 22.4427 234.248 25.856 234.248ZM27.904 271.752C31.5733 271.752 34.9013 270.216 37.888 267.144C40.8747 264.072 42.368 259.848 42.368 254.472C42.368 251.485 41.9413 248.925 41.088 246.792C40.2347 244.573 39.0827 242.781 37.632 241.416C36.2667 240.051 34.688 239.069 32.896 238.472C31.1893 237.789 29.44 237.448 27.648 237.448C23.7227 237.448 20.3093 238.899 17.408 241.8C14.5067 244.701 13.056 249.011 13.056 254.728C13.056 259.677 14.4213 263.773 17.152 267.016C19.8827 270.173 23.4667 271.752 27.904 271.752ZM73.984 285.064C79.7013 285.064 84.4373 286.813 88.192 290.312C92.032 293.811 93.952 298.803 93.952 305.288C93.952 308.019 93.4827 310.664 92.544 313.224C91.6907 315.699 90.368 317.875 88.576 319.752C86.8693 321.629 84.736 323.165 82.176 324.36C79.7013 325.469 76.8427 326.024 73.6 326.024C70.9547 326.024 68.352 325.555 65.792 324.616C63.232 323.677 60.9707 322.355 59.008 320.648C57.0453 318.856 55.424 316.723 54.144 314.248C52.9493 311.688 52.352 308.787 52.352 305.544C52.352 302.899 52.8213 300.339 53.76 297.864C54.784 295.389 56.192 293.213 57.984 291.336C59.8613 289.373 62.1227 287.837 64.768 286.728C67.4987 285.619 70.5707 285.064 73.984 285.064ZM76.032 322.568C79.7013 322.568 83.0293 321.032 86.016 317.96C89.0027 314.888 90.496 310.664 90.496 305.288C90.496 302.301 90.0693 299.741 89.216 297.608C88.3627 295.389 87.2107 293.597 85.76 292.232C84.3947 290.867 82.816 289.885 81.024 289.288C79.3173 288.605 77.568 288.264 75.776 288.264C71.8507 288.264 68.4373 289.715 65.536 292.616C62.6347 295.517 61.184 299.827 61.184 305.544C61.184 310.493 62.5493 314.589 65.28 317.832C68.0107 320.989 71.5947 322.568 76.032 322.568ZM158.735 257.928H164.239V278.536H184.975V283.656H164.239V304.904H158.735V283.656H137.615V278.536H158.735V257.928ZM229.775 294.408V289.288H254.991V294.408H229.775ZM299.835 281.736V276.616H347.195V281.736H299.835ZM299.835 290.824V285.704H347.195V290.824H299.835ZM394.555 294.408V290.184H463.675V294.408H394.555ZM554.123 316.04H547.083L514.955 283.528L547.083 251.016H554.123L521.995 283.528L554.123 316.04ZM617.995 316.04H610.955L643.083 283.528L610.955 251.016H617.995L650.123 283.528L617.995 316.04ZM697.739 232.84C699.446 232.84 700.939 233.309 702.219 234.248C703.499 235.187 704.779 236.552 706.059 238.344C707.51 240.477 708.747 242.355 709.771 243.976C710.795 245.597 711.819 247.176 712.843 248.712L718.603 257.16H715.531L708.619 252.168C705.632 250.035 703.115 248.285 701.067 246.92C699.019 245.555 697.099 244.061 695.307 242.44C694.454 241.587 693.814 240.733 693.387 239.88C693.046 238.941 692.875 238.173 692.875 237.576C692.875 236.125 693.344 234.973 694.283 234.12C695.307 233.267 696.459 232.84 697.739 232.84ZM803.421 270.856H807.517C807.517 276.573 806.066 280.968 803.165 284.04C800.349 287.027 797.106 288.52 793.437 288.52C790.45 288.52 787.933 288.008 785.885 286.984C783.922 285.96 781.576 284.509 778.845 282.632C776.456 280.925 774.493 279.731 772.957 279.048C771.421 278.365 769.757 278.024 767.965 278.024C765.064 278.024 762.888 278.963 761.437 280.84C760.072 282.717 759.389 285.149 759.389 288.136H755.165C755.165 285.235 755.592 282.717 756.445 280.584C757.298 278.365 758.365 276.531 759.645 275.08C761.01 273.544 762.504 272.392 764.125 271.624C765.832 270.856 767.538 270.472 769.245 270.472C772.146 270.472 774.536 270.941 776.413 271.88C778.376 272.819 780.722 274.227 783.453 276.104C785.842 277.811 787.848 279.048 789.469 279.816C791.176 280.584 792.968 280.968 794.845 280.968C797.49 280.968 799.581 280.029 801.117 278.152C802.653 276.275 803.421 273.843 803.421 270.856ZM868.189 313.608V238.728H856.029V235.272H880.477L922.845 303.88V247.56C922.845 243.805 923.784 240.648 925.661 238.088C927.624 235.528 930.568 234.248 934.493 234.248C936.968 234.248 939.229 235.101 941.277 236.808C943.325 238.429 944.349 240.691 944.349 243.592C944.349 246.237 943.581 248.456 942.045 250.248C940.594 252.04 938.802 252.936 936.669 252.936C934.536 252.936 932.786 252.296 931.421 251.016C930.056 249.736 929.373 248.115 929.373 246.152C929.373 243.848 930.098 242.056 931.549 240.776C933 239.411 935.048 238.813 937.693 238.984C937.352 238.643 936.84 238.301 936.157 237.96C935.56 237.619 934.792 237.448 933.853 237.448C931.72 237.448 929.97 238.387 928.605 240.264C927.325 242.056 926.685 244.189 926.685 246.664V326.024H922.845L872.029 244.616V312.712C872.029 316.467 871.048 319.624 869.085 322.184C867.208 324.744 864.306 326.024 860.381 326.024C857.906 326.024 855.645 325.213 853.597 323.592C851.549 321.885 850.525 319.581 850.525 316.68C850.525 314.291 851.165 312.115 852.445 310.152C853.725 308.189 855.645 307.208 858.205 307.208C860.424 307.208 862.173 307.891 863.453 309.256C864.818 310.536 865.501 312.157 865.501 314.12C865.501 316.424 864.69 318.259 863.069 319.624C861.448 320.989 859.57 321.629 857.437 321.544C857.778 321.971 858.248 322.312 858.845 322.568C859.442 322.739 860.168 322.824 861.021 322.824C863.154 322.824 864.861 321.928 866.141 320.136C867.506 318.259 868.189 316.083 868.189 313.608ZM961.757 258.824C965.597 258.824 968.882 259.464 971.613 260.744C974.429 262.024 976.733 263.731 978.525 265.864C980.402 267.997 981.768 270.429 982.621 273.16C983.474 275.805 983.901 278.536 983.901 281.352C983.901 284.253 983.432 287.069 982.493 289.8C981.554 292.531 980.146 294.963 978.269 297.096C976.477 299.229 974.173 300.936 971.357 302.216C968.626 303.496 965.426 304.136 961.757 304.136C954.93 304.136 949.554 301.96 945.629 297.608C941.704 293.256 939.741 287.88 939.741 281.48C939.741 278.493 940.21 275.635 941.149 272.904C942.173 270.088 943.624 267.656 945.501 265.608C947.378 263.56 949.682 261.939 952.413 260.744C955.144 259.464 958.258 258.824 961.757 258.824ZM961.629 300.936C964.957 300.936 967.645 299.187 969.693 295.688C971.741 292.104 972.765 287.368 972.765 281.48C972.765 275.592 971.826 270.899 969.949 267.4C968.157 263.816 965.426 262.024 961.757 262.024C958.173 262.024 955.442 263.816 953.565 267.4C951.773 270.899 950.877 275.592 950.877 281.48C950.877 287.368 951.816 292.104 953.693 295.688C955.656 299.187 958.301 300.936 961.629 300.936ZM942.173 312.84V309.128H981.597V312.84H942.173ZM17.92 417.152L19.712 419.2C17.408 420.821 15.3173 422.955 13.44 425.6C11.5627 428.16 10.624 430.891 10.624 433.792C10.624 434.389 10.624 435.157 10.624 436.096C10.7093 436.949 10.9227 437.675 11.264 438.272C11.6907 437.163 12.416 436.267 13.44 435.584C14.5493 434.816 15.872 434.432 17.408 434.432C19.5413 434.432 21.2907 435.115 22.656 436.48C24.1067 437.845 24.832 439.595 24.832 441.728C24.832 443.776 24.064 445.611 22.528 447.232C20.992 448.768 18.9013 449.536 16.256 449.536C13.6107 449.536 11.3067 448.512 9.344 446.464C7.38133 444.331 6.4 441.301 6.4 437.376C6.4 433.024 7.46667 429.141 9.6 425.728C11.8187 422.315 14.592 419.456 17.92 417.152ZM74.062 453.12L72.27 451.072C74.574 449.451 76.6647 447.36 78.542 444.8C80.4193 442.155 81.358 439.381 81.358 436.48C81.358 435.883 81.3153 435.157 81.23 434.304C81.23 433.365 81.0593 432.597 80.718 432C80.2913 433.109 79.5233 434.048 78.414 434.816C77.39 435.499 76.11 435.84 74.574 435.84C72.4407 435.84 70.6487 435.157 69.198 433.792C67.8327 432.427 67.15 430.677 67.15 428.544C67.15 426.496 67.918 424.704 69.454 423.168C70.99 421.547 73.0807 420.736 75.726 420.736C78.3713 420.736 80.6753 421.803 82.638 423.936C84.6007 425.984 85.582 428.971 85.582 432.896C85.582 437.248 84.4727 441.131 82.254 444.544C80.1207 447.957 77.39 450.816 74.062 453.12ZM234.14 475.52C234.14 479.019 233.543 482.816 232.348 486.912C231.239 490.923 229.447 494.677 226.972 498.176C224.583 501.589 221.468 504.491 217.628 506.88C213.788 509.184 209.18 510.336 203.804 510.336C200.647 510.336 197.831 509.525 195.356 507.904C192.967 506.283 191.772 503.808 191.772 500.48C191.772 499.883 191.815 499.243 191.9 498.56C192.071 497.792 192.241 496.981 192.412 496.128C189.767 501.333 186.695 504.96 183.196 507.008C179.697 509.056 176.455 510.08 173.468 510.08C168.86 510.08 165.063 508.501 162.076 505.344C159.089 502.187 157.596 497.664 157.596 491.776C157.596 486.912 158.407 482.347 160.028 478.08C161.649 473.728 163.868 469.973 166.684 466.816C169.585 463.659 173.084 461.184 177.18 459.392C181.276 457.6 185.756 456.704 190.62 456.704C192.497 456.704 194.46 456.875 196.508 457.216C198.556 457.472 200.263 457.899 201.628 458.496L214.3 456.704L204.06 494.208C203.804 495.232 203.505 496.683 203.164 498.56C202.908 500.437 202.78 501.717 202.78 502.4C202.78 503.851 203.121 505.003 203.804 505.856C204.487 506.624 205.639 507.008 207.26 507.008C209.735 507.008 212.337 506.325 215.068 504.96C217.884 503.595 220.444 501.589 222.748 498.944C225.052 496.213 226.972 492.885 228.508 488.96C230.044 484.949 230.812 480.384 230.812 475.264C230.812 470.229 229.873 465.536 227.996 461.184C226.204 456.832 223.516 453.077 219.932 449.92C216.433 446.677 212.081 444.117 206.876 442.24C201.756 440.363 195.911 439.424 189.34 439.424C181.063 439.424 173.895 440.789 167.836 443.52C161.863 446.165 156.956 449.664 153.116 454.016C149.276 458.368 146.46 463.36 144.668 468.992C142.876 474.624 141.98 480.341 141.98 486.144C141.98 493.483 143.175 499.968 145.564 505.6C147.953 511.147 151.196 515.755 155.292 519.424C159.388 523.179 164.167 525.995 169.628 527.872C175.175 529.749 181.063 530.688 187.292 530.688C192.753 530.688 197.959 529.835 202.908 528.128C207.943 526.421 212.977 523.605 218.012 519.68L219.036 521.6C215.708 524.757 211.143 527.573 205.34 530.048C199.537 532.523 192.924 533.76 185.5 533.76C177.137 533.76 169.543 532.651 162.716 530.432C155.975 528.299 150.215 525.184 145.436 521.088C140.657 517.077 136.945 512.128 134.3 506.24C131.74 500.267 130.46 493.568 130.46 486.144C130.46 478.208 131.953 471.125 134.94 464.896C137.927 458.667 141.937 453.419 146.972 449.152C152.092 444.885 158.065 441.643 164.892 439.424C171.804 437.205 179.1 436.096 186.78 436.096C194.289 436.096 200.988 437.12 206.876 439.168C212.849 441.216 217.841 443.989 221.852 447.488C225.863 450.987 228.892 455.168 230.94 460.032C233.073 464.811 234.14 469.973 234.14 475.52ZM169.756 490.112C169.756 494.464 170.567 497.835 172.188 500.224C173.809 502.528 175.943 503.68 178.588 503.68C181.233 503.68 183.751 502.571 186.14 500.352C188.529 498.133 191.089 494.464 193.82 489.344L200.476 461.824C198.94 461.141 197.319 460.672 195.612 460.416C193.991 460.075 192.241 459.904 190.364 459.904C184.476 459.904 179.569 462.677 175.644 468.224C171.719 473.685 169.756 480.981 169.756 490.112ZM342.124 512.896L349.036 485.632H329.708L322.796 512.896H315.628L322.54 485.632H302.06L303.724 479.488H324.204L330.476 455.04H310.124L311.916 448.896H332.012L339.308 420.48H346.476L339.18 448.896H358.508L365.804 420.48H372.972L365.676 448.896H385.9L383.852 455.04H364.14L357.868 479.488H377.708L376.044 485.632H356.204L349.292 512.896H342.124ZM337.644 455.04L331.372 479.488H350.7L356.972 455.04H337.644ZM456.975 437.12H453.775L454.543 422.272H498.959L499.599 437.12H496.527L493.327 425.856H481.167V467.328H487.311V470.528H465.679V467.328H472.207V425.856H460.047L456.975 437.12ZM563.087 425.472H556.559V467.328H563.087V470.528H540.943V467.328H547.599V430.08L530.831 471.168H529.039L514.447 428.032V466.304L521.103 467.328V470.528H503.823V467.328L511.119 466.304V425.472H504.591V422.272H522.127L533.647 455.424L547.343 422.272H563.087V425.472ZM604.12 469.632V466.176H614.872C612.739 463.275 610.904 460.245 609.368 457.088C607.832 453.845 607.064 450.219 607.064 446.208C607.064 438.869 609.923 432.853 615.64 428.16C621.443 423.467 629.037 421.12 638.424 421.12C641.155 421.12 643.885 421.504 646.616 422.272C649.347 423.04 651.821 424.149 654.04 425.6C656.259 426.965 658.051 428.672 659.416 430.72C660.781 432.683 661.464 434.859 661.464 437.248C661.464 439.04 660.867 440.576 659.672 441.856C658.477 443.051 656.941 443.648 655.064 443.648C653.613 443.648 652.205 443.179 650.84 442.24C649.56 441.301 648.92 439.936 648.92 438.144C648.92 436.608 649.304 435.243 650.072 434.048C650.925 432.853 652.333 431.872 654.296 431.104C652.76 429.227 650.499 427.691 647.512 426.496C644.611 425.301 641.624 424.704 638.552 424.704C635.309 424.704 632.493 425.301 630.104 426.496C627.715 427.605 625.752 429.099 624.216 430.976C622.765 432.853 621.656 435.029 620.888 437.504C620.205 439.979 619.864 442.539 619.864 445.184C619.864 449.28 620.461 452.949 621.656 456.192C622.851 459.435 624.131 462.763 625.496 466.176H650.968V469.632H626.776C627.8 472.448 628.653 475.52 629.336 478.848C630.104 482.176 630.488 485.973 630.488 490.24C630.488 491.264 630.445 492.373 630.36 493.568C630.36 494.677 630.317 495.787 630.232 496.896C633.56 498.176 636.547 499.285 639.192 500.224C641.923 501.163 645.208 501.632 649.048 501.632C652.547 501.632 655.363 500.437 657.496 498.048C659.629 495.573 660.696 492.117 660.696 487.68C660.696 486.827 660.653 486.101 660.568 485.504C660.568 484.907 660.568 484.437 660.568 484.096H664.024C664.109 484.779 664.152 485.845 664.152 487.296C664.237 488.747 664.28 490.283 664.28 491.904C664.28 494.379 664.024 496.896 663.512 499.456C663.085 501.931 662.275 504.192 661.08 506.24C659.971 508.203 658.392 509.824 656.344 511.104C654.381 512.384 651.907 513.024 648.92 513.024C645.507 513.024 642.179 512 638.936 509.952C635.779 507.819 632.451 505.173 628.952 502.016C627.843 505.344 626.307 508.032 624.344 510.08C622.467 512.043 620.077 513.024 617.176 513.024C614.275 513.024 611.757 512.085 609.624 510.208C607.576 508.331 606.552 505.856 606.552 502.784C606.552 499.627 607.576 497.195 609.624 495.488C611.672 493.781 614.147 492.928 617.048 492.928C618.925 492.928 620.717 493.227 622.424 493.824C624.216 494.421 625.923 495.061 627.544 495.744C627.544 490.112 626.477 485.248 624.344 481.152C622.211 477.056 619.864 473.216 617.304 469.632H604.12ZM617.176 509.568C619.309 509.568 621.144 508.757 622.68 507.136C624.301 505.429 625.667 503.125 626.776 500.224C624.984 498.859 623.32 497.877 621.784 497.28C620.248 496.683 618.712 496.384 617.176 496.384C615.128 496.384 613.464 497.024 612.184 498.304C610.989 499.499 610.392 501.035 610.392 502.912C610.392 504.96 611.032 506.581 612.312 507.776C613.677 508.971 615.299 509.568 617.176 509.568ZM731.997 524.416V512.896C727.986 512.811 724.317 512 720.989 510.464C717.661 508.843 714.845 506.752 712.541 504.192C710.237 501.547 708.445 498.475 707.165 494.976C705.885 491.392 705.245 487.552 705.245 483.456C705.245 475.008 707.677 468.053 712.541 462.592C717.405 457.131 723.89 454.229 731.997 453.888V442.24H735.453V454.016C737.757 454.101 739.89 454.528 741.853 455.296C743.901 455.979 745.693 456.875 747.229 457.984C749.618 459.776 751.368 461.611 752.477 463.488C753.672 465.365 754.269 467.157 754.269 468.864C754.269 470.912 753.586 472.576 752.221 473.856C750.941 475.051 749.448 475.648 747.741 475.648C746.034 475.648 744.584 475.093 743.389 473.984C742.194 472.875 741.597 471.424 741.597 469.632C741.597 468.011 742.024 466.603 742.877 465.408C743.73 464.213 744.925 463.189 746.461 462.336C745.352 460.971 743.773 459.861 741.725 459.008C739.677 458.069 737.586 457.557 735.453 457.472V508.16H736.221C740.146 508.16 743.389 507.093 745.949 504.96C748.594 502.741 750.728 500.181 752.349 497.28L754.909 498.944C753.202 502.101 750.728 505.088 747.485 507.904C744.242 510.72 740.232 512.341 735.453 512.768V524.416H731.997ZM718.301 483.328C718.301 489.557 719.453 494.933 721.757 499.456C724.061 503.893 727.474 506.667 731.997 507.776V457.856C727.474 458.709 724.061 461.483 721.757 466.176C719.453 470.784 718.301 476.501 718.301 483.328ZM818.967 516.864V508.928C815.127 508.587 811.202 507.648 807.191 506.112C803.266 504.576 800.108 502.357 797.719 499.456C796.695 498.347 796.012 497.237 795.671 496.128C795.415 494.933 795.287 493.781 795.287 492.672C795.287 490.88 795.884 489.301 797.079 487.936C798.274 486.571 800.023 485.888 802.327 485.888C804.204 485.888 805.783 486.528 807.063 487.808C808.343 489.088 808.983 490.539 808.983 492.16C808.983 494.037 808.514 495.573 807.575 496.768C806.636 497.963 805.399 498.901 803.863 499.584C805.655 501.12 807.788 502.4 810.263 503.424C812.738 504.448 815.639 505.088 818.967 505.344V472.32L810.391 467.968C808.77 467.115 807.02 466.091 805.143 464.896C803.351 463.616 801.687 462.123 800.151 460.416C798.615 458.624 797.335 456.533 796.311 454.144C795.287 451.755 794.775 448.981 794.775 445.824C794.775 443.179 795.244 440.619 796.183 438.144C797.207 435.584 798.7 433.365 800.663 431.488C802.711 429.611 805.228 428.075 808.215 426.88C811.287 425.685 814.871 425.088 818.967 425.088V417.408H822.807V425.216C826.391 425.557 829.548 426.368 832.279 427.648C835.095 428.843 837.442 430.464 839.319 432.512C840.002 433.28 840.855 434.56 841.879 436.352C842.988 438.144 843.543 440.021 843.543 441.984C843.543 443.605 842.988 445.141 841.879 446.592C840.77 447.957 839.148 448.64 837.015 448.64C834.882 448.64 833.218 448 832.023 446.72C830.914 445.44 830.359 444.032 830.359 442.496C830.359 440.875 830.871 439.467 831.895 438.272C833.004 437.077 834.455 436.139 836.247 435.456C834.967 433.749 833.175 432.341 830.871 431.232C828.652 430.037 825.964 429.269 822.807 428.928V460.416L834.327 466.304C838.423 468.437 841.708 470.869 844.183 473.6C846.743 476.245 848.023 480.299 848.023 485.76C848.023 489.259 847.255 492.459 845.719 495.36C844.183 498.176 842.22 500.608 839.831 502.656C837.442 504.619 834.754 506.197 831.767 507.392C828.78 508.501 825.794 509.056 822.807 509.056V516.864H818.967ZM829.847 477.568L822.807 474.24V505.344C824.94 505.259 827.031 504.917 829.079 504.32C831.127 503.637 832.919 502.741 834.455 501.632C836.076 500.437 837.356 498.944 838.295 497.152C839.234 495.36 839.703 493.269 839.703 490.88C839.703 487.979 838.978 485.504 837.527 483.456C836.076 481.408 833.516 479.445 829.847 477.568ZM815.383 456.448L818.967 458.496V428.8C814.103 428.8 810.263 429.995 807.447 432.384C804.716 434.688 803.351 437.589 803.351 441.088C803.351 445.269 804.546 448.427 806.935 450.56C809.41 452.693 812.226 454.656 815.383 456.448ZM35.9 692.472C35.9 690.168 36.5827 688.333 37.948 686.968C39.3987 685.603 41.2333 684.92 43.452 684.92C45.756 684.92 47.5907 685.645 48.956 687.096C50.3213 688.547 51.004 690.339 51.004 692.472C51.004 694.776 50.3213 696.611 48.956 697.976C47.676 699.341 45.8413 700.024 43.452 700.024C41.0627 700.024 39.1853 699.384 37.82 698.104C36.54 696.739 35.9 694.861 35.9 692.472ZM35.9 649.592C35.9 647.288 36.5827 645.453 37.948 644.088C39.3987 642.723 41.2333 642.04 43.452 642.04C45.756 642.04 47.5907 642.765 48.956 644.216C50.3213 645.667 51.004 647.459 51.004 649.592C51.004 651.896 50.3213 653.731 48.956 655.096C47.676 656.461 45.8413 657.144 43.452 657.144C41.0627 657.144 39.1853 656.504 37.82 655.224C36.54 653.859 35.9 651.981 35.9 649.592ZM131.291 647.16C135.216 649.123 138.374 651.427 140.763 654.072C143.152 656.717 144.347 660.643 144.347 665.848C144.347 669.773 143.323 673.315 141.275 676.472C139.312 679.629 136.838 682.147 133.851 684.024C136.923 685.816 139.355 687.992 141.147 690.552C143.024 693.027 143.963 696.525 143.963 701.048C143.963 704.376 143.238 707.405 141.787 710.136C140.336 712.867 138.416 715.171 136.027 717.048C133.638 719.011 130.907 720.504 127.835 721.528C124.763 722.637 121.648 723.192 118.491 723.192C115.078 723.192 111.238 722.552 106.971 721.272C102.704 719.992 99.2483 717.773 96.603 714.616C95.6643 713.507 95.0243 712.397 94.683 711.288C94.427 710.264 94.299 709.197 94.299 708.088C94.299 706.467 94.8537 704.973 95.963 703.608C97.1577 702.328 98.8217 701.688 100.955 701.688C102.832 701.688 104.368 702.285 105.563 703.48C106.758 704.76 107.355 706.168 107.355 707.704C107.355 709.24 106.928 710.563 106.075 711.672C105.307 712.867 104.24 713.805 102.875 714.488C104.496 716.28 106.587 717.603 109.147 718.456C111.707 719.309 114.95 719.736 118.875 719.736C121.008 719.736 123.099 719.437 125.147 718.84C127.28 718.328 129.115 717.517 130.651 716.408C132.272 715.299 133.552 713.848 134.491 712.056C135.515 710.349 136.027 708.301 136.027 705.912C136.027 703.096 135.344 700.749 133.979 698.872C132.614 696.909 130.182 695.032 126.683 693.24C123.526 691.619 120.752 690.296 118.363 689.272C115.974 688.248 112.56 686.456 108.123 683.896C106.587 683.043 104.966 682.061 103.259 680.952C101.552 679.757 99.931 678.349 98.395 676.728C96.9443 675.107 95.707 673.187 94.683 670.968C93.7443 668.664 93.275 666.019 93.275 663.032C93.275 659.533 94.1283 656.248 95.835 653.176C97.627 650.019 100.315 647.587 103.899 645.88C101.339 644.173 98.9923 641.912 96.859 639.096C94.7257 636.195 93.659 632.44 93.659 627.832C93.659 625.272 94.2137 622.797 95.323 620.408C96.4323 618.019 98.011 615.928 100.059 614.136C102.107 612.259 104.667 610.808 107.739 609.784C110.811 608.675 114.31 608.12 118.235 608.12C122.502 608.12 126.214 608.76 129.371 610.04C132.528 611.235 135.174 612.941 137.307 615.16C137.99 615.843 138.843 617.037 139.867 618.744C140.976 620.451 141.531 622.243 141.531 624.12C141.531 625.656 140.976 627.107 139.867 628.472C138.843 629.837 137.264 630.52 135.131 630.52C133.083 630.52 131.504 629.923 130.395 628.728C129.371 627.448 128.859 626.083 128.859 624.632C128.859 623.096 129.371 621.773 130.395 620.664C131.419 619.469 132.742 618.573 134.363 617.976C132.998 615.928 130.864 614.349 127.963 613.24C125.062 612.131 121.691 611.576 117.851 611.576C112.731 611.576 108.763 612.813 105.947 615.288C103.216 617.763 101.851 620.707 101.851 624.12C101.851 627.789 103.003 630.605 105.307 632.568C107.611 634.445 110.256 636.195 113.243 637.816C117.254 639.949 120.454 641.656 122.843 642.936C125.318 644.131 128.134 645.539 131.291 647.16ZM127.067 658.04C123.995 656.419 120.923 654.883 117.851 653.432C114.779 651.981 111.494 650.317 107.995 648.44C105.947 649.464 104.326 650.872 103.131 652.664C102.022 654.456 101.467 656.419 101.467 658.552C101.467 662.563 102.619 665.592 104.923 667.64C107.227 669.603 109.872 671.395 112.859 673.016C116.699 675.149 119.771 676.813 122.075 678.008C124.464 679.203 127.11 680.525 130.011 681.976C131.888 680.867 133.424 679.373 134.619 677.496C135.814 675.619 136.411 673.357 136.411 670.712C136.411 667.896 135.728 665.549 134.363 663.672C132.998 661.709 130.566 659.832 127.067 658.04ZM188.058 646.776H181.018L213.53 608.248L246.042 646.776H239.002L213.402 616.312L188.058 646.776ZM282.65 633.592C282.65 625.571 285.21 619.384 290.33 615.032C295.535 610.595 302.277 608.376 310.554 608.376H315.29V732.536H310.426V658.936C301.637 658.936 294.81 656.717 289.946 652.28C285.082 647.843 282.65 641.613 282.65 633.592ZM322.97 732.536V608.376H327.834V732.536H322.97ZM428.041 661.496V658.04H449.545V661.496H440.329C440.244 664.653 439.86 667.853 439.177 671.096C438.58 674.339 437.598 677.453 436.233 680.44C438.452 682.744 440.457 684.792 442.249 686.584C444.041 688.291 445.534 689.613 446.729 690.552C448.606 692.173 450.74 693.453 453.129 694.392C455.518 695.245 458.249 695.672 461.321 695.672H464.649V699H448.009C444.596 699 441.737 698.531 439.433 697.592C437.129 696.568 435.124 695.245 433.417 693.624L430.089 690.296C427.444 693.283 424.201 695.715 420.361 697.592C416.521 699.469 411.742 700.408 406.025 700.408C401.502 700.408 397.278 699.768 393.353 698.488C389.513 697.208 386.142 695.416 383.241 693.112C380.425 690.723 378.164 687.864 376.457 684.536C374.836 681.208 374.025 677.496 374.025 673.4C374.025 667.427 375.817 662.392 379.401 658.296C383.07 654.115 388.062 650.915 394.377 648.696C392.158 645.795 390.153 642.723 388.361 639.48C386.569 636.237 385.673 632.653 385.673 628.728C385.673 622.669 387.678 617.763 391.689 614.008C395.785 610.253 401.63 608.376 409.225 608.376C415.881 608.376 421.172 609.827 425.097 612.728C429.022 615.629 430.985 619.768 430.985 625.144C430.985 628.557 430.217 631.544 428.681 634.104C427.23 636.579 425.353 638.712 423.049 640.504C420.83 642.211 418.313 643.619 415.497 644.728C412.766 645.752 410.164 646.477 407.689 646.904C412.212 652.707 416.692 658.253 421.129 663.544C425.652 668.835 429.833 673.528 433.673 677.624C434.612 675.235 435.337 672.675 435.849 669.944C436.361 667.213 436.66 664.397 436.745 661.496H428.041ZM386.185 674.04C386.185 677.112 386.654 680.013 387.593 682.744C388.617 685.475 390.068 687.907 391.945 690.04C393.908 692.088 396.297 693.752 399.113 695.032C401.929 696.227 405.129 696.824 408.713 696.824C412.553 696.824 416.052 696.013 419.209 694.392C422.452 692.771 425.268 690.595 427.657 687.864C423.39 683.512 418.654 678.264 413.449 672.12C408.244 665.976 402.441 658.936 396.041 651C392.116 654.072 389.47 657.699 388.105 661.88C386.825 666.061 386.185 670.115 386.185 674.04ZM397.321 624.248C397.321 627.405 398.132 630.691 399.753 634.104C401.374 637.517 403.55 641.059 406.281 644.728C410.292 642.765 413.364 640.035 415.497 636.536C417.716 632.952 418.825 629.069 418.825 624.888C418.825 620.28 417.886 616.952 416.009 614.904C414.217 612.771 411.742 611.704 408.585 611.704C405.684 611.704 403.081 612.899 400.777 615.288C398.473 617.592 397.321 620.579 397.321 624.248ZM504.425 665.848C504.425 662.947 505.321 660.643 507.113 658.936C508.99 657.144 511.294 656.248 514.025 656.248C516.756 656.248 519.017 657.187 520.809 659.064C522.686 660.856 523.625 663.117 523.625 665.848C523.625 668.749 522.686 671.096 520.809 672.888C518.932 674.595 516.67 675.448 514.025 675.448C511.294 675.448 508.99 674.595 507.113 672.888C505.321 671.181 504.425 668.835 504.425 665.848ZM569.075 620.28C569.075 619.256 569.459 618.317 570.227 617.464C571.08 616.611 572.062 616.184 573.171 616.184C573.683 616.184 574.195 616.312 574.707 616.568C575.219 616.739 575.774 616.995 576.371 617.336C577.395 618.019 578.248 618.787 578.931 619.64C579.699 620.493 580.424 621.389 581.107 622.328C581.79 623.181 582.558 624.12 583.411 625.144C584.35 626.083 585.544 627.064 586.995 628.088C586.995 624.419 586.44 621.645 585.331 619.768C584.307 617.891 583.795 615.715 583.795 613.24C583.795 611.704 584.179 610.467 584.947 609.528C585.715 608.589 586.782 608.12 588.147 608.12C589.512 608.12 590.536 608.589 591.219 609.528C591.902 610.467 592.243 611.704 592.243 613.24C592.243 615.715 591.731 617.891 590.707 619.768C589.768 621.645 589.299 624.419 589.299 628.088C590.835 627.064 592.03 626.083 592.883 625.144C593.822 624.12 594.632 623.181 595.315 622.328C595.998 621.389 596.68 620.493 597.363 619.64C598.046 618.787 598.899 618.019 599.923 617.336C600.264 616.995 600.691 616.739 601.203 616.568C601.8 616.312 602.398 616.184 602.995 616.184C604.019 616.184 605 616.568 605.939 617.336C606.878 618.019 607.347 618.957 607.347 620.152C607.347 621.005 607.091 621.816 606.579 622.584C606.067 623.267 605.384 623.907 604.531 624.504C603.507 625.187 602.483 625.656 601.459 625.912C600.52 626.168 599.496 626.424 598.387 626.68C597.278 626.936 596.04 627.277 594.675 627.704C593.395 628.045 591.987 628.685 590.451 629.624C593.096 631.16 595.614 632.099 598.003 632.44C600.392 632.781 602.526 633.592 604.403 634.872C605.256 635.469 605.939 636.152 606.451 636.92C606.963 637.603 607.219 638.328 607.219 639.096C607.219 640.205 606.792 641.144 605.939 641.912C605.171 642.68 604.232 643.064 603.123 643.064C602.611 643.064 602.099 642.979 601.587 642.808C601.075 642.637 600.52 642.381 599.923 642.04C598.899 641.357 598.003 640.589 597.235 639.736C596.552 638.883 595.87 638.029 595.187 637.176C594.504 636.237 593.694 635.299 592.755 634.36C591.902 633.336 590.75 632.312 589.299 631.288C589.299 634.957 589.811 637.731 590.835 639.608C591.859 641.4 592.371 643.533 592.371 646.008C592.371 647.544 591.987 648.781 591.219 649.72C590.536 650.659 589.47 651.128 588.019 651.128C586.654 651.128 585.63 650.659 584.947 649.72C584.264 648.781 583.923 647.544 583.923 646.008C583.923 643.533 584.435 641.4 585.459 639.608C586.483 637.731 586.995 634.957 586.995 631.288C585.544 632.312 584.35 633.336 583.411 634.36C582.558 635.299 581.79 636.237 581.107 637.176C580.424 638.029 579.699 638.883 578.931 639.736C578.248 640.589 577.395 641.357 576.371 642.04C575.774 642.381 575.219 642.637 574.707 642.808C574.195 642.979 573.683 643.064 573.171 643.064C572.062 643.064 571.08 642.68 570.227 641.912C569.459 641.144 569.075 640.163 569.075 638.968C569.075 638.2 569.288 637.475 569.715 636.792C570.227 636.109 570.91 635.469 571.763 634.872C573.64 633.592 575.731 632.824 578.035 632.568C580.339 632.312 582.856 631.331 585.587 629.624C582.43 627.832 579.784 626.851 577.651 626.68C575.603 626.509 573.64 625.784 571.763 624.504C570.91 623.907 570.227 623.267 569.715 622.584C569.288 621.816 569.075 621.048 569.075 620.28ZM665.906 606.584C671.453 606.584 675.634 607.736 678.45 610.04C681.266 612.344 682.674 616.013 682.674 621.048V649.208H676.658L675.122 643.832C673.415 645.624 671.367 647.117 668.978 648.312C666.589 649.421 663.773 649.976 660.53 649.976C657.885 649.976 655.538 649.507 653.49 648.568C651.527 647.629 649.991 646.221 648.882 644.344C647.858 642.467 647.346 640.12 647.346 637.304C647.346 634.403 648.071 632.013 649.522 630.136C650.973 628.173 653.191 626.68 656.178 625.656C659.25 624.632 663.047 624.035 667.57 623.864L674.738 623.608V620.792C674.738 617.976 673.842 616.013 672.05 614.904C670.258 613.795 668.125 613.24 665.65 613.24C663.261 613.24 660.999 613.581 658.866 614.264C656.733 614.861 654.685 615.629 652.722 616.568L649.906 610.296C651.357 609.528 652.935 608.888 654.642 608.376C656.434 607.779 658.269 607.352 660.146 607.096C662.023 606.755 663.943 606.584 665.906 606.584ZM668.594 629.624C663.474 629.795 660.018 630.563 658.226 631.928C656.434 633.208 655.538 635 655.538 637.304C655.538 639.437 656.135 641.016 657.33 642.04C658.61 642.979 660.317 643.448 662.45 643.448C666.802 643.448 669.917 642.467 671.794 640.504C673.757 638.456 674.738 635.725 674.738 632.312V629.368L668.594 629.624ZM762.66 628.216C762.66 635.128 760.825 640.504 757.156 644.344C753.487 648.099 748.58 649.976 742.436 649.976C736.719 649.976 731.983 648.141 728.228 644.472C724.473 640.717 722.596 635.299 722.596 628.216C722.596 621.219 724.388 615.885 727.972 612.216C731.556 608.461 736.463 606.584 742.692 606.584C746.703 606.584 750.201 607.437 753.188 609.144C756.175 610.765 758.479 613.197 760.1 616.44C761.807 619.597 762.66 623.523 762.66 628.216ZM730.66 628.216C730.66 633.165 731.599 636.92 733.476 639.48C735.353 641.955 738.383 643.192 742.564 643.192C746.745 643.192 749.775 641.955 751.652 639.48C753.529 636.92 754.468 633.165 754.468 628.216C754.468 623.181 753.529 619.469 751.652 617.08C749.775 614.605 746.745 613.368 742.564 613.368C738.383 613.368 735.353 614.605 733.476 617.08C731.599 619.469 730.66 623.181 730.66 628.216ZM796.125 714.104V709.88H865.245V714.104H796.125Z" fill="black"/>
<path d="M740.513 1406.22L735.032 1401.96L732.291 1391.01L725.592 1346.89L721.024 1294.26C717.127 1267.49 725.287 1222.26 729.855 1202.99L744.471 1152.49L750.561 1115.37L757.551 1086.77M740.513 1406.22L749.343 1408.96L819.685 1412L828.515 1408.96M740.513 1406.22C759.27 1404.03 806.997 1407.13 828.515 1408.96M828.515 1408.96C845.669 1365.86 877.906 1267.61 869.624 1219.42L868.101 1215.16V1186.26L865.361 1154.62L859.682 1127.54M847.09 1086.77L858.661 1122.67L859.172 1125.11M847.09 1086.77C846.583 1096.92 845.872 1117.75 847.09 1119.94M847.09 1086.77C845.129 1080.69 846.273 1058.48 847.09 1048.14L849.526 1015.58L852.606 973.903M847.09 1119.94C848.613 1122.67 861.098 1162.83 858.661 1170.13C856.713 1175.98 847.293 1200.76 842.827 1212.42L836.041 1228.24M847.09 1119.94C842.114 1115.43 837.792 1108.25 834.208 1100.36M759.392 1109.29C757.87 1119.23 753.972 1143.48 750.561 1161.01C747.895 1174.71 752.128 1195.25 756.188 1209.38M759.392 1109.29L770.354 1074.3L785.275 1022.28L793.719 990.94M759.392 1109.29L765.787 1112.94C766.712 1110.75 767.904 1107.91 769.226 1104.72M759.392 1109.29C758.461 1101.31 757.872 1093.79 757.551 1086.77M810.854 927.356L802.328 943.784M810.854 927.356L836.557 851.297M810.854 927.356L793.719 990.94M858.661 785.887L865.056 780.411M858.661 785.887L853.18 779.498M858.661 785.887L857.222 790.146M865.056 780.411C861.889 777.49 855.819 778.585 853.18 779.498M865.056 780.411C863.962 775.311 862.917 765.483 866.421 763.003M879.063 715.913L875.714 720.172V727.474M879.063 715.913L910.123 736.601C911.341 732.95 916.031 726.987 925.044 732.342C921.897 725.344 911.95 710.437 897.334 706.786C884.849 702.02 859.149 692.791 856.225 694.008C855.105 694.206 853.575 694.634 851.962 695.34M879.063 715.913C869.928 707.699 862.845 704.23 863.229 704.352C856.652 702.162 853.789 705.671 853.18 707.699C851.556 711.857 848.308 720.316 848.308 720.89C841.974 727.305 836.737 720.161 834.91 715.787M843.741 703.744C842.035 710.072 838.767 714.493 837.346 715.913C836.645 715.816 835.791 715.759 834.91 715.787M843.741 703.744C843.132 698.065 840.026 688.167 832.474 694.008C824.922 699.85 830.139 703.744 833.692 704.961C836.026 705.265 841.305 705.447 843.741 703.744ZM843.741 703.744C844.892 699.47 848.608 696.807 851.962 695.34M788.625 762.461C790.147 761.751 794.959 762.826 802.023 772.805C809.088 782.784 818.974 772.906 823.034 766.72C826.485 759.419 833.692 742.625 834.91 733.863C836.361 723.423 831.449 725.422 829.931 720.89M788.625 762.461C787.038 760.741 785.261 758.415 783.752 755.768M788.625 762.461C793.792 762.461 798.228 761.098 802.023 759.013M810.854 720.172C811.239 720.403 811.7 720.646 812.225 720.89M810.854 720.172C808.798 720.6 802.662 722.907 792.888 728.739M810.854 720.172C798.674 720.172 796.238 713.479 796.542 710.133C794.593 688.958 808.113 678.999 815.117 676.667C820.055 675.349 832.693 672.773 843.741 673.016C854.788 673.259 853.825 688 851.962 695.34M829.931 720.89C829.857 720.667 829.79 720.429 829.733 720.172C828.991 716.835 832.09 715.875 834.91 715.787M829.931 720.89C823.221 724.388 816.028 722.65 812.225 720.89M812.225 720.89C816.133 725.214 823.156 735.019 819.989 739.643C817.15 743.789 811.648 753.725 802.023 759.013M783.752 755.768C779.565 748.425 777.434 738.603 787.102 732.342C789.153 731.014 791.083 729.816 792.888 728.739M783.752 755.768C787.406 757.526 796.177 760.636 802.023 759.013M802.023 759.013C787.65 759.906 789.944 739.202 792.888 728.739M856.225 703.744C859.676 706.818 865.909 716.121 863.229 728.739C861.301 732.07 857.017 738.913 855.312 739.643C853.607 740.373 849.932 746.032 848.308 748.77M848.308 748.77C855.149 750.856 868.348 756.623 866.421 763.003M848.308 748.77C847.798 751.553 847.313 755.202 847.09 759.013M853.18 779.498C847.517 778.102 846.559 768.097 847.09 759.013M866.421 763.003C866.819 762.722 867.275 762.535 867.797 762.461C868.335 762.384 868.842 762.241 869.319 762.044M847.09 759.013L805.068 931.919L802.328 943.784M802.328 943.784L762.742 1025.93C760.085 1033.72 756.111 1055.23 757.551 1086.77M823.034 1065.17L829.739 1046.31M823.034 1065.17C809.392 1057.87 791.849 1060.91 784.783 1063.35M823.034 1065.17C824.656 1073.4 828.494 1087.79 834.208 1100.36M834.208 1023.8L833.083 998.851L827.297 993.679C802.632 986.073 800.805 994.895 795.933 998.851C794.615 999.92 793.721 1003.28 793.099 1007.67M834.208 1023.8L834.605 1032.62L829.739 1046.31M834.208 1023.8C820.716 1016.5 793.606 1003.05 793.099 1007.67M834.208 1023.8L841.913 1007.67C844.945 999.596 849.607 985.91 852.606 973.903M834.208 1023.8L834.329 993.679M793.099 1007.67C792.162 1014.29 791.844 1023.23 791.63 1030.19M791.63 1030.19C791.46 1035.69 791.355 1039.95 791.061 1040.83C790.406 1042.8 787.714 1053.37 784.783 1063.35M791.63 1030.19C797.432 1028.36 813.178 1029.03 829.739 1046.31M784.783 1063.35C783.628 1067.28 782.436 1071.12 781.317 1074.3C779.347 1079.9 775.312 1089.95 771.615 1098.94M771.615 1098.94C779.721 1098.94 796.42 1097.73 798.369 1092.86C800.318 1087.99 812.782 1090.83 818.771 1092.86C821.704 1094.6 826.38 1097.26 829.82 1098.94M771.615 1098.94C770.793 1100.94 769.988 1102.89 769.226 1104.72M834.208 1100.36C834.076 1100.84 832.259 1100.14 829.82 1098.94M829.82 1098.94C830.98 1103.81 832.953 1114.46 831.56 1118.11C830.168 1121.76 827.935 1134.84 826.993 1140.93C825.978 1156.55 824.861 1189.54 828.515 1196.6C832.169 1203.66 835.055 1220.64 836.041 1228.24M836.041 1228.24L832.778 1235.85C826.891 1247 811.646 1268.77 797.76 1266.58C783.875 1264.39 766.396 1234.23 759.392 1219.42C758.44 1216.77 757.321 1213.32 756.188 1209.38M769.226 1104.72V1129.06L771.615 1152.49V1171.35L767.918 1186.26L760.915 1198.12L756.188 1209.38M857.222 790.146L855.312 851.297V884.763V953.52C856.018 957.755 854.728 965.409 852.606 973.903M857.222 790.146L836.557 851.297M836.557 851.297L834.605 924.922L834.329 993.679M834.329 993.679L823.034 985.464L811.463 983.639L802.023 985.464L793.719 990.94M859.682 1127.54C860.525 1129.61 861.472 1131.97 862.485 1134.54M859.682 1127.54L859.172 1125.11M862.485 1134.54C869.73 1152.93 880.372 1182.13 880.586 1191.73C880.829 1202.69 886.168 1239.7 888.808 1256.84C893.781 1287.97 908.296 1353.47 926.566 1366.36C944.837 1379.26 979.855 1358.76 995.08 1346.89C998.038 1305.11 1002.18 1218.75 995.08 1207.55C987.982 1196.36 986.574 1194.17 986.757 1194.47M862.485 1134.54C865.981 1131.9 878.15 1127.42 898.856 1130.58C919.563 1133.75 926.972 1134.54 928.089 1134.54M928.089 1134.54C927.987 1154.92 933.814 1198.06 957.931 1207.55C982.048 1217.05 990.31 1225.3 991.426 1228.24L992.035 1218.81M928.089 1134.54L927.382 1126.32M939.66 1070.65C946.725 1080.14 952.348 1107.46 954.277 1119.94C957.017 1138.29 965.117 1176.52 975.592 1182.61C980.35 1185.37 984.032 1189.83 986.757 1194.47M939.66 1070.65C932.596 1061.16 927.378 1055.74 925.653 1054.22M939.66 1070.65L939.051 1048.14C939.255 1041.04 938.108 1022.76 931.896 1006.46M925.653 1054.22L922.112 1066.69M925.653 1054.22L928.698 1035.66C930.011 1029.37 931.79 1017.6 931.896 1006.46M919.867 1074.6L925.653 1106.25L927.382 1126.32M919.867 1074.6L922.112 1066.69M919.867 1074.6L916.518 1013.15L914.717 998.851M919.867 1074.6C919.378 1071.93 910.528 1039.62 906.164 1023.8C905.291 1019.4 904.128 1013.12 903.028 1006.46M992.035 1218.81L992.644 1209.38C991.924 1205.89 990.031 1200.05 986.757 1194.47M992.035 1218.81L975.592 1191.73C969.197 1186.56 955.434 1171.05 951.536 1150.36C947.638 1129.67 941.589 1104.42 939.051 1094.38C937.3 1085.15 931.46 1066.69 922.112 1066.69M859.172 1125.11C864.92 1120.75 884.436 1114.16 916.518 1122.67L927.382 1126.32M910.428 964.776C910.197 962.868 909.952 960.833 909.697 958.692M910.428 964.776C907.179 964.472 900.501 966.176 899.77 975.425C899.301 981.357 901.062 994.532 903.028 1006.46M910.428 964.776L914.717 998.851M875.714 727.474V751.813C875.26 754.716 873.375 760.364 869.319 762.044M875.714 727.474L879.063 743.598L886.98 775.543C889.721 785.684 895.628 807.001 897.334 811.138C899.039 815.276 899.871 831.116 900.074 838.519C900.379 841.663 900.805 850.324 900.074 859.816C899.903 862.042 900.175 867.289 900.74 874.419M869.319 762.044L872.669 790.146C873.075 798.766 874.922 818.257 879.063 827.263C883.205 836.268 888.503 862.452 890.635 874.419L894.898 903.017C898.209 914.781 905.392 938.856 907.63 941.046M907.63 941.046C905.012 918.296 902.067 891.165 900.74 874.419M907.63 941.046C908.358 947.373 909.061 953.36 909.697 958.692M900.74 874.419L916.518 935.266C919.563 947.841 926.566 976.337 930.22 989.723C931.512 994.454 931.954 1000.36 931.896 1006.46M909.697 958.692H896.725L875.714 962.647L852.606 973.903M914.717 998.851L903.028 1006.46" stroke="black"/>
</svg>
