<svg width="428" height="434" viewBox="0 0 428 434" fill="none" xmlns="http://www.w3.org/2000/svg">
<g clip-path="url(#clip0_604_4)">
<path d="M245 267C245 283.849 241.584 299.901 235.408 314.5M123 389C104.075 389 86.156 384.691 70.1713 377M1 267C1 251.172 4.01423 236.048 9.5 222.17M123 145C139.083 145 154.44 148.112 168.5 153.767M32.2144 185.5C42.8244 173.689 55.7059 163.96 70.1713 157M213.786 348.5C201.415 362.271 185.957 373.212 168.5 380.233M205 176.666C218.01 188.483 228.457 203.072 235.408 219.5M33.5315 349.943C23.3196 338.933 15.1151 326.034 9.5 311.83" stroke="#898888" stroke-width="3"/>
<path d="M433.6 29.6H376.6V417.8H433.6V434H259.6V417.8H316.6V96.2L118 381.8V417.8H175V434H1V417.8H58V29.6H1V13.4H175V29.6H118V353L316.6 67.4V29.6H259.6V13.4H433.6V29.6Z" fill="black"/>
</g>
<defs>
<clipPath id="clip0_604_4">
<rect width="428" height="434" fill="white"/>
</clipPath>
</defs>
</svg>
